  0
SECTION
  2
HEADER
  9
$ACADVER
  1
AC1009
  9
$EXTMIN
 10
0.0
 20
0.0
 30
0.0
  9
$EXTMAX
 10
1000.0
 20
1000.0
 30
0.0
  9
$FILLMODE
 70
 0
  9
$SPLFRAME
 70
 1
  0
ENDSEC
  0
SECTION
  2
TABLES
  0
TABLE
  2
LAYER
 70
1
  0
LAYER
  2
0
 70
     0
 62
     7
  6
CONTINUOUS
  0
ENDTAB
  0
ENDSEC
  0
SECTION
  2
ENTITIES
  0
LINE
  8
0
 62
     0
 10
143.754
 20
0.352778
 30
0.0
 11
77.1783
 21
0.352778
 31
0.0
  0
LINE
  8
0
 62
     0
 10
77.1783
 20
0.352778
 30
0.0
 11
77.1783
 21
7.07072
 31
0.0
  0
LINE
  8
0
 62
     0
 10
77.1783
 20
7.07072
 30
0.0
 11
77.953
 21
7.12858
 31
0.0
  0
LINE
  8
0
 62
     0
 10
77.953
 20
7.12858
 30
0.0
 11
82.2385
 21
7.66329
 31
0.0
  0
LINE
  8
0
 62
     0
 10
82.2385
 20
7.66329
 30
0.0
 11
87.0687
 21
8.52869
 31
0.0
  0
LINE
  8
0
 62
     0
 10
87.0687
 20
8.52869
 30
0.0
 11
88.1172
 21
8.75055
 31
0.0
  0
LINE
  8
0
 62
     0
 10
88.1172
 20
8.75055
 30
0.0
 11
88.8104
 21
8.89801
 31
0.0
  0
LINE
  8
0
 62
     0
 10
88.8104
 20
8.89801
 30
0.0
 11
90.8664
 21
9.45885
 31
0.0
  0
LINE
  8
0
 62
     0
 10
90.8664
 20
9.45885
 30
0.0
 11
92.8317
 21
10.2471
 31
0.0
  0
LINE
  8
0
 62
     0
 10
92.8317
 20
10.2471
 30
0.0
 11
94.0096
 21
11.1166
 31
0.0
  0
LINE
  8
0
 62
     0
 10
94.0096
 20
11.1166
 30
0.0
 11
94.404
 21
11.8291
 31
0.0
  0
LINE
  8
0
 62
     0
 10
94.404
 20
11.8291
 30
0.0
 11
94.404
 21
12.0661
 31
0.0
  0
LINE
  8
0
 62
     0
 10
94.404
 20
12.0661
 30
0.0
 11
94.404
 21
12.4547
 31
0.0
  0
LINE
  8
0
 62
     0
 10
94.404
 20
12.4547
 30
0.0
 11
94.295
 21
13.4731
 31
0.0
  0
LINE
  8
0
 62
     0
 10
94.295
 20
13.4731
 30
0.0
 11
94.2742
 21
13.6164
 31
0.0
  0
LINE
  8
0
 62
     0
 10
94.2742
 20
13.6164
 30
0.0
 11
94.2523
 21
13.7611
 31
0.0
  0
LINE
  8
0
 62
     0
 10
94.2523
 20
13.7611
 30
0.0
 11
94.0262
 21
14.6293
 31
0.0
  0
LINE
  8
0
 62
     0
 10
94.0262
 20
14.6293
 30
0.0
 11
93.6431
 21
15.6972
 31
0.0
  0
LINE
  8
0
 62
     0
 10
93.6431
 20
15.6972
 30
0.0
 11
93.5426
 21
15.9411
 31
0.0
  0
LINE
  8
0
 62
     0
 10
93.5426
 20
15.9411
 30
0.0
 11
83.1204
 21
41.2627
 31
0.0
  0
LINE
  8
0
 62
     0
 10
83.1204
 20
41.2627
 30
0.0
 11
40.918
 21
41.2627
 31
0.0
  0
LINE
  8
0
 62
     0
 10
40.918
 20
41.2627
 30
0.0
 11
40.6742
 21
40.6742
 31
0.0
  0
LINE
  8
0
 62
     0
 10
40.6742
 20
40.6742
 30
0.0
 11
39.3788
 21
37.4304
 31
0.0
  0
LINE
  8
0
 62
     0
 10
39.3788
 20
37.4304
 30
0.0
 11
37.9829
 21
33.784
 31
0.0
  0
LINE
  8
0
 62
     0
 10
37.9829
 20
33.784
 30
0.0
 11
37.6894
 21
32.9944
 31
0.0
  0
LINE
  8
0
 62
     0
 10
37.6894
 20
32.9944
 30
0.0
 11
37.3944
 21
32.2061
 31
0.0
  0
LINE
  8
0
 62
     0
 10
37.3944
 20
32.2061
 30
0.0
 11
36.0412
 21
28.5171
 31
0.0
  0
LINE
  8
0
 62
     0
 10
36.0412
 20
28.5171
 30
0.0
 11
34.8464
 21
25.1713
 31
0.0
  0
LINE
  8
0
 62
     0
 10
34.8464
 20
25.1713
 30
0.0
 11
34.6315
 21
24.5539
 31
0.0
  0
LINE
  8
0
 62
     0
 10
34.6315
 20
24.5539
 30
0.0
 11
34.3586
 21
23.7505
 31
0.0
  0
LINE
  8
0
 62
     0
 10
34.3586
 20
23.7505
 30
0.0
 11
33.3279
 21
20.3991
 31
0.0
  0
LINE
  8
0
 62
     0
 10
33.3279
 20
20.3991
 30
0.0
 11
32.7436
 21
17.9379
 31
0.0
  0
LINE
  8
0
 62
     0
 10
32.7436
 20
17.9379
 30
0.0
 11
32.694
 21
17.5782
 31
0.0
  0
LINE
  8
0
 62
     0
 10
32.694
 20
17.5782
 30
0.0
 11
32.643
 21
17.22
 31
0.0
  0
LINE
  8
0
 62
     0
 10
32.643
 20
17.22
 30
0.0
 11
32.4666
 21
15.7482
 31
0.0
  0
LINE
  8
0
 62
     0
 10
32.4666
 20
15.7482
 30
0.0
 11
32.3922
 21
14.8594
 31
0.0
  0
LINE
  8
0
 62
     0
 10
32.3922
 20
14.8594
 30
0.0
 11
32.3922
 21
14.5631
 31
0.0
  0
LINE
  8
0
 62
     0
 10
32.3922
 20
14.5631
 30
0.0
 11
32.3922
 21
14.2324
 31
0.0
  0
LINE
  8
0
 62
     0
 10
32.3922
 20
14.2324
 30
0.0
 11
32.6526
 21
13.2374
 31
0.0
  0
LINE
  8
0
 62
     0
 10
32.6526
 20
13.2374
 30
0.0
 11
33.4353
 21
12.0124
 31
0.0
  0
LINE
  8
0
 62
     0
 10
33.4353
 20
12.0124
 30
0.0
 11
34.7404
 21
10.8906
 31
0.0
  0
LINE
  8
0
 62
     0
 10
34.7404
 20
10.8906
 30
0.0
 11
36.0948
 21
10.09
 31
0.0
  0
LINE
  8
0
 62
     0
 10
36.0948
 20
10.09
 30
0.0
 11
36.5689
 21
9.86952
 31
0.0
  0
LINE
  8
0
 62
     0
 10
36.5689
 20
9.86952
 30
0.0
 11
37.1546
 21
9.59803
 31
0.0
  0
LINE
  8
0
 62
     0
 10
37.1546
 20
9.59803
 30
0.0
 11
39.0038
 21
8.96828
 31
0.0
  0
LINE
  8
0
 62
     0
 10
39.0038
 20
8.96828
 30
0.0
 11
42.1351
 21
8.20208
 31
0.0
  0
LINE
  8
0
 62
     0
 10
42.1351
 20
8.20208
 30
0.0
 11
45.9588
 21
7.56955
 31
0.0
  0
LINE
  8
0
 62
     0
 10
45.9588
 20
7.56955
 30
0.0
 11
49.3462
 21
7.1713
 31
0.0
  0
LINE
  8
0
 62
     0
 10
49.3462
 20
7.1713
 30
0.0
 11
50.479
 21
7.07072
 31
0.0
  0
LINE
  8
0
 62
     0
 10
50.479
 20
7.07072
 30
0.0
 11
50.479
 21
0.352778
 31
0.0
  0
LINE
  8
0
 62
     0
 10
50.479
 20
0.352778
 30
0.0
 11
0.352778
 21
0.352778
 31
0.0
  0
LINE
  8
0
 62
     0
 10
0.352778
 20
0.352778
 30
0.0
 11
0.352778
 21
7.07072
 31
0.0
  0
LINE
  8
0
 62
     0
 10
0.352778
 20
7.07072
 30
0.0
 11
0.825444
 21
7.09965
 31
0.0
  0
LINE
  8
0
 62
     0
 10
0.825444
 20
7.09965
 30
0.0
 11
6.17224
 21
7.85343
 31
0.0
  0
LINE
  8
0
 62
     0
 10
6.17224
 20
7.85343
 30
0.0
 11
6.76892
 21
7.97472
 31
0.0
  0
LINE
  8
0
 62
     0
 10
6.76892
 20
7.97472
 30
0.0
 11
7.36424
 21
8.09734
 31
0.0
  0
LINE
  8
0
 62
     0
 10
7.36424
 20
8.09734
 30
0.0
 11
9.96597
 21
8.847
 31
0.0
  0
LINE
  8
0
 62
     0
 10
9.96597
 20
8.847
 30
0.0
 11
12.0661
 21
9.78408
 31
0.0
  0
LINE
  8
0
 62
     0
 10
12.0661
 20
9.78408
 30
0.0
 11
12.4106
 21
9.99906
 31
0.0
  0
LINE
  8
0
 62
     0
 10
12.4106
 20
9.99906
 30
0.0
 11
12.999
 21
10.3436
 31
0.0
  0
LINE
  8
0
 62
     0
 10
12.999
 20
10.3436
 30
0.0
 11
15.6724
 21
12.3031
 31
0.0
  0
LINE
  8
0
 62
     0
 10
15.6724
 20
12.3031
 30
0.0
 11
17.9875
 21
14.5783
 31
0.0
  0
LINE
  8
0
 62
     0
 10
17.9875
 20
14.5783
 30
0.0
 11
18.3968
 21
15.0799
 31
0.0
  0
LINE
  8
0
 62
     0
 10
18.3968
 20
15.0799
 30
0.0
 11
18.8047
 21
15.5829
 31
0.0
  0
LINE
  8
0
 62
     0
 10
18.8047
 20
15.5829
 30
0.0
 11
20.6458
 21
18.3761
 31
0.0
  0
LINE
  8
0
 62
     0
 10
20.6458
 20
18.3761
 30
0.0
 11
22.2154
 21
21.5401
 31
0.0
  0
LINE
  8
0
 62
     0
 10
22.2154
 20
21.5401
 30
0.0
 11
22.4882
 21
22.2291
 31
0.0
  0
LINE
  8
0
 62
     0
 10
22.4882
 20
22.2291
 30
0.0
 11
24.1529
 21
26.2626
 31
0.0
  0
LINE
  8
0
 62
     0
 10
24.1529
 20
26.2626
 30
0.0
 11
40.8397
 21
66.6722
 31
0.0
  0
LINE
  8
0
 62
     0
 10
40.8397
 20
66.6722
 30
0.0
 11
42.5125
 21
70.7196
 31
0.0
  0
LINE
  8
0
 62
     0
 10
42.5125
 20
70.7196
 30
0.0
 11
43.7981
 21
73.8339
 31
0.0
  0
LINE
  8
0
 62
     0
 10
43.7981
 20
73.8339
 30
0.0
 11
47.661
 21
83.1755
 31
0.0
  0
LINE
  8
0
 62
     0
 10
47.661
 20
83.1755
 30
0.0
 11
53.0722
 21
96.2561
 31
0.0
  0
LINE
  8
0
 62
     0
 10
53.0722
 20
96.2561
 30
0.0
 11
58.7484
 21
109.962
 31
0.0
  0
LINE
  8
0
 62
     0
 10
58.7484
 20
109.962
 30
0.0
 11
63.2037
 21
120.709
 31
0.0
  0
LINE
  8
0
 62
     0
 10
63.2037
 20
120.709
 30
0.0
 11
64.6892
 21
124.291
 31
0.0
  0
LINE
  8
0
 62
     0
 10
64.6892
 20
124.291
 30
0.0
 11
81.9161
 21
124.291
 31
0.0
  0
LINE
  8
0
 62
     0
 10
81.9161
 20
124.291
 30
0.0
 11
82.9426
 21
121.765
 31
0.0
  0
LINE
  8
0
 62
     0
 10
82.9426
 20
121.765
 30
0.0
 11
86.0213
 21
114.184
 31
0.0
  0
LINE
  8
0
 62
     0
 10
86.0213
 20
114.184
 30
0.0
 11
89.8977
 21
104.622
 31
0.0
  0
LINE
  8
0
 62
     0
 10
89.8977
 20
104.622
 30
0.0
 11
93.5454
 21
95.6028
 31
0.0
  0
LINE
  8
0
 62
     0
 10
93.5454
 20
95.6028
 30
0.0
 11
96.9656
 21
87.1266
 31
0.0
  0
LINE
  8
0
 62
     0
 10
96.9656
 20
87.1266
 30
0.0
 11
100.156
 21
79.1944
 31
0.0
  0
LINE
  8
0
 62
     0
 10
100.156
 20
79.1944
 30
0.0
 11
103.119
 21
71.8069
 31
0.0
  0
LINE
  8
0
 62
     0
 10
103.119
 20
71.8069
 30
0.0
 11
105.851
 21
64.9623
 31
0.0
  0
LINE
  8
0
 62
     0
 10
105.851
 20
64.9623
 30
0.0
 11
107.731
 21
60.2368
 31
0.0
  0
LINE
  8
0
 62
     0
 10
107.731
 20
60.2368
 30
0.0
 11
108.356
 21
58.6602
 31
0.0
  0
LINE
  8
0
 62
     0
 10
108.356
 20
58.6602
 30
0.0
 11
109.5
 21
55.7735
 31
0.0
  0
LINE
  8
0
 62
     0
 10
109.5
 20
55.7735
 30
0.0
 11
112.958
 21
47.1205
 31
0.0
  0
LINE
  8
0
 62
     0
 10
112.958
 20
47.1205
 30
0.0
 11
117.206
 21
36.613
 31
0.0
  0
LINE
  8
0
 62
     0
 10
117.206
 20
36.613
 30
0.0
 11
121.098
 21
27.1391
 31
0.0
  0
LINE
  8
0
 62
     0
 10
121.098
 20
27.1391
 30
0.0
 11
123.741
 21
20.8043
 31
0.0
  0
LINE
  8
0
 62
     0
 10
123.741
 20
20.8043
 30
0.0
 11
124.634
 21
18.6972
 31
0.0
  0
LINE
  8
0
 62
     0
 10
124.634
 20
18.6972
 30
0.0
 11
124.82
 21
18.2673
 31
0.0
  0
LINE
  8
0
 62
     0
 10
124.82
 20
18.2673
 30
0.0
 11
125.905
 21
16.2333
 31
0.0
  0
LINE
  8
0
 62
     0
 10
125.905
 20
16.2333
 30
0.0
 11
127.189
 21
14.3564
 31
0.0
  0
LINE
  8
0
 62
     0
 10
127.189
 20
14.3564
 30
0.0
 11
127.477
 21
14.0036
 31
0.0
  0
LINE
  8
0
 62
     0
 10
127.477
 20
14.0036
 30
0.0
 11
127.763
 21
13.6522
 31
0.0
  0
LINE
  8
0
 62
     0
 10
127.763
 20
13.6522
 30
0.0
 11
129.565
 21
11.9476
 31
0.0
  0
LINE
  8
0
 62
     0
 10
129.565
 20
11.9476
 30
0.0
 11
131.855
 21
10.316
 31
0.0
  0
LINE
  8
0
 62
     0
 10
131.855
 20
10.316
 30
0.0
 11
132.387
 21
9.99906
 31
0.0
  0
LINE
  8
0
 62
     0
 10
132.387
 20
9.99906
 30
0.0
 11
132.788
 21
9.77029
 31
0.0
  0
LINE
  8
0
 62
     0
 10
132.788
 20
9.77029
 30
0.0
 11
134.991
 21
8.79327
 31
0.0
  0
LINE
  8
0
 62
     0
 10
134.991
 20
8.79327
 30
0.0
 11
137.452
 21
8.04774
 31
0.0
  0
LINE
  8
0
 62
     0
 10
137.452
 20
8.04774
 30
0.0
 11
137.984
 21
7.932
 31
0.0
  0
LINE
  8
0
 62
     0
 10
137.984
 20
7.932
 30
0.0
 11
138.515
 21
7.81763
 31
0.0
  0
LINE
  8
0
 62
     0
 10
138.515
 20
7.81763
 30
0.0
 11
143.323
 21
7.09965
 31
0.0
  0
LINE
  8
0
 62
     0
 10
143.323
 20
7.09965
 30
0.0
 11
143.754
 21
7.07072
 31
0.0
  0
LINE
  8
0
 62
     0
 10
143.754
 20
7.07072
 30
0.0
 11
143.754
 21
0.352778
 31
0.0
  0
LINE
  8
0
 62
     0
 10
79.5898
 20
49.79
 30
0.0
 11
61.8476
 21
94.0594
 31
0.0
  0
LINE
  8
0
 62
     0
 10
61.8476
 20
94.0594
 30
0.0
 11
44.3646
 21
49.79
 31
0.0
  0
LINE
  8
0
 62
     0
 10
44.3646
 20
49.79
 30
0.0
 11
79.5898
 21
49.79
 31
0.0
  0
ENDSEC
  0
EOF
