  0
SECTION
  2
HEADER
  9
$ACADVER
  1
AC1009
  9
$EXTMIN
 10
0.0
 20
0.0
 30
0.0
  9
$EXTMAX
 10
1000.0
 20
1000.0
 30
0.0
  9
$FILLMODE
 70
 0
  9
$SPLFRAME
 70
 1
  0
ENDSEC
  0
SECTION
  2
TABLES
  0
TABLE
  2
LAYER
 70
1
  0
LAYER
  2
0
 70
     0
 62
     7
  6
CONTINUOUS
  0
ENDTAB
  0
ENDSEC
  0
SECTION
  2
ENTITIES
  0
LINE
  8
0
 62
     0
 10
108.271
 20
56.4212
 30
0.0
 11
109.189
 21
55.79
 31
0.0
  0
LINE
  8
0
 62
     0
 10
109.189
 20
55.79
 30
0.0
 11
113.265
 21
52.1476
 31
0.0
  0
LINE
  8
0
 62
     0
 10
113.265
 20
52.1476
 30
0.0
 11
116.652
 21
47.8592
 31
0.0
  0
LINE
  8
0
 62
     0
 10
116.652
 20
47.8592
 30
0.0
 11
117.227
 21
46.9043
 31
0.0
  0
LINE
  8
0
 62
     0
 10
117.227
 20
46.9043
 30
0.0
 11
117.8
 21
45.9507
 31
0.0
  0
LINE
  8
0
 62
     0
 10
117.8
 20
45.9507
 30
0.0
 11
119.811
 21
40.6714
 31
0.0
  0
LINE
  8
0
 62
     0
 10
119.811
 20
40.6714
 30
0.0
 11
120.673
 21
35.2378
 31
0.0
  0
LINE
  8
0
 62
     0
 10
120.673
 20
35.2378
 30
0.0
 11
120.673
 21
33.4257
 31
0.0
  0
LINE
  8
0
 62
     0
 10
120.673
 20
33.4257
 30
0.0
 11
120.673
 21
32.3081
 31
0.0
  0
LINE
  8
0
 62
     0
 10
120.673
 20
32.3081
 30
0.0
 11
120.428
 21
28.9553
 31
0.0
  0
LINE
  8
0
 62
     0
 10
120.428
 20
28.9553
 30
0.0
 11
119.694
 21
24.846
 31
0.0
  0
LINE
  8
0
 62
     0
 10
119.694
 20
24.846
 30
0.0
 11
118.468
 21
21.0964
 31
0.0
  0
LINE
  8
0
 62
     0
 10
118.468
 20
21.0964
 30
0.0
 11
117.246
 21
18.5153
 31
0.0
  0
LINE
  8
0
 62
     0
 10
117.246
 20
18.5153
 30
0.0
 11
116.754
 21
17.7078
 31
0.0
  0
LINE
  8
0
 62
     0
 10
116.754
 20
17.7078
 30
0.0
 11
116.268
 21
16.914
 31
0.0
  0
LINE
  8
0
 62
     0
 10
116.268
 20
16.914
 30
0.0
 11
114.581
 21
14.6692
 31
0.0
  0
LINE
  8
0
 62
     0
 10
114.581
 20
14.6692
 30
0.0
 11
111.984
 21
11.9696
 31
0.0
  0
LINE
  8
0
 62
     0
 10
111.984
 20
11.9696
 30
0.0
 11
108.961
 21
9.60907
 31
0.0
  0
LINE
  8
0
 62
     0
 10
108.961
 20
9.60907
 30
0.0
 11
106.404
 21
8.03811
 31
0.0
  0
LINE
  8
0
 62
     0
 10
106.404
 20
8.03811
 30
0.0
 11
105.515
 21
7.58747
 31
0.0
  0
LINE
  8
0
 62
     0
 10
105.515
 20
7.58747
 30
0.0
 11
104.223
 21
6.92739
 31
0.0
  0
LINE
  8
0
 62
     0
 10
104.223
 20
6.92739
 30
0.0
 11
97.1709
 21
4.20716
 31
0.0
  0
LINE
  8
0
 62
     0
 10
97.1709
 20
4.20716
 30
0.0
 11
89.33
 21
2.26136
 31
0.0
  0
LINE
  8
0
 62
     0
 10
89.33
 20
2.26136
 30
0.0
 11
87.6434
 21
1.98851
 31
0.0
  0
LINE
  8
0
 62
     0
 10
87.6434
 20
1.98851
 30
0.0
 11
85.9564
 21
1.71704
 31
0.0
  0
LINE
  8
0
 62
     0
 10
85.9564
 20
1.71704
 30
0.0
 11
76.6286
 21
0.762056
 31
0.0
  0
LINE
  8
0
 62
     0
 10
76.6286
 20
0.762056
 30
0.0
 11
67.0278
 21
0.352778
 31
0.0
  0
LINE
  8
0
 62
     0
 10
67.0278
 20
0.352778
 30
0.0
 11
63.8281
 21
0.352778
 31
0.0
  0
LINE
  8
0
 62
     0
 10
63.8281
 20
0.352778
 30
0.0
 11
0.352778
 21
0.352778
 31
0.0
  0
LINE
  8
0
 62
     0
 10
0.352778
 20
0.352778
 30
0.0
 11
0.352778
 21
7.07072
 31
0.0
  0
LINE
  8
0
 62
     0
 10
0.352778
 20
7.07072
 30
0.0
 11
0.797885
 21
7.11482
 31
0.0
  0
LINE
  8
0
 62
     0
 10
0.797885
 20
7.11482
 30
0.0
 11
3.36655
 21
7.39454
 31
0.0
  0
LINE
  8
0
 62
     0
 10
3.36655
 20
7.39454
 30
0.0
 11
6.39547
 21
7.75974
 31
0.0
  0
LINE
  8
0
 62
     0
 10
6.39547
 20
7.75974
 30
0.0
 11
7.07072
 21
7.84518
 31
0.0
  0
LINE
  8
0
 62
     0
 10
7.07072
 20
7.84518
 30
0.0
 11
7.74457
 21
7.932
 31
0.0
  0
LINE
  8
0
 62
     0
 10
7.74457
 20
7.932
 30
0.0
 11
10.5144
 21
8.40602
 31
0.0
  0
LINE
  8
0
 62
     0
 10
10.5144
 20
8.40602
 30
0.0
 11
12.4823
 21
8.93657
 31
0.0
  0
LINE
  8
0
 62
     0
 10
12.4823
 20
8.93657
 30
0.0
 11
12.7551
 21
9.05094
 31
0.0
  0
LINE
  8
0
 62
     0
 10
12.7551
 20
9.05094
 30
0.0
 11
13.13
 21
9.2039
 31
0.0
  0
LINE
  8
0
 62
     0
 10
13.13
 20
9.2039
 30
0.0
 11
14.2214
 21
9.74824
 31
0.0
  0
LINE
  8
0
 62
     0
 10
14.2214
 20
9.74824
 30
0.0
 11
15.4354
 21
10.5475
 31
0.0
  0
LINE
  8
0
 62
     0
 10
15.4354
 20
10.5475
 30
0.0
 11
16.3959
 21
11.4501
 31
0.0
  0
LINE
  8
0
 62
     0
 10
16.3959
 20
11.4501
 30
0.0
 11
16.9568
 21
12.1874
 31
0.0
  0
LINE
  8
0
 62
     0
 10
16.9568
 20
12.1874
 30
0.0
 11
17.1042
 21
12.4533
 31
0.0
  0
LINE
  8
0
 62
     0
 10
17.1042
 20
12.4533
 30
0.0
 11
17.2971
 21
12.8061
 31
0.0
  0
LINE
  8
0
 62
     0
 10
17.2971
 20
12.8061
 30
0.0
 11
17.9765
 21
14.8759
 31
0.0
  0
LINE
  8
0
 62
     0
 10
17.9765
 20
14.8759
 30
0.0
 11
18.2673
 21
17.1621
 31
0.0
  0
LINE
  8
0
 62
     0
 10
18.2673
 20
17.1621
 30
0.0
 11
18.2673
 21
17.9228
 31
0.0
  0
LINE
  8
0
 62
     0
 10
18.2673
 20
17.9228
 30
0.0
 11
18.2673
 21
104.05
 31
0.0
  0
LINE
  8
0
 62
     0
 10
18.2673
 20
104.05
 30
0.0
 11
18.2673
 21
104.761
 31
0.0
  0
LINE
  8
0
 62
     0
 10
18.2673
 20
104.761
 30
0.0
 11
18.0303
 21
106.893
 31
0.0
  0
LINE
  8
0
 62
     0
 10
18.0303
 20
106.893
 30
0.0
 11
17.4763
 21
108.873
 31
0.0
  0
LINE
  8
0
 62
     0
 10
17.4763
 20
108.873
 30
0.0
 11
17.3192
 21
109.218
 31
0.0
  0
LINE
  8
0
 62
     0
 10
17.3192
 20
109.218
 30
0.0
 11
17.1965
 21
109.485
 31
0.0
  0
LINE
  8
0
 62
     0
 10
17.1965
 20
109.485
 30
0.0
 11
16.6784
 21
110.22
 31
0.0
  0
LINE
  8
0
 62
     0
 10
16.6784
 20
110.22
 30
0.0
 11
15.7041
 21
111.157
 31
0.0
  0
LINE
  8
0
 62
     0
 10
15.7041
 20
111.157
 30
0.0
 11
14.3964
 21
112.029
 31
0.0
  0
LINE
  8
0
 62
     0
 10
14.3964
 20
112.029
 30
0.0
 11
13.1741
 21
112.656
 31
0.0
  0
LINE
  8
0
 62
     0
 10
13.1741
 20
112.656
 30
0.0
 11
12.7551
 21
112.835
 31
0.0
  0
LINE
  8
0
 62
     0
 10
12.7551
 20
112.835
 30
0.0
 11
12.31
 21
113.023
 31
0.0
  0
LINE
  8
0
 62
     0
 10
12.31
 20
113.023
 30
0.0
 11
7.14237
 21
114.566
 31
0.0
  0
LINE
  8
0
 62
     0
 10
7.14237
 20
114.566
 30
0.0
 11
6.55394
 21
114.687
 31
0.0
  0
LINE
  8
0
 62
     0
 10
6.55394
 20
114.687
 30
0.0
 11
5.96554
 21
114.81
 31
0.0
  0
LINE
  8
0
 62
     0
 10
5.96554
 20
114.81
 30
0.0
 11
0.797885
 21
115.778
 31
0.0
  0
LINE
  8
0
 62
     0
 10
0.797885
 20
115.778
 30
0.0
 11
0.352778
 21
115.85
 31
0.0
  0
LINE
  8
0
 62
     0
 10
0.352778
 20
115.85
 30
0.0
 11
0.352778
 21
122.567
 31
0.0
  0
LINE
  8
0
 62
     0
 10
0.352778
 20
122.567
 30
0.0
 11
66.7561
 21
122.567
 31
0.0
  0
LINE
  8
0
 62
     0
 10
66.7561
 20
122.567
 30
0.0
 11
69.6708
 21
122.567
 31
0.0
  0
LINE
  8
0
 62
     0
 10
69.6708
 20
122.567
 30
0.0
 11
78.4158
 21
122.137
 31
0.0
  0
LINE
  8
0
 62
     0
 10
78.4158
 20
122.137
 30
0.0
 11
88.3324
 21
120.846
 31
0.0
  0
LINE
  8
0
 62
     0
 10
88.3324
 20
120.846
 30
0.0
 11
96.5027
 21
118.692
 31
0.0
  0
LINE
  8
0
 62
     0
 10
96.5027
 20
118.692
 30
0.0
 11
101.433
 21
116.607
 31
0.0
  0
LINE
  8
0
 62
     0
 10
101.433
 20
116.607
 30
0.0
 11
102.931
 21
115.677
 31
0.0
  0
LINE
  8
0
 62
     0
 10
102.931
 20
115.677
 30
0.0
 11
104.239
 21
114.865
 31
0.0
  0
LINE
  8
0
 62
     0
 10
104.239
 20
114.865
 30
0.0
 11
107.792
 21
111.824
 31
0.0
  0
LINE
  8
0
 62
     0
 10
107.792
 20
111.824
 30
0.0
 11
111.263
 21
107.151
 31
0.0
  0
LINE
  8
0
 62
     0
 10
111.263
 20
107.151
 30
0.0
 11
113.346
 21
101.661
 31
0.0
  0
LINE
  8
0
 62
     0
 10
113.346
 20
101.661
 30
0.0
 11
114.041
 21
96.9285
 31
0.0
  0
LINE
  8
0
 62
     0
 10
114.041
 20
96.9285
 30
0.0
 11
114.041
 21
95.3505
 31
0.0
  0
LINE
  8
0
 62
     0
 10
114.041
 20
95.3505
 30
0.0
 11
114.041
 21
93.8953
 31
0.0
  0
LINE
  8
0
 62
     0
 10
114.041
 20
93.8953
 30
0.0
 11
113.415
 21
89.5269
 31
0.0
  0
LINE
  8
0
 62
     0
 10
113.415
 20
89.5269
 30
0.0
 11
111.959
 21
85.2385
 31
0.0
  0
LINE
  8
0
 62
     0
 10
111.959
 20
85.2385
 30
0.0
 11
111.543
 21
84.4557
 31
0.0
  0
LINE
  8
0
 62
     0
 10
111.543
 20
84.4557
 30
0.0
 11
111.126
 21
83.6747
 31
0.0
  0
LINE
  8
0
 62
     0
 10
111.126
 20
83.6747
 30
0.0
 11
108.507
 21
80.0749
 31
0.0
  0
LINE
  8
0
 62
     0
 10
108.507
 20
80.0749
 30
0.0
 11
105.169
 21
76.8918
 31
0.0
  0
LINE
  8
0
 62
     0
 10
105.169
 20
76.8918
 30
0.0
 11
104.395
 21
76.3171
 31
0.0
  0
LINE
  8
0
 62
     0
 10
104.395
 20
76.3171
 30
0.0
 11
103.691
 21
75.7865
 31
0.0
  0
LINE
  8
0
 62
     0
 10
103.691
 20
75.7865
 30
0.0
 11
99.7645
 21
73.346
 31
0.0
  0
LINE
  8
0
 62
     0
 10
99.7645
 20
73.346
 30
0.0
 11
95.2927
 21
71.1937
 31
0.0
  0
LINE
  8
0
 62
     0
 10
95.2927
 20
71.1937
 30
0.0
 11
94.3169
 21
70.805
 31
0.0
  0
LINE
  8
0
 62
     0
 10
94.3169
 20
70.805
 30
0.0
 11
93.3401
 21
70.4176
 31
0.0
  0
LINE
  8
0
 62
     0
 10
93.3401
 20
70.4176
 30
0.0
 11
88.2456
 21
68.6745
 31
0.0
  0
LINE
  8
0
 62
     0
 10
88.2456
 20
68.6745
 30
0.0
 11
82.8629
 21
67.1876
 31
0.0
  0
LINE
  8
0
 62
     0
 10
82.8629
 20
67.1876
 30
0.0
 11
81.7439
 21
66.9286
 31
0.0
  0
LINE
  8
0
 62
     0
 10
81.7439
 20
66.9286
 30
0.0
 11
81.7439
 21
65.2928
 31
0.0
  0
LINE
  8
0
 62
     0
 10
81.7439
 20
65.2928
 30
0.0
 11
82.8629
 21
65.1785
 31
0.0
  0
LINE
  8
0
 62
     0
 10
82.8629
 20
65.1785
 30
0.0
 11
88.5899
 21
64.207
 31
0.0
  0
LINE
  8
0
 62
     0
 10
88.5899
 20
64.207
 30
0.0
 11
94.4908
 21
62.702
 31
0.0
  0
LINE
  8
0
 62
     0
 10
94.4908
 20
62.702
 30
0.0
 11
95.6966
 21
62.3217
 31
0.0
  0
LINE
  8
0
 62
     0
 10
95.6966
 20
62.3217
 30
0.0
 11
96.901
 21
61.9414
 31
0.0
  0
LINE
  8
0
 62
     0
 10
96.901
 20
61.9414
 30
0.0
 11
102.456
 21
59.7062
 31
0.0
  0
LINE
  8
0
 62
     0
 10
102.456
 20
59.7062
 30
0.0
 11
107.381
 21
57.0248
 31
0.0
  0
LINE
  8
0
 62
     0
 10
107.381
 20
57.0248
 30
0.0
 11
108.271
 21
56.4212
 31
0.0
  0
LINE
  8
0
 62
     0
 10
80.5367
 20
93.1982
 30
0.0
 11
80.5367
 21
94.3998
 31
0.0
  0
LINE
  8
0
 62
     0
 10
80.5367
 20
94.3998
 30
0.0
 11
80.1783
 21
98.0006
 31
0.0
  0
LINE
  8
0
 62
     0
 10
80.1783
 20
98.0006
 30
0.0
 11
79.1048
 21
102.242
 31
0.0
  0
LINE
  8
0
 62
     0
 10
79.1048
 20
102.242
 30
0.0
 11
77.3148
 21
105.924
 31
0.0
  0
LINE
  8
0
 62
     0
 10
77.3148
 20
105.924
 30
0.0
 11
75.5153
 21
108.345
 31
0.0
  0
LINE
  8
0
 62
     0
 10
75.5153
 20
108.345
 30
0.0
 11
74.8097
 21
109.045
 31
0.0
  0
LINE
  8
0
 62
     0
 10
74.8097
 20
109.045
 30
0.0
 11
74.0929
 21
109.757
 31
0.0
  0
LINE
  8
0
 62
     0
 10
74.0929
 20
109.757
 30
0.0
 11
71.5878
 21
111.533
 31
0.0
  0
LINE
  8
0
 62
     0
 10
71.5878
 20
111.533
 30
0.0
 11
67.6494
 21
113.309
 31
0.0
  0
LINE
  8
0
 62
     0
 10
67.6494
 20
113.309
 30
0.0
 11
62.9955
 21
114.376
 31
0.0
  0
LINE
  8
0
 62
     0
 10
62.9955
 20
114.376
 30
0.0
 11
58.9689
 21
114.73
 31
0.0
  0
LINE
  8
0
 62
     0
 10
58.9689
 20
114.73
 30
0.0
 11
57.627
 21
114.73
 31
0.0
  0
LINE
  8
0
 62
     0
 10
57.627
 20
114.73
 30
0.0
 11
57.1556
 21
114.73
 31
0.0
  0
LINE
  8
0
 62
     0
 10
57.1556
 20
114.73
 30
0.0
 11
55.7431
 21
114.698
 31
0.0
  0
LINE
  8
0
 62
     0
 10
55.7431
 20
114.698
 30
0.0
 11
53.8014
 21
114.622
 31
0.0
  0
LINE
  8
0
 62
     0
 10
53.8014
 20
114.622
 30
0.0
 11
53.3647
 21
114.601
 31
0.0
  0
LINE
  8
0
 62
     0
 10
53.3647
 20
114.601
 30
0.0
 11
52.9262
 21
114.58
 31
0.0
  0
LINE
  8
0
 62
     0
 10
52.9262
 20
114.58
 30
0.0
 11
50.9199
 21
114.483
 31
0.0
  0
LINE
  8
0
 62
     0
 10
50.9199
 20
114.483
 30
0.0
 11
49.1589
 21
114.401
 31
0.0
  0
LINE
  8
0
 62
     0
 10
49.1589
 20
114.401
 30
0.0
 11
48.8431
 21
114.385
 31
0.0
  0
LINE
  8
0
 62
     0
 10
48.8431
 20
114.385
 30
0.0
 11
48.8431
 21
69.0824
 31
0.0
  0
LINE
  8
0
 62
     0
 10
48.8431
 20
69.0824
 30
0.0
 11
53.3217
 21
69.0824
 31
0.0
  0
LINE
  8
0
 62
     0
 10
53.3217
 20
69.0824
 30
0.0
 11
54.9508
 21
69.0824
 31
0.0
  0
LINE
  8
0
 62
     0
 10
54.9508
 20
69.0824
 30
0.0
 11
59.8399
 21
69.4891
 31
0.0
  0
LINE
  8
0
 62
     0
 10
59.8399
 20
69.4891
 30
0.0
 11
65.4431
 21
70.7087
 31
0.0
  0
LINE
  8
0
 62
     0
 10
65.4431
 20
70.7087
 30
0.0
 11
70.1312
 21
72.741
 31
0.0
  0
LINE
  8
0
 62
     0
 10
70.1312
 20
72.741
 30
0.0
 11
73.0691
 21
74.7656
 31
0.0
  0
LINE
  8
0
 62
     0
 10
73.0691
 20
74.7656
 30
0.0
 11
73.9055
 21
75.5855
 31
0.0
  0
LINE
  8
0
 62
     0
 10
73.9055
 20
75.5855
 30
0.0
 11
74.7173
 21
76.382
 31
0.0
  0
LINE
  8
0
 62
     0
 10
74.7173
 20
76.382
 30
0.0
 11
76.8064
 21
79.1256
 31
0.0
  0
LINE
  8
0
 62
     0
 10
76.8064
 20
79.1256
 30
0.0
 11
78.879
 21
83.2404
 31
0.0
  0
LINE
  8
0
 62
     0
 10
78.879
 20
83.2404
 30
0.0
 11
80.1218
 21
87.9313
 31
0.0
  0
LINE
  8
0
 62
     0
 10
80.1218
 20
87.9313
 30
0.0
 11
80.5367
 21
91.882
 31
0.0
  0
LINE
  8
0
 62
     0
 10
80.5367
 20
91.882
 30
0.0
 11
80.5367
 21
93.1982
 31
0.0
  0
LINE
  8
0
 62
     0
 10
86.5671
 20
34.5447
 30
0.0
 11
86.5671
 21
36.0454
 31
0.0
  0
LINE
  8
0
 62
     0
 10
86.5671
 20
36.0454
 30
0.0
 11
86.0929
 21
40.5476
 31
0.0
  0
LINE
  8
0
 62
     0
 10
86.0929
 20
40.5476
 30
0.0
 11
84.6709
 21
45.8075
 31
0.0
  0
LINE
  8
0
 62
     0
 10
84.6709
 20
45.8075
 30
0.0
 11
82.302
 21
50.323
 31
0.0
  0
LINE
  8
0
 62
     0
 10
82.302
 20
50.323
 30
0.0
 11
79.9151
 21
53.2638
 31
0.0
  0
LINE
  8
0
 62
     0
 10
79.9151
 20
53.2638
 30
0.0
 11
78.9876
 21
54.0964
 31
0.0
  0
LINE
  8
0
 62
     0
 10
78.9876
 20
54.0964
 30
0.0
 11
78.0355
 21
54.9522
 31
0.0
  0
LINE
  8
0
 62
     0
 10
78.0355
 20
54.9522
 30
0.0
 11
74.7832
 21
57.0742
 31
0.0
  0
LINE
  8
0
 62
     0
 10
74.7832
 20
57.0742
 30
0.0
 11
69.7495
 21
59.2003
 31
0.0
  0
LINE
  8
0
 62
     0
 10
69.7495
 20
59.2003
 30
0.0
 11
63.8874
 21
60.4767
 31
0.0
  0
LINE
  8
0
 62
     0
 10
63.8874
 20
60.4767
 30
0.0
 11
58.8684
 21
60.9011
 31
0.0
  0
LINE
  8
0
 62
     0
 10
58.8684
 20
60.9011
 30
0.0
 11
57.1969
 21
60.9011
 31
0.0
  0
LINE
  8
0
 62
     0
 10
57.1969
 20
60.9011
 30
0.0
 11
56.72
 21
60.9011
 31
0.0
  0
LINE
  8
0
 62
     0
 10
56.72
 20
60.9011
 30
0.0
 11
55.2909
 21
60.8693
 31
0.0
  0
LINE
  8
0
 62
     0
 10
55.2909
 20
60.8693
 30
0.0
 11
53.2998
 21
60.7935
 31
0.0
  0
LINE
  8
0
 62
     0
 10
53.2998
 20
60.7935
 30
0.0
 11
52.8479
 21
60.7716
 31
0.0
  0
LINE
  8
0
 62
     0
 10
52.8479
 20
60.7716
 30
0.0
 11
52.3946
 21
60.7508
 31
0.0
  0
LINE
  8
0
 62
     0
 10
52.3946
 20
60.7508
 30
0.0
 11
50.4899
 21
60.6531
 31
0.0
  0
LINE
  8
0
 62
     0
 10
50.4899
 20
60.6531
 30
0.0
 11
49.058
 21
60.5702
 31
0.0
  0
LINE
  8
0
 62
     0
 10
49.058
 20
60.5702
 30
0.0
 11
48.8431
 21
60.555
 31
0.0
  0
LINE
  8
0
 62
     0
 10
48.8431
 20
60.555
 30
0.0
 11
48.8431
 21
15.8557
 31
0.0
  0
LINE
  8
0
 62
     0
 10
48.8431
 20
15.8557
 30
0.0
 11
48.9384
 21
15.4616
 31
0.0
  0
LINE
  8
0
 62
     0
 10
48.9384
 20
15.4616
 30
0.0
 11
49.4344
 21
14.3247
 31
0.0
  0
LINE
  8
0
 62
     0
 10
49.4344
 20
14.3247
 30
0.0
 11
50.4349
 21
12.9164
 31
0.0
  0
LINE
  8
0
 62
     0
 10
50.4349
 20
12.9164
 30
0.0
 11
51.8446
 21
11.6334
 31
0.0
  0
LINE
  8
0
 62
     0
 10
51.8446
 20
11.6334
 30
0.0
 11
53.1908
 21
10.7308
 31
0.0
  0
LINE
  8
0
 62
     0
 10
53.1908
 20
10.7308
 30
0.0
 11
53.6649
 21
10.4731
 31
0.0
  0
LINE
  8
0
 62
     0
 10
53.6649
 20
10.4731
 30
0.0
 11
54.3387
 21
10.1079
 31
0.0
  0
LINE
  8
0
 62
     0
 10
54.3387
 20
10.1079
 30
0.0
 11
58.1434
 21
8.82632
 31
0.0
  0
LINE
  8
0
 62
     0
 10
58.1434
 20
8.82632
 30
0.0
 11
62.1496
 21
8.27648
 31
0.0
  0
LINE
  8
0
 62
     0
 10
62.1496
 20
8.27648
 30
0.0
 11
63.4848
 21
8.27648
 31
0.0
  0
LINE
  8
0
 62
     0
 10
63.4848
 20
8.27648
 30
0.0
 11
64.7058
 21
8.27648
 31
0.0
  0
LINE
  8
0
 62
     0
 10
64.7058
 20
8.27648
 30
0.0
 11
68.3687
 21
8.70783
 31
0.0
  0
LINE
  8
0
 62
     0
 10
68.3687
 20
8.70783
 30
0.0
 11
72.7742
 21
10.0004
 31
0.0
  0
LINE
  8
0
 62
     0
 10
72.7742
 20
10.0004
 30
0.0
 11
76.7016
 21
12.1529
 31
0.0
  0
LINE
  8
0
 62
     0
 10
76.7016
 20
12.1529
 30
0.0
 11
79.3736
 21
14.3343
 31
0.0
  0
LINE
  8
0
 62
     0
 10
79.3736
 20
14.3343
 30
0.0
 11
80.1494
 21
15.1667
 31
0.0
  0
LINE
  8
0
 62
     0
 10
80.1494
 20
15.1667
 30
0.0
 11
80.9473
 21
16.0252
 31
0.0
  0
LINE
  8
0
 62
     0
 10
80.9473
 20
16.0252
 30
0.0
 11
82.9564
 21
18.9618
 31
0.0
  0
LINE
  8
0
 62
     0
 10
82.9564
 20
18.9618
 30
0.0
 11
84.9616
 21
23.457
 31
0.0
  0
LINE
  8
0
 62
     0
 10
84.9616
 20
23.457
 30
0.0
 11
86.1646
 21
28.6508
 31
0.0
  0
LINE
  8
0
 62
     0
 10
86.1646
 20
28.6508
 30
0.0
 11
86.5671
 21
33.0715
 31
0.0
  0
LINE
  8
0
 62
     0
 10
86.5671
 20
33.0715
 30
0.0
 11
86.5671
 21
34.5447
 31
0.0
  0
ENDSEC
  0
EOF
