  0
SECTION
  2
HEADER
  9
$ACADVER
  1
AC1009
  9
$EXTMIN
 10
0.0
 20
0.0
 30
0.0
  9
$EXTMAX
 10
1000.0
 20
1000.0
 30
0.0
  9
$FILLMODE
 70
 0
  9
$SPLFRAME
 70
 1
  0
ENDSEC
  0
SECTION
  2
TABLES
  0
TABLE
  2
LAYER
 70
1
  0
LAYER
  2
0
 70
     0
 62
     7
  6
CONTINUOUS
  0
ENDTAB
  0
ENDSEC
  0
SECTION
  2
ENTITIES
  0
LINE
  8
0
 62
     0
 10
64.2592
 20
0.352778
 30
0.0
 11
62.6057
 21
0.352778
 31
0.0
  0
LINE
  8
0
 62
     0
 10
62.6057
 20
0.352778
 30
0.0
 11
57.6488
 21
0.62563
 31
0.0
  0
LINE
  8
0
 62
     0
 10
57.6488
 20
0.62563
 30
0.0
 11
51.2533
 21
1.44005
 31
0.0
  0
LINE
  8
0
 62
     0
 10
51.2533
 20
1.44005
 30
0.0
 11
45.0744
 21
2.80017
 31
0.0
  0
LINE
  8
0
 62
     0
 10
45.0744
 20
2.80017
 30
0.0
 11
40.5751
 21
4.15893
 31
0.0
  0
LINE
  8
0
 62
     0
 10
40.5751
 20
4.15893
 30
0.0
 11
39.11
 21
4.70186
 31
0.0
  0
LINE
  8
0
 62
     0
 10
39.11
 20
4.70186
 30
0.0
 11
37.6671
 21
5.23794
 31
0.0
  0
LINE
  8
0
 62
     0
 10
37.6671
 20
5.23794
 30
0.0
 11
33.4409
 21
7.1217
 31
0.0
  0
LINE
  8
0
 62
     0
 10
33.4409
 20
7.1217
 30
0.0
 11
28.1492
 21
10.0307
 31
0.0
  0
LINE
  8
0
 62
     0
 10
28.1492
 20
10.0307
 30
0.0
 11
23.2351
 21
13.4304
 31
0.0
  0
LINE
  8
0
 62
     0
 10
23.2351
 20
13.4304
 30
0.0
 11
19.7776
 21
16.2925
 31
0.0
  0
LINE
  8
0
 62
     0
 10
19.7776
 20
16.2925
 30
0.0
 11
18.6972
 21
17.3192
 31
0.0
  0
LINE
  8
0
 62
     0
 10
18.6972
 20
17.3192
 30
0.0
 11
17.6306
 21
18.332
 31
0.0
  0
LINE
  8
0
 62
     0
 10
17.6306
 20
18.332
 30
0.0
 11
14.6596
 21
21.6076
 31
0.0
  0
LINE
  8
0
 62
     0
 10
14.6596
 20
21.6076
 30
0.0
 11
11.0753
 21
26.3743
 31
0.0
  0
LINE
  8
0
 62
     0
 10
11.0753
 20
26.3743
 30
0.0
 11
7.943
 21
31.6205
 31
0.0
  0
LINE
  8
0
 62
     0
 10
7.943
 20
31.6205
 30
0.0
 11
5.86218
 21
35.8856
 31
0.0
  0
LINE
  8
0
 62
     0
 10
5.86218
 20
35.8856
 30
0.0
 11
5.26274
 21
37.3447
 31
0.0
  0
LINE
  8
0
 62
     0
 10
5.26274
 20
37.3447
 30
0.0
 11
4.64675
 21
38.8415
 31
0.0
  0
LINE
  8
0
 62
     0
 10
4.64675
 20
38.8415
 30
0.0
 11
3.11436
 21
43.458
 31
0.0
  0
LINE
  8
0
 62
     0
 10
3.11436
 20
43.458
 30
0.0
 11
1.57923
 21
49.8658
 31
0.0
  0
LINE
  8
0
 62
     0
 10
1.57923
 20
49.8658
 30
0.0
 11
0.658703
 21
56.5697
 31
0.0
  0
LINE
  8
0
 62
     0
 10
0.658703
 20
56.5697
 30
0.0
 11
0.352778
 21
61.8201
 31
0.0
  0
LINE
  8
0
 62
     0
 10
0.352778
 20
61.8201
 30
0.0
 11
0.352778
 21
63.5702
 31
0.0
  0
LINE
  8
0
 62
     0
 10
0.352778
 20
63.5702
 30
0.0
 11
0.352778
 21
65.315
 31
0.0
  0
LINE
  8
0
 62
     0
 10
0.352778
 20
65.315
 30
0.0
 11
0.661458
 21
70.5446
 31
0.0
  0
LINE
  8
0
 62
     0
 10
0.661458
 20
70.5446
 30
0.0
 11
1.59026
 21
77.2541
 31
0.0
  0
LINE
  8
0
 62
     0
 10
1.59026
 20
77.2541
 30
0.0
 11
3.13779
 21
83.7008
 31
0.0
  0
LINE
  8
0
 62
     0
 10
3.13779
 20
83.7008
 30
0.0
 11
4.68531
 21
88.3694
 31
0.0
  0
LINE
  8
0
 62
     0
 10
4.68531
 20
88.3694
 30
0.0
 11
5.30546
 21
89.8825
 31
0.0
  0
LINE
  8
0
 62
     0
 10
5.30546
 20
89.8825
 30
0.0
 11
5.91453
 21
91.3751
 31
0.0
  0
LINE
  8
0
 62
     0
 10
5.91453
 20
91.3751
 30
0.0
 11
8.0312
 21
95.7322
 31
0.0
  0
LINE
  8
0
 62
     0
 10
8.0312
 20
95.7322
 30
0.0
 11
11.2586
 21
101.177
 31
0.0
  0
LINE
  8
0
 62
     0
 10
11.2586
 20
101.177
 30
0.0
 11
14.9862
 21
106.218
 31
0.0
  0
LINE
  8
0
 62
     0
 10
14.9862
 20
106.218
 30
0.0
 11
18.1019
 21
109.752
 31
0.0
  0
LINE
  8
0
 62
     0
 10
18.1019
 20
109.752
 30
0.0
 11
19.2154
 21
110.853
 31
0.0
  0
LINE
  8
0
 62
     0
 10
19.2154
 20
110.853
 30
0.0
 11
20.3095
 21
111.938
 31
0.0
  0
LINE
  8
0
 62
     0
 10
20.3095
 20
111.938
 30
0.0
 11
23.8277
 21
114.959
 31
0.0
  0
LINE
  8
0
 62
     0
 10
23.8277
 20
114.959
 30
0.0
 11
28.8823
 21
118.573
 31
0.0
  0
LINE
  8
0
 62
     0
 10
28.8823
 20
118.573
 30
0.0
 11
34.3779
 21
121.699
 31
0.0
  0
LINE
  8
0
 62
     0
 10
34.3779
 20
121.699
 30
0.0
 11
38.8027
 21
123.746
 31
0.0
  0
LINE
  8
0
 62
     0
 10
38.8027
 20
123.746
 30
0.0
 11
40.3158
 21
124.333
 31
0.0
  0
LINE
  8
0
 62
     0
 10
40.3158
 20
124.333
 30
0.0
 11
41.8525
 21
124.93
 31
0.0
  0
LINE
  8
0
 62
     0
 10
41.8525
 20
124.93
 30
0.0
 11
46.5804
 21
126.425
 31
0.0
  0
LINE
  8
0
 62
     0
 10
46.5804
 20
126.425
 30
0.0
 11
53.0613
 21
127.918
 31
0.0
  0
LINE
  8
0
 62
     0
 10
53.0613
 20
127.918
 30
0.0
 11
59.7588
 21
128.815
 31
0.0
  0
LINE
  8
0
 62
     0
 10
59.7588
 20
128.815
 30
0.0
 11
64.9429
 21
129.112
 31
0.0
  0
LINE
  8
0
 62
     0
 10
64.9429
 20
129.112
 30
0.0
 11
66.6708
 21
129.112
 31
0.0
  0
LINE
  8
0
 62
     0
 10
66.6708
 20
129.112
 30
0.0
 11
69.0975
 21
129.112
 31
0.0
  0
LINE
  8
0
 62
     0
 10
69.0975
 20
129.112
 30
0.0
 11
76.382
 21
128.499
 31
0.0
  0
LINE
  8
0
 62
     0
 10
76.382
 20
128.499
 30
0.0
 11
83.7942
 21
127.067
 31
0.0
  0
LINE
  8
0
 62
     0
 10
83.7942
 20
127.067
 30
0.0
 11
85.1877
 21
126.658
 31
0.0
  0
LINE
  8
0
 62
     0
 10
85.1877
 20
126.658
 30
0.0
 11
86.5794
 21
126.25
 31
0.0
  0
LINE
  8
0
 62
     0
 10
86.5794
 20
126.25
 30
0.0
 11
92.8963
 21
124.043
 31
0.0
  0
LINE
  8
0
 62
     0
 10
92.8963
 20
124.043
 30
0.0
 11
98.352
 21
121.62
 31
0.0
  0
LINE
  8
0
 62
     0
 10
98.352
 20
121.62
 30
0.0
 11
99.314
 21
121.103
 31
0.0
  0
LINE
  8
0
 62
     0
 10
99.314
 20
121.103
 30
0.0
 11
104.654
 21
125.84
 31
0.0
  0
LINE
  8
0
 62
     0
 10
104.654
 20
125.84
 30
0.0
 11
112.146
 21
125.84
 31
0.0
  0
LINE
  8
0
 62
     0
 10
112.146
 20
125.84
 30
0.0
 11
112.922
 21
81.2257
 31
0.0
  0
LINE
  8
0
 62
     0
 10
112.922
 20
81.2257
 30
0.0
 11
105.341
 21
81.2257
 31
0.0
  0
LINE
  8
0
 62
     0
 10
105.341
 20
81.2257
 30
0.0
 11
104.579
 21
83.6359
 31
0.0
  0
LINE
  8
0
 62
     0
 10
104.579
 20
83.6359
 30
0.0
 11
101.95
 21
90.7549
 31
0.0
  0
LINE
  8
0
 62
     0
 10
101.95
 20
90.7549
 30
0.0
 11
98.2363
 21
98.9266
 31
0.0
  0
LINE
  8
0
 62
     0
 10
98.2363
 20
98.9266
 30
0.0
 11
94.1987
 21
105.742
 31
0.0
  0
LINE
  8
0
 62
     0
 10
94.1987
 20
105.742
 30
0.0
 11
91.0332
 21
109.936
 31
0.0
  0
LINE
  8
0
 62
     0
 10
91.0332
 20
109.936
 30
0.0
 11
89.8384
 21
111.199
 31
0.0
  0
LINE
  8
0
 62
     0
 10
89.8384
 20
111.199
 30
0.0
 11
88.7525
 21
112.347
 31
0.0
  0
LINE
  8
0
 62
     0
 10
88.7525
 20
112.347
 30
0.0
 11
85.0692
 21
115.382
 31
0.0
  0
LINE
  8
0
 62
     0
 10
85.0692
 20
115.382
 30
0.0
 11
79.805
 21
118.369
 31
0.0
  0
LINE
  8
0
 62
     0
 10
79.805
 20
118.369
 30
0.0
 11
74.0449
 21
120.162
 31
0.0
  0
LINE
  8
0
 62
     0
 10
74.0449
 20
120.162
 30
0.0
 11
69.3526
 21
120.759
 31
0.0
  0
LINE
  8
0
 62
     0
 10
69.3526
 20
120.759
 30
0.0
 11
67.7898
 21
120.759
 31
0.0
  0
LINE
  8
0
 62
     0
 10
67.7898
 20
120.759
 30
0.0
 11
65.8869
 21
120.759
 31
0.0
  0
LINE
  8
0
 62
     0
 10
65.8869
 20
120.759
 30
0.0
 11
60.1775
 21
119.869
 31
0.0
  0
LINE
  8
0
 62
     0
 10
60.1775
 20
119.869
 30
0.0
 11
53.5354
 21
117.195
 31
0.0
  0
LINE
  8
0
 62
     0
 10
53.5354
 20
117.195
 30
0.0
 11
47.8621
 21
112.741
 31
0.0
  0
LINE
  8
0
 62
     0
 10
47.8621
 20
112.741
 30
0.0
 11
44.147
 21
108.175
 31
0.0
  0
LINE
  8
0
 62
     0
 10
44.147
 20
108.175
 30
0.0
 11
43.1588
 21
106.504
 31
0.0
  0
LINE
  8
0
 62
     0
 10
43.1588
 20
106.504
 30
0.0
 11
42.0592
 21
104.648
 31
0.0
  0
LINE
  8
0
 62
     0
 10
42.0592
 20
104.648
 30
0.0
 11
39.4656
 21
98.6592
 31
0.0
  0
LINE
  8
0
 62
     0
 10
39.4656
 20
98.6592
 30
0.0
 11
36.8282
 21
89.377
 31
0.0
  0
LINE
  8
0
 62
     0
 10
36.8282
 20
89.377
 30
0.0
 11
35.2447
 21
78.6571
 31
0.0
  0
LINE
  8
0
 62
     0
 10
35.2447
 20
78.6571
 30
0.0
 11
34.7183
 21
69.5385
 31
0.0
  0
LINE
  8
0
 62
     0
 10
34.7183
 20
69.5385
 30
0.0
 11
34.7183
 21
66.4986
 31
0.0
  0
LINE
  8
0
 62
     0
 10
34.7183
 20
66.4986
 30
0.0
 11
34.7183
 21
64.7457
 31
0.0
  0
LINE
  8
0
 62
     0
 10
34.7183
 20
64.7457
 30
0.0
 11
34.8974
 21
59.4872
 31
0.0
  0
LINE
  8
0
 62
     0
 10
34.8974
 20
59.4872
 30
0.0
 11
35.439
 21
53.0091
 31
0.0
  0
LINE
  8
0
 62
     0
 10
35.439
 20
53.0091
 30
0.0
 11
36.3403
 21
47.0641
 31
0.0
  0
LINE
  8
0
 62
     0
 10
36.3403
 20
47.0641
 30
0.0
 11
37.2276
 21
42.9877
 31
0.0
  0
LINE
  8
0
 62
     0
 10
37.2276
 20
42.9877
 30
0.0
 11
37.6026
 21
41.6511
 31
0.0
  0
LINE
  8
0
 62
     0
 10
37.6026
 20
41.6511
 30
0.0
 11
37.9483
 21
40.4163
 31
0.0
  0
LINE
  8
0
 62
     0
 10
37.9483
 20
40.4163
 30
0.0
 11
39.1555
 21
36.7563
 31
0.0
  0
LINE
  8
0
 62
     0
 10
39.1555
 20
36.7563
 30
0.0
 11
40.9293
 21
32.3605
 31
0.0
  0
LINE
  8
0
 62
     0
 10
40.9293
 20
32.3605
 30
0.0
 11
42.9232
 21
28.4661
 31
0.0
  0
LINE
  8
0
 62
     0
 10
42.9232
 20
28.4661
 30
0.0
 11
44.5368
 21
25.8851
 31
0.0
  0
LINE
  8
0
 62
     0
 10
44.5368
 20
25.8851
 30
0.0
 11
45.139
 21
25.0706
 31
0.0
  0
LINE
  8
0
 62
     0
 10
45.139
 20
25.0706
 30
0.0
 11
45.9712
 21
23.9806
 31
0.0
  0
LINE
  8
0
 62
     0
 10
45.9712
 20
23.9806
 30
0.0
 11
50.5866
 21
19.3987
 31
0.0
  0
LINE
  8
0
 62
     0
 10
50.5866
 20
19.3987
 30
0.0
 11
55.8052
 21
15.9784
 31
0.0
  0
LINE
  8
0
 62
     0
 10
55.8052
 20
15.9784
 30
0.0
 11
56.939
 21
15.4685
 31
0.0
  0
LINE
  8
0
 62
     0
 10
56.939
 20
15.4685
 30
0.0
 11
58.0718
 21
14.96
 31
0.0
  0
LINE
  8
0
 62
     0
 10
58.0718
 20
14.96
 30
0.0
 11
64.1078
 21
13.1754
 31
0.0
  0
LINE
  8
0
 62
     0
 10
64.1078
 20
13.1754
 30
0.0
 11
70.0345
 21
12.4106
 31
0.0
  0
LINE
  8
0
 62
     0
 10
70.0345
 20
12.4106
 30
0.0
 11
72.0108
 21
12.4106
 31
0.0
  0
LINE
  8
0
 62
     0
 10
72.0108
 20
12.4106
 30
0.0
 11
73.4755
 21
12.4106
 31
0.0
  0
LINE
  8
0
 62
     0
 10
73.4755
 20
12.4106
 30
0.0
 11
77.8743
 21
12.8199
 31
0.0
  0
LINE
  8
0
 62
     0
 10
77.8743
 20
12.8199
 30
0.0
 11
83.4111
 21
14.0477
 31
0.0
  0
LINE
  8
0
 62
     0
 10
83.4111
 20
14.0477
 30
0.0
 11
88.6188
 21
16.0927
 31
0.0
  0
LINE
  8
0
 62
     0
 10
88.6188
 20
16.0927
 30
0.0
 11
92.341
 21
18.1529
 31
0.0
  0
LINE
  8
0
 62
     0
 10
92.341
 20
18.1529
 30
0.0
 11
93.4999
 21
18.9563
 31
0.0
  0
LINE
  8
0
 62
     0
 10
93.4999
 20
18.9563
 30
0.0
 11
94.7099
 21
19.7969
 31
0.0
  0
LINE
  8
0
 62
     0
 10
94.7099
 20
19.7969
 30
0.0
 11
98.1093
 21
22.6494
 31
0.0
  0
LINE
  8
0
 62
     0
 10
98.1093
 20
22.6494
 30
0.0
 11
102.509
 21
27.1818
 31
0.0
  0
LINE
  8
0
 62
     0
 10
102.509
 20
27.1818
 30
0.0
 11
106.7
 21
32.5548
 31
0.0
  0
LINE
  8
0
 62
     0
 10
106.7
 20
32.5548
 30
0.0
 11
109.751
 21
37.1754
 31
0.0
  0
LINE
  8
0
 62
     0
 10
109.751
 20
37.1754
 30
0.0
 11
110.681
 21
38.7657
 31
0.0
  0
LINE
  8
0
 62
     0
 10
110.681
 20
38.7657
 30
0.0
 11
118.088
 21
34.287
 31
0.0
  0
LINE
  8
0
 62
     0
 10
118.088
 20
34.287
 30
0.0
 11
117.471
 21
33.0247
 31
0.0
  0
LINE
  8
0
 62
     0
 10
117.471
 20
33.0247
 30
0.0
 11
114.126
 21
27.106
 31
0.0
  0
LINE
  8
0
 62
     0
 10
114.126
 20
27.106
 30
0.0
 11
110.437
 21
21.7193
 31
0.0
  0
LINE
  8
0
 62
     0
 10
110.437
 20
21.7193
 30
0.0
 11
109.649
 21
20.7216
 31
0.0
  0
LINE
  8
0
 62
     0
 10
109.649
 20
20.7216
 30
0.0
 11
108.859
 21
19.7239
 31
0.0
  0
LINE
  8
0
 62
     0
 10
108.859
 20
19.7239
 30
0.0
 11
104.545
 21
15.1557
 31
0.0
  0
LINE
  8
0
 62
     0
 10
104.545
 20
15.1557
 30
0.0
 11
99.7437
 21
11.147
 31
0.0
  0
LINE
  8
0
 62
     0
 10
99.7437
 20
11.147
 30
0.0
 11
98.7104
 21
10.429
 31
0.0
  0
LINE
  8
0
 62
     0
 10
98.7104
 20
10.429
 30
0.0
 11
97.5762
 21
9.64075
 31
0.0
  0
LINE
  8
0
 62
     0
 10
97.5762
 20
9.64075
 30
0.0
 11
91.5501
 21
6.20945
 31
0.0
  0
LINE
  8
0
 62
     0
 10
91.5501
 20
6.20945
 30
0.0
 11
85.0512
 21
3.46714
 31
0.0
  0
LINE
  8
0
 62
     0
 10
85.0512
 20
3.46714
 30
0.0
 11
83.6814
 21
3.02204
 31
0.0
  0
LINE
  8
0
 62
     0
 10
83.6814
 20
3.02204
 30
0.0
 11
82.3101
 21
2.57831
 31
0.0
  0
LINE
  8
0
 62
     0
 10
82.3101
 20
2.57831
 30
0.0
 11
74.713
 21
1.02113
 31
0.0
  0
LINE
  8
0
 62
     0
 10
74.713
 20
1.02113
 30
0.0
 11
66.8722
 21
0.352778
 31
0.0
  0
LINE
  8
0
 62
     0
 10
66.8722
 20
0.352778
 30
0.0
 11
64.2592
 21
0.352778
 31
0.0
  0
ENDSEC
  0
EOF
