solid OpenSCAD_Model
  facet normal -0.0103419 -0.999947 0
    outer loop
      vertex 0.353 1.054 28
      vertex 0.353 1.054 0
      vertex 68.132 0.353 0
    endloop
  endfacet
  facet normal -0.0103419 -0.999947 0
    outer loop
      vertex 68.132 0.353 28
      vertex 0.353 1.054 28
      vertex 68.132 0.353 0
    endloop
  endfacet
  facet normal 0 0 -1
    outer loop
      vertex 0.353 1.054 0
      vertex 0.422 7.771 0
      vertex 68.132 0.353 0
    endloop
  endfacet
  facet normal 0 0 -1
    outer loop
      vertex 68.132 0.353 0
      vertex 0.422 7.771 0
      vertex 0.809 7.796 0
    endloop
  endfacet
  facet normal 0 0 -1
    outer loop
      vertex 68.132 0.353 0
      vertex 0.809 7.796 0
      vertex 3.298 7.957 0
    endloop
  endfacet
  facet normal 0 0 -1
    outer loop
      vertex 3.298 7.957 0
      vertex 6.52 8.168 0
      vertex 68.132 0.353 0
    endloop
  endfacet
  facet normal 0 0 -1
    outer loop
      vertex 68.132 0.353 0
      vertex 6.52 8.168 0
      vertex 7.275 8.217 0
    endloop
  endfacet
  facet normal 0 0 -1
    outer loop
      vertex 68.132 0.353 0
      vertex 7.275 8.217 0
      vertex 8.028 8.267 0
    endloop
  endfacet
  facet normal 0 0 -1
    outer loop
      vertex 8.028 8.267 0
      vertex 11.1 8.609 0
      vertex 68.132 0.353 0
    endloop
  endfacet
  facet normal 0 0 -1
    outer loop
      vertex 11.1 8.609 0
      vertex 13.24 9.074 0
      vertex 68.132 0.353 0
    endloop
  endfacet
  facet normal 0 0 -1
    outer loop
      vertex 13.24 9.074 0
      vertex 13.53 9.186 0
      vertex 68.132 0.353 0
    endloop
  endfacet
  facet normal 0 0 -1
    outer loop
      vertex 13.53 9.186 0
      vertex 13.906 9.335 0
      vertex 68.132 0.353 0
    endloop
  endfacet
  facet normal 0 0 -1
    outer loop
      vertex 13.906 9.335 0
      vertex 15.003 9.868 0
      vertex 68.132 0.353 0
    endloop
  endfacet
  facet normal 0 0 -1
    outer loop
      vertex 15.003 9.868 0
      vertex 16.225 10.655 0
      vertex 68.132 0.353 0
    endloop
  endfacet
  facet normal 0 0 -1
    outer loop
      vertex 16.225 10.655 0
      vertex 17.194 11.547 0
      vertex 68.132 0.353 0
    endloop
  endfacet
  facet normal 0 0 -1
    outer loop
      vertex 17.194 11.547 0
      vertex 17.763 12.278 0
      vertex 68.132 0.353 0
    endloop
  endfacet
  facet normal 0 0 -1
    outer loop
      vertex 17.763 12.278 0
      vertex 17.913 12.543 0
      vertex 68.132 0.353 0
    endloop
  endfacet
  facet normal 0 0 -1
    outer loop
      vertex 17.913 12.543 0
      vertex 18.11 12.893 0
      vertex 68.132 0.353 0
    endloop
  endfacet
  facet normal 0 0 -1
    outer loop
      vertex 18.11 12.893 0
      vertex 18.809 14.935 0
      vertex 68.132 0.353 0
    endloop
  endfacet
  facet normal 0 0 -1
    outer loop
      vertex 18.809 14.935 0
      vertex 19.126 17.369 0
      vertex 68.132 0.353 0
    endloop
  endfacet
  facet normal 0 0 -1
    outer loop
      vertex 19.126 17.369 0
      vertex 19.131 17.913 0
      vertex 68.132 0.353 0
    endloop
  endfacet
  facet normal 0 0 -1
    outer loop
      vertex 49.716 18.544 0
      vertex 19.131 17.913 0
      vertex 20.027 104.553 0
    endloop
  endfacet
  facet normal 0 0 -1
    outer loop
      vertex 18.962 109.732 0
      vertex 69.395 122.561 0
      vertex 19.144 109.357 0
    endloop
  endfacet
  facet normal 0 0 -1
    outer loop
      vertex 18.823 110.017 0
      vertex 69.395 122.561 0
      vertex 18.962 109.732 0
    endloop
  endfacet
  facet normal 0 0 -1
    outer loop
      vertex 18.277 110.805 0
      vertex 69.395 122.561 0
      vertex 18.823 110.017 0
    endloop
  endfacet
  facet normal 0 0 -1
    outer loop
      vertex 16.1 112.637 0
      vertex 1.616 123.261 0
      vertex 17.323 111.774 0
    endloop
  endfacet
  facet normal 0 0 -1
    outer loop
      vertex 14.989 113.229 0
      vertex 1.616 123.261 0
      vertex 16.1 112.637 0
    endloop
  endfacet
  facet normal 0 0 -1
    outer loop
      vertex 14.606 113.395 0
      vertex 1.616 123.261 0
      vertex 14.989 113.229 0
    endloop
  endfacet
  facet normal 0 0 -1
    outer loop
      vertex 14.263 113.542 0
      vertex 1.616 123.261 0
      vertex 14.606 113.395 0
    endloop
  endfacet
  facet normal 0 0 -1
    outer loop
      vertex 12.052 114.293 0
      vertex 1.616 123.261 0
      vertex 14.263 113.542 0
    endloop
  endfacet
  facet normal 0 0 -1
    outer loop
      vertex 9.182 115.066 0
      vertex 8.509 115.223 0
      vertex 7.836 115.382 0
    endloop
  endfacet
  facet normal 0 0 -1
    outer loop
      vertex 9.182 115.066 0
      vertex 1.616 123.261 0
      vertex 12.052 114.293 0
    endloop
  endfacet
  facet normal 0 0 -1
    outer loop
      vertex 7.836 115.382 0
      vertex 1.616 123.261 0
      vertex 9.182 115.066 0
    endloop
  endfacet
  facet normal 0 0 -1
    outer loop
      vertex 4.749 116.027 0
      vertex 1.616 123.261 0
      vertex 7.836 115.382 0
    endloop
  endfacet
  facet normal 0 0 -1
    outer loop
      vertex 2.034 116.483 0
      vertex 1.548 116.545 0
      vertex 1.616 123.261 0
    endloop
  endfacet
  facet normal 0 0 -1
    outer loop
      vertex 2.034 116.483 0
      vertex 1.616 123.261 0
      vertex 4.749 116.027 0
    endloop
  endfacet
  facet normal 0 0 -1
    outer loop
      vertex 17.323 111.774 0
      vertex 1.616 123.261 0
      vertex 69.395 122.561 0
    endloop
  endfacet
  facet normal 0 0 -1
    outer loop
      vertex 17.323 111.774 0
      vertex 69.395 122.561 0
      vertex 18.277 110.805 0
    endloop
  endfacet
  facet normal 0 0 -1
    outer loop
      vertex 68.894 115.805 0
      vertex 69.395 122.561 0
      vertex 69.325 115.843 0
    endloop
  endfacet
  facet normal 0 0 -1
    outer loop
      vertex 66.415 115.562 0
      vertex 69.395 122.561 0
      vertex 68.894 115.805 0
    endloop
  endfacet
  facet normal 0 0 -1
    outer loop
      vertex 49.716 18.544 0
      vertex 20.031 105.042 0
      vertex 19.775 107.312 0
    endloop
  endfacet
  facet normal 0 0 -1
    outer loop
      vertex 63.506 115.251 0
      vertex 69.395 122.561 0
      vertex 66.415 115.562 0
    endloop
  endfacet
  facet normal 0 0 -1
    outer loop
      vertex 49.716 18.544 0
      vertex 19.775 107.312 0
      vertex 19.144 109.357 0
    endloop
  endfacet
  facet normal 0 0 -1
    outer loop
      vertex 62.859 115.178 0
      vertex 69.395 122.561 0
      vertex 63.506 115.251 0
    endloop
  endfacet
  facet normal 0 0 -1
    outer loop
      vertex 62.212 115.106 0
      vertex 69.395 122.561 0
      vertex 62.859 115.178 0
    endloop
  endfacet
  facet normal 0 0 -1
    outer loop
      vertex 19.144 109.357 0
      vertex 69.395 122.561 0
      vertex 62.212 115.106 0
    endloop
  endfacet
  facet normal 0 0 -1
    outer loop
      vertex 56.746 114.051 0
      vertex 19.144 109.357 0
      vertex 59.278 114.645 0
    endloop
  endfacet
  facet normal 0 0 -1
    outer loop
      vertex 49.716 18.544 0
      vertex 19.144 109.357 0
      vertex 50.61 105.099 0
    endloop
  endfacet
  facet normal 0 0 -1
    outer loop
      vertex 49.716 18.544 0
      vertex 20.027 104.553 0
      vertex 20.031 105.042 0
    endloop
  endfacet
  facet normal 0 0 -1
    outer loop
      vertex 19.144 109.357 0
      vertex 56.746 114.051 0
      vertex 56.3 113.911 0
    endloop
  endfacet
  facet normal 0 0 -1
    outer loop
      vertex 19.144 109.357 0
      vertex 56.3 113.911 0
      vertex 55.903 113.785 0
    endloop
  endfacet
  facet normal 0 0 -1
    outer loop
      vertex 19.144 109.357 0
      vertex 55.903 113.785 0
      vertex 54.752 113.29 0
    endloop
  endfacet
  facet normal 0 0 -1
    outer loop
      vertex 19.144 109.357 0
      vertex 54.752 113.29 0
      vertex 53.484 112.509 0
    endloop
  endfacet
  facet normal 0 0 -1
    outer loop
      vertex 19.144 109.357 0
      vertex 53.484 112.509 0
      vertex 52.495 111.569 0
    endloop
  endfacet
  facet normal 0 0 -1
    outer loop
      vertex 19.144 109.357 0
      vertex 52.495 111.569 0
      vertex 51.926 110.761 0
    endloop
  endfacet
  facet normal 0 0 -1
    outer loop
      vertex 19.144 109.357 0
      vertex 51.926 110.761 0
      vertex 51.785 110.469 0
    endloop
  endfacet
  facet normal 0 0 -1
    outer loop
      vertex 19.144 109.357 0
      vertex 51.785 110.469 0
      vertex 51.594 110.076 0
    endloop
  endfacet
  facet normal 0 0 -1
    outer loop
      vertex 19.144 109.357 0
      vertex 51.594 110.076 0
      vertex 50.919 107.949 0
    endloop
  endfacet
  facet normal 0 0 -1
    outer loop
      vertex 19.144 109.357 0
      vertex 50.919 107.949 0
      vertex 50.614 105.602 0
    endloop
  endfacet
  facet normal 0 0 -1
    outer loop
      vertex 19.144 109.357 0
      vertex 50.614 105.602 0
      vertex 50.61 105.099 0
    endloop
  endfacet
  facet normal 0 0 -1
    outer loop
      vertex 49.71 18.028 0
      vertex 19.131 17.913 0
      vertex 49.716 18.544 0
    endloop
  endfacet
  facet normal 0 0 -1
    outer loop
      vertex 55.221 9.616 0
      vertex 68.132 0.353 0
      vertex 54.836 9.783 0
    endloop
  endfacet
  facet normal 0 0 -1
    outer loop
      vertex 49.976 15.667 0
      vertex 19.131 17.913 0
      vertex 49.71 18.028 0
    endloop
  endfacet
  facet normal 0 0 -1
    outer loop
      vertex 50.633 13.604 0
      vertex 19.131 17.913 0
      vertex 49.976 15.667 0
    endloop
  endfacet
  facet normal 0 0 -1
    outer loop
      vertex 50.823 13.236 0
      vertex 19.131 17.913 0
      vertex 50.633 13.604 0
    endloop
  endfacet
  facet normal 0 0 -1
    outer loop
      vertex 50.967 12.958 0
      vertex 19.131 17.913 0
      vertex 50.823 13.236 0
    endloop
  endfacet
  facet normal 0 0 -1
    outer loop
      vertex 51.525 12.183 0
      vertex 19.131 17.913 0
      vertex 50.967 12.958 0
    endloop
  endfacet
  facet normal 0 0 -1
    outer loop
      vertex 52.492 11.228 0
      vertex 19.131 17.913 0
      vertex 51.525 12.183 0
    endloop
  endfacet
  facet normal 0 0 -1
    outer loop
      vertex 68.132 0.353 0
      vertex 19.131 17.913 0
      vertex 52.492 11.228 0
    endloop
  endfacet
  facet normal 0 0 -1
    outer loop
      vertex 68.132 0.353 0
      vertex 52.492 11.228 0
      vertex 53.724 10.373 0
    endloop
  endfacet
  facet normal 0 0 -1
    outer loop
      vertex 68.132 0.353 0
      vertex 53.724 10.373 0
      vertex 54.836 9.783 0
    endloop
  endfacet
  facet normal 0 0 -1
    outer loop
      vertex 57.613 8.828 0
      vertex 68.132 0.353 0
      vertex 55.52 9.484 0
    endloop
  endfacet
  facet normal 0 0 -1
    outer loop
      vertex 68.132 0.353 0
      vertex 55.221 9.616 0
      vertex 55.52 9.484 0
    endloop
  endfacet
  facet normal 0 0 -1
    outer loop
      vertex 60.496 8.177 0
      vertex 68.132 0.353 0
      vertex 57.613 8.828 0
    endloop
  endfacet
  facet normal 0 0 -1
    outer loop
      vertex 67.726 7.105 0
      vertex 68.132 0.353 0
      vertex 65.028 7.417 0
    endloop
  endfacet
  facet normal 0 0 -1
    outer loop
      vertex 68.132 0.353 0
      vertex 60.496 8.177 0
      vertex 61.192 8.048 0
    endloop
  endfacet
  facet normal 0 0 -1
    outer loop
      vertex 68.132 0.353 0
      vertex 61.192 8.048 0
      vertex 61.886 7.92 0
    endloop
  endfacet
  facet normal 0 0 -1
    outer loop
      vertex 67.726 7.105 0
      vertex 68.2 7.071 0
      vertex 68.132 0.353 0
    endloop
  endfacet
  facet normal 0 0 -1
    outer loop
      vertex 59.278 114.645 0
      vertex 19.144 109.357 0
      vertex 62.212 115.106 0
    endloop
  endfacet
  facet normal 0 0 -1
    outer loop
      vertex 65.028 7.417 0
      vertex 68.132 0.353 0
      vertex 61.886 7.92 0
    endloop
  endfacet
  facet normal -0.999947 0.0102719 0
    outer loop
      vertex 0.353 1.054 0
      vertex 0.353 1.054 28
      vertex 0.422 7.771 0
    endloop
  endfacet
  facet normal -0.999947 0.0102719 0
    outer loop
      vertex 0.422 7.771 0
      vertex 0.353 1.054 28
      vertex 0.422 7.771 28
    endloop
  endfacet
  facet normal -0.727587 0.00747409 0.685975
    outer loop
      vertex 0.353 1.054 28
      vertex 2.25779 2.91992 30
      vertex 0.422 7.771 28
    endloop
  endfacet
  facet normal -0.727587 0.00747409 0.685975
    outer loop
      vertex 0.809 7.40524 28.4145
      vertex 2.25779 2.91992 30
      vertex 2.28949 6.00615 30
    endloop
  endfacet
  facet normal -0.727587 0.00747409 0.685975
    outer loop
      vertex 0.422 7.771 28
      vertex 2.25779 2.91992 30
      vertex 0.809 7.40524 28.4145
    endloop
  endfacet
  facet normal -0.00752501 -0.727586 0.685975
    outer loop
      vertex 2.25779 2.91992 30
      vertex 0.353 1.054 28
      vertex 68.132 0.353 28
    endloop
  endfacet
  facet normal -0.00752501 -0.727586 0.685975
    outer loop
      vertex 66.2657 2.25792 30
      vertex 2.25779 2.91992 30
      vertex 68.132 0.353 28
    endloop
  endfacet
  facet normal 0.727587 -0.00736468 0.685976
    outer loop
      vertex 66.2972 5.3783 30
      vertex 66.2657 2.25792 30
      vertex 68.132 0.353 28
    endloop
  endfacet
  facet normal 0.727587 -0.00736468 0.685976
    outer loop
      vertex 67.6124 6.53405 28.6174
      vertex 66.2972 5.3783 30
      vertex 68.132 0.353 28
    endloop
  endfacet
  facet normal 0.727587 -0.00736468 0.685976
    outer loop
      vertex 68.2 7.071 28
      vertex 67.726 6.63541 28.4981
      vertex 68.132 0.353 28
    endloop
  endfacet
  facet normal 0.727587 -0.00736468 0.685976
    outer loop
      vertex 67.726 6.63541 28.4981
      vertex 67.6124 6.53405 28.6174
      vertex 68.132 0.353 28
    endloop
  endfacet
  facet normal 0.999949 -0.0101215 0
    outer loop
      vertex 68.132 0.353 28
      vertex 68.132 0.353 0
      vertex 68.2 7.071 0
    endloop
  endfacet
  facet normal 0.999949 -0.0101215 0
    outer loop
      vertex 68.2 7.071 28
      vertex 68.132 0.353 28
      vertex 68.2 7.071 0
    endloop
  endfacet
  facet normal 0.0715461 0.997437 0
    outer loop
      vertex 67.726 7.105 0
      vertex 67.726 7.105 28
      vertex 68.2 7.071 0
    endloop
  endfacet
  facet normal 0.0715461 0.997437 0
    outer loop
      vertex 68.2 7.071 0
      vertex 67.726 7.105 28
      vertex 68.2 7.071 28
    endloop
  endfacet
  facet normal 0.114876 0.99338 0
    outer loop
      vertex 65.028 7.417 0
      vertex 65.028 7.417 28
      vertex 67.726 7.105 0
    endloop
  endfacet
  facet normal 0.114876 0.99338 0
    outer loop
      vertex 67.726 7.105 0
      vertex 65.028 7.417 28
      vertex 67.726 7.105 28
    endloop
  endfacet
  facet normal 0.158076 0.987427 0
    outer loop
      vertex 61.886 7.92 0
      vertex 61.886 7.92 28
      vertex 65.028 7.417 0
    endloop
  endfacet
  facet normal 0.158076 0.987427 0
    outer loop
      vertex 65.028 7.417 0
      vertex 61.886 7.92 28
      vertex 65.028 7.417 28
    endloop
  endfacet
  facet normal 0.181379 0.983413 0
    outer loop
      vertex 61.192 8.048 0
      vertex 61.192 8.048 28
      vertex 61.886 7.92 0
    endloop
  endfacet
  facet normal 0.181379 0.983413 0
    outer loop
      vertex 61.886 7.92 0
      vertex 61.192 8.048 28
      vertex 61.886 7.92 28
    endloop
  endfacet
  facet normal 0.182241 0.983254 0
    outer loop
      vertex 60.496 8.177 0
      vertex 60.496 8.177 28
      vertex 61.192 8.048 0
    endloop
  endfacet
  facet normal 0.182241 0.983254 0
    outer loop
      vertex 61.192 8.048 0
      vertex 60.496 8.177 28
      vertex 61.192 8.048 28
    endloop
  endfacet
  facet normal 0.220261 0.975441 0
    outer loop
      vertex 57.613 8.828 0
      vertex 57.613 8.828 28
      vertex 60.496 8.177 0
    endloop
  endfacet
  facet normal 0.220261 0.975441 0
    outer loop
      vertex 60.496 8.177 0
      vertex 57.613 8.828 28
      vertex 60.496 8.177 28
    endloop
  endfacet
  facet normal 0.29908 0.954228 0
    outer loop
      vertex 55.52 9.484 0
      vertex 55.52 9.484 28
      vertex 57.613 8.828 0
    endloop
  endfacet
  facet normal 0.29908 0.954228 0
    outer loop
      vertex 57.613 8.828 0
      vertex 55.52 9.484 28
      vertex 57.613 8.828 28
    endloop
  endfacet
  facet normal 0.403866 0.914818 0
    outer loop
      vertex 55.221 9.616 0
      vertex 55.221 9.616 28
      vertex 55.52 9.484 0
    endloop
  endfacet
  facet normal 0.403866 0.914818 0
    outer loop
      vertex 55.52 9.484 0
      vertex 55.221 9.616 28
      vertex 55.52 9.484 28
    endloop
  endfacet
  facet normal 0.397942 0.917411 0
    outer loop
      vertex 54.836 9.783 0
      vertex 54.836 9.783 28
      vertex 55.221 9.616 0
    endloop
  endfacet
  facet normal 0.397942 0.917411 0
    outer loop
      vertex 55.221 9.616 0
      vertex 54.836 9.783 28
      vertex 55.221 9.616 28
    endloop
  endfacet
  facet normal 0.468691 0.883362 0
    outer loop
      vertex 53.724 10.373 0
      vertex 53.724 10.373 28
      vertex 54.836 9.783 0
    endloop
  endfacet
  facet normal 0.468691 0.883362 0
    outer loop
      vertex 54.836 9.783 0
      vertex 53.724 10.373 28
      vertex 54.836 9.783 28
    endloop
  endfacet
  facet normal 0.570146 0.821543 0
    outer loop
      vertex 52.492 11.228 0
      vertex 52.492 11.228 28
      vertex 53.724 10.373 0
    endloop
  endfacet
  facet normal 0.570146 0.821543 0
    outer loop
      vertex 53.724 10.373 0
      vertex 52.492 11.228 28
      vertex 53.724 10.373 28
    endloop
  endfacet
  facet normal 0.702678 0.711508 0
    outer loop
      vertex 51.525 12.183 0
      vertex 51.525 12.183 28
      vertex 52.492 11.228 0
    endloop
  endfacet
  facet normal 0.702678 0.711508 0
    outer loop
      vertex 52.492 11.228 0
      vertex 51.525 12.183 28
      vertex 52.492 11.228 28
    endloop
  endfacet
  facet normal 0.811534 0.584305 0
    outer loop
      vertex 51.525 12.183 0
      vertex 50.967 12.958 0
      vertex 50.967 12.958 28
    endloop
  endfacet
  facet normal 0.811534 0.584305 0
    outer loop
      vertex 51.525 12.183 28
      vertex 51.525 12.183 0
      vertex 50.967 12.958 28
    endloop
  endfacet
  facet normal 0.887948 0.459944 0
    outer loop
      vertex 50.967 12.958 0
      vertex 50.823 13.236 0
      vertex 50.823 13.236 28
    endloop
  endfacet
  facet normal 0.887948 0.459944 0
    outer loop
      vertex 50.967 12.958 28
      vertex 50.967 12.958 0
      vertex 50.823 13.236 28
    endloop
  endfacet
  facet normal 0.888557 0.458766 0
    outer loop
      vertex 50.823 13.236 0
      vertex 50.633 13.604 0
      vertex 50.633 13.604 28
    endloop
  endfacet
  facet normal 0.888557 0.458766 0
    outer loop
      vertex 50.823 13.236 28
      vertex 50.823 13.236 0
      vertex 50.633 13.604 28
    endloop
  endfacet
  facet normal 0.952847 0.303451 0
    outer loop
      vertex 50.633 13.604 0
      vertex 49.976 15.667 0
      vertex 49.976 15.667 28
    endloop
  endfacet
  facet normal 0.952847 0.303451 0
    outer loop
      vertex 50.633 13.604 28
      vertex 50.633 13.604 0
      vertex 49.976 15.667 28
    endloop
  endfacet
  facet normal 0.993713 0.111956 0
    outer loop
      vertex 49.976 15.667 0
      vertex 49.71 18.028 0
      vertex 49.71 18.028 28
    endloop
  endfacet
  facet normal 0.993713 0.111956 0
    outer loop
      vertex 49.976 15.667 28
      vertex 49.976 15.667 0
      vertex 49.71 18.028 28
    endloop
  endfacet
  facet normal 0.999932 -0.0116271 0
    outer loop
      vertex 49.71 18.028 28
      vertex 49.71 18.028 0
      vertex 49.716 18.544 0
    endloop
  endfacet
  facet normal 0.999932 -0.0116271 0
    outer loop
      vertex 49.716 18.544 28
      vertex 49.71 18.028 28
      vertex 49.716 18.544 0
    endloop
  endfacet
  facet normal 0.999947 -0.0103281 0
    outer loop
      vertex 49.716 18.544 28
      vertex 49.716 18.544 0
      vertex 50.61 105.099 0
    endloop
  endfacet
  facet normal 0.999947 -0.0103281 0
    outer loop
      vertex 50.61 105.099 28
      vertex 49.716 18.544 28
      vertex 50.61 105.099 0
    endloop
  endfacet
  facet normal 0.999968 -0.00795203 0
    outer loop
      vertex 50.61 105.099 28
      vertex 50.61 105.099 0
      vertex 50.614 105.602 0
    endloop
  endfacet
  facet normal 0.999968 -0.00795203 0
    outer loop
      vertex 50.614 105.602 28
      vertex 50.61 105.099 28
      vertex 50.614 105.602 0
    endloop
  endfacet
  facet normal 0.991662 -0.12887 0
    outer loop
      vertex 50.614 105.602 28
      vertex 50.614 105.602 0
      vertex 50.919 107.949 0
    endloop
  endfacet
  facet normal 0.991662 -0.12887 0
    outer loop
      vertex 50.919 107.949 28
      vertex 50.614 105.602 28
      vertex 50.919 107.949 0
    endloop
  endfacet
  facet normal 0.953155 -0.302482 0
    outer loop
      vertex 50.919 107.949 28
      vertex 50.919 107.949 0
      vertex 51.594 110.076 0
    endloop
  endfacet
  facet normal 0.953155 -0.302482 0
    outer loop
      vertex 51.594 110.076 28
      vertex 50.919 107.949 28
      vertex 51.594 110.076 0
    endloop
  endfacet
  facet normal 0.899405 -0.437116 0
    outer loop
      vertex 51.594 110.076 28
      vertex 51.594 110.076 0
      vertex 51.785 110.469 0
    endloop
  endfacet
  facet normal 0.899405 -0.437116 0
    outer loop
      vertex 51.785 110.469 28
      vertex 51.594 110.076 28
      vertex 51.785 110.469 0
    endloop
  endfacet
  facet normal 0.90051 -0.434835 0
    outer loop
      vertex 51.785 110.469 28
      vertex 51.785 110.469 0
      vertex 51.926 110.761 0
    endloop
  endfacet
  facet normal 0.90051 -0.434835 0
    outer loop
      vertex 51.926 110.761 28
      vertex 51.785 110.469 28
      vertex 51.926 110.761 0
    endloop
  endfacet
  facet normal 0.817612 -0.575769 0
    outer loop
      vertex 51.926 110.761 28
      vertex 51.926 110.761 0
      vertex 52.495 111.569 0
    endloop
  endfacet
  facet normal 0.817612 -0.575769 0
    outer loop
      vertex 52.495 111.569 28
      vertex 51.926 110.761 28
      vertex 52.495 111.569 0
    endloop
  endfacet
  facet normal 0.688923 -0.724835 0
    outer loop
      vertex 52.495 111.569 28
      vertex 52.495 111.569 0
      vertex 53.484 112.509 0
    endloop
  endfacet
  facet normal 0.688923 -0.724835 0
    outer loop
      vertex 53.484 112.509 28
      vertex 52.495 111.569 28
      vertex 53.484 112.509 0
    endloop
  endfacet
  facet normal 0.524435 -0.851451 0
    outer loop
      vertex 53.484 112.509 28
      vertex 53.484 112.509 0
      vertex 54.752 113.29 0
    endloop
  endfacet
  facet normal 0.524435 -0.851451 0
    outer loop
      vertex 54.752 113.29 28
      vertex 53.484 112.509 28
      vertex 54.752 113.29 0
    endloop
  endfacet
  facet normal 0.395075 -0.918649 0
    outer loop
      vertex 54.752 113.29 28
      vertex 54.752 113.29 0
      vertex 55.903 113.785 0
    endloop
  endfacet
  facet normal 0.395075 -0.918649 0
    outer loop
      vertex 55.903 113.785 28
      vertex 54.752 113.29 28
      vertex 55.903 113.785 0
    endloop
  endfacet
  facet normal 0.30251 -0.953146 0
    outer loop
      vertex 55.903 113.785 28
      vertex 55.903 113.785 0
      vertex 56.3 113.911 0
    endloop
  endfacet
  facet normal 0.30251 -0.953146 0
    outer loop
      vertex 56.3 113.911 28
      vertex 55.903 113.785 28
      vertex 56.3 113.911 0
    endloop
  endfacet
  facet normal 0.299493 -0.954099 0
    outer loop
      vertex 56.3 113.911 28
      vertex 56.3 113.911 0
      vertex 56.746 114.051 0
    endloop
  endfacet
  facet normal 0.299493 -0.954099 0
    outer loop
      vertex 56.746 114.051 28
      vertex 56.3 113.911 28
      vertex 56.746 114.051 0
    endloop
  endfacet
  facet normal 0.228396 -0.973568 0
    outer loop
      vertex 56.746 114.051 28
      vertex 56.746 114.051 0
      vertex 59.278 114.645 0
    endloop
  endfacet
  facet normal 0.228396 -0.973568 0
    outer loop
      vertex 59.278 114.645 28
      vertex 56.746 114.051 28
      vertex 59.278 114.645 0
    endloop
  endfacet
  facet normal 0.155219 -0.98788 0
    outer loop
      vertex 59.278 114.645 28
      vertex 59.278 114.645 0
      vertex 62.212 115.106 0
    endloop
  endfacet
  facet normal 0.155219 -0.98788 0
    outer loop
      vertex 62.212 115.106 28
      vertex 59.278 114.645 28
      vertex 62.212 115.106 0
    endloop
  endfacet
  facet normal 0.1106 -0.993865 0
    outer loop
      vertex 62.212 115.106 28
      vertex 62.212 115.106 0
      vertex 62.859 115.178 0
    endloop
  endfacet
  facet normal 0.1106 -0.993865 0
    outer loop
      vertex 62.859 115.178 28
      vertex 62.212 115.106 28
      vertex 62.859 115.178 0
    endloop
  endfacet
  facet normal 0.112117 -0.993695 0
    outer loop
      vertex 62.859 115.178 28
      vertex 62.859 115.178 0
      vertex 63.506 115.251 0
    endloop
  endfacet
  facet normal 0.112117 -0.993695 0
    outer loop
      vertex 63.506 115.251 28
      vertex 62.859 115.178 28
      vertex 63.506 115.251 0
    endloop
  endfacet
  facet normal 0.106304 -0.994334 0
    outer loop
      vertex 63.506 115.251 28
      vertex 63.506 115.251 0
      vertex 66.415 115.562 0
    endloop
  endfacet
  facet normal 0.106304 -0.994334 0
    outer loop
      vertex 66.415 115.562 28
      vertex 63.506 115.251 28
      vertex 66.415 115.562 0
    endloop
  endfacet
  facet normal 0.0975558 -0.99523 0
    outer loop
      vertex 66.415 115.562 28
      vertex 66.415 115.562 0
      vertex 68.894 115.805 0
    endloop
  endfacet
  facet normal 0.0975558 -0.99523 0
    outer loop
      vertex 68.894 115.805 28
      vertex 66.415 115.562 28
      vertex 68.894 115.805 0
    endloop
  endfacet
  facet normal 0.0878264 -0.996136 0
    outer loop
      vertex 68.894 115.805 28
      vertex 68.894 115.805 0
      vertex 69.325 115.843 0
    endloop
  endfacet
  facet normal 0.0878264 -0.996136 0
    outer loop
      vertex 69.325 115.843 28
      vertex 68.894 115.805 28
      vertex 69.325 115.843 0
    endloop
  endfacet
  facet normal 0.999946 -0.0104192 0
    outer loop
      vertex 69.325 115.843 28
      vertex 69.325 115.843 0
      vertex 69.395 122.561 0
    endloop
  endfacet
  facet normal 0.999946 -0.0104192 0
    outer loop
      vertex 69.395 122.561 28
      vertex 69.325 115.843 28
      vertex 69.395 122.561 0
    endloop
  endfacet
  facet normal 0.0103271 0.999947 0
    outer loop
      vertex 1.616 123.261 0
      vertex 1.616 123.261 28
      vertex 69.395 122.561 0
    endloop
  endfacet
  facet normal 0.0103271 0.999947 0
    outer loop
      vertex 69.395 122.561 0
      vertex 1.616 123.261 28
      vertex 69.395 122.561 28
    endloop
  endfacet
  facet normal -0.999949 0.0101246 0
    outer loop
      vertex 1.548 116.545 0
      vertex 1.548 116.545 28
      vertex 1.616 123.261 0
    endloop
  endfacet
  facet normal -0.999949 0.0101246 0
    outer loop
      vertex 1.616 123.261 0
      vertex 1.548 116.545 28
      vertex 1.616 123.261 28
    endloop
  endfacet
  facet normal -0.126546 -0.991961 0
    outer loop
      vertex 1.548 116.545 28
      vertex 1.548 116.545 0
      vertex 2.034 116.483 0
    endloop
  endfacet
  facet normal -0.126546 -0.991961 0
    outer loop
      vertex 2.034 116.483 28
      vertex 1.548 116.545 28
      vertex 2.034 116.483 0
    endloop
  endfacet
  facet normal -0.165636 -0.986187 0
    outer loop
      vertex 2.034 116.483 28
      vertex 2.034 116.483 0
      vertex 4.749 116.027 0
    endloop
  endfacet
  facet normal -0.165636 -0.986187 0
    outer loop
      vertex 4.749 116.027 28
      vertex 2.034 116.483 28
      vertex 4.749 116.027 0
    endloop
  endfacet
  facet normal -0.204524 -0.978862 0
    outer loop
      vertex 4.749 116.027 28
      vertex 4.749 116.027 0
      vertex 7.836 115.382 0
    endloop
  endfacet
  facet normal -0.204524 -0.978862 0
    outer loop
      vertex 7.836 115.382 28
      vertex 4.749 116.027 28
      vertex 7.836 115.382 0
    endloop
  endfacet
  facet normal -0.229926 -0.973208 0
    outer loop
      vertex 7.836 115.382 28
      vertex 7.836 115.382 0
      vertex 8.509 115.223 0
    endloop
  endfacet
  facet normal -0.229926 -0.973208 0
    outer loop
      vertex 8.509 115.223 28
      vertex 7.836 115.382 28
      vertex 8.509 115.223 0
    endloop
  endfacet
  facet normal -0.227184 -0.973852 0
    outer loop
      vertex 8.509 115.223 28
      vertex 8.509 115.223 0
      vertex 9.182 115.066 0
    endloop
  endfacet
  facet normal -0.227184 -0.973852 0
    outer loop
      vertex 9.182 115.066 28
      vertex 8.509 115.223 28
      vertex 9.182 115.066 0
    endloop
  endfacet
  facet normal -0.26007 -0.96559 0
    outer loop
      vertex 9.182 115.066 28
      vertex 9.182 115.066 0
      vertex 12.052 114.293 0
    endloop
  endfacet
  facet normal -0.26007 -0.96559 0
    outer loop
      vertex 12.052 114.293 28
      vertex 9.182 115.066 28
      vertex 12.052 114.293 0
    endloop
  endfacet
  facet normal -0.321619 -0.946869 0
    outer loop
      vertex 12.052 114.293 28
      vertex 12.052 114.293 0
      vertex 14.263 113.542 0
    endloop
  endfacet
  facet normal -0.321619 -0.946869 0
    outer loop
      vertex 14.263 113.542 28
      vertex 12.052 114.293 28
      vertex 14.263 113.542 0
    endloop
  endfacet
  facet normal -0.393919 -0.919145 0
    outer loop
      vertex 14.263 113.542 28
      vertex 14.263 113.542 0
      vertex 14.606 113.395 0
    endloop
  endfacet
  facet normal -0.393919 -0.919145 0
    outer loop
      vertex 14.606 113.395 28
      vertex 14.263 113.542 28
      vertex 14.606 113.395 0
    endloop
  endfacet
  facet normal -0.397675 -0.917526 0
    outer loop
      vertex 14.606 113.395 28
      vertex 14.606 113.395 0
      vertex 14.989 113.229 0
    endloop
  endfacet
  facet normal -0.397675 -0.917526 0
    outer loop
      vertex 14.989 113.229 28
      vertex 14.606 113.395 28
      vertex 14.989 113.229 0
    endloop
  endfacet
  facet normal -0.470258 -0.882529 0
    outer loop
      vertex 14.989 113.229 28
      vertex 14.989 113.229 0
      vertex 16.1 112.637 0
    endloop
  endfacet
  facet normal -0.470258 -0.882529 0
    outer loop
      vertex 16.1 112.637 28
      vertex 14.989 113.229 28
      vertex 16.1 112.637 0
    endloop
  endfacet
  facet normal -0.576552 -0.81706 0
    outer loop
      vertex 16.1 112.637 28
      vertex 16.1 112.637 0
      vertex 17.323 111.774 0
    endloop
  endfacet
  facet normal -0.576552 -0.81706 0
    outer loop
      vertex 17.323 111.774 28
      vertex 16.1 112.637 28
      vertex 17.323 111.774 0
    endloop
  endfacet
  facet normal -0.712601 -0.70157 0
    outer loop
      vertex 17.323 111.774 0
      vertex 18.277 110.805 0
      vertex 17.323 111.774 28
    endloop
  endfacet
  facet normal -0.712601 -0.70157 0
    outer loop
      vertex 17.323 111.774 28
      vertex 18.277 110.805 0
      vertex 18.277 110.805 28
    endloop
  endfacet
  facet normal -0.821967 -0.569535 0
    outer loop
      vertex 18.277 110.805 0
      vertex 18.823 110.017 0
      vertex 18.277 110.805 28
    endloop
  endfacet
  facet normal -0.821967 -0.569535 0
    outer loop
      vertex 18.277 110.805 28
      vertex 18.823 110.017 0
      vertex 18.823 110.017 28
    endloop
  endfacet
  facet normal -0.898799 -0.438361 0
    outer loop
      vertex 18.823 110.017 0
      vertex 18.962 109.732 0
      vertex 18.823 110.017 28
    endloop
  endfacet
  facet normal -0.898799 -0.438361 0
    outer loop
      vertex 18.823 110.017 28
      vertex 18.962 109.732 0
      vertex 18.962 109.732 28
    endloop
  endfacet
  facet normal -0.899643 -0.436627 0
    outer loop
      vertex 18.962 109.732 0
      vertex 19.144 109.357 0
      vertex 18.962 109.732 28
    endloop
  endfacet
  facet normal -0.899643 -0.436627 0
    outer loop
      vertex 18.962 109.732 28
      vertex 19.144 109.357 0
      vertex 19.144 109.357 28
    endloop
  endfacet
  facet normal -0.955546 -0.294841 0
    outer loop
      vertex 19.144 109.357 0
      vertex 19.775 107.312 0
      vertex 19.144 109.357 28
    endloop
  endfacet
  facet normal -0.955546 -0.294841 0
    outer loop
      vertex 19.144 109.357 28
      vertex 19.775 107.312 0
      vertex 19.775 107.312 28
    endloop
  endfacet
  facet normal -0.993701 -0.112065 0
    outer loop
      vertex 19.775 107.312 0
      vertex 20.031 105.042 0
      vertex 19.775 107.312 28
    endloop
  endfacet
  facet normal -0.993701 -0.112065 0
    outer loop
      vertex 19.775 107.312 28
      vertex 20.031 105.042 0
      vertex 20.031 105.042 28
    endloop
  endfacet
  facet normal -0.999967 0.00817969 0
    outer loop
      vertex 20.027 104.553 0
      vertex 20.027 104.553 28
      vertex 20.031 105.042 0
    endloop
  endfacet
  facet normal -0.999967 0.00817969 0
    outer loop
      vertex 20.031 105.042 0
      vertex 20.027 104.553 28
      vertex 20.031 105.042 28
    endloop
  endfacet
  facet normal -0.999947 0.0103411 0
    outer loop
      vertex 19.131 17.913 0
      vertex 19.131 17.913 28
      vertex 20.027 104.553 0
    endloop
  endfacet
  facet normal -0.999947 0.0103411 0
    outer loop
      vertex 20.027 104.553 0
      vertex 19.131 17.913 28
      vertex 20.027 104.553 28
    endloop
  endfacet
  facet normal -0.999958 0.00919079 0
    outer loop
      vertex 19.126 17.369 0
      vertex 19.126 17.369 28
      vertex 19.131 17.913 0
    endloop
  endfacet
  facet normal -0.999958 0.00919079 0
    outer loop
      vertex 19.131 17.913 0
      vertex 19.126 17.369 28
      vertex 19.131 17.913 28
    endloop
  endfacet
  facet normal -0.991625 0.129148 0
    outer loop
      vertex 18.809 14.935 0
      vertex 18.809 14.935 28
      vertex 19.126 17.369 0
    endloop
  endfacet
  facet normal -0.991625 0.129148 0
    outer loop
      vertex 19.126 17.369 0
      vertex 18.809 14.935 28
      vertex 19.126 17.369 28
    endloop
  endfacet
  facet normal -0.946104 0.323862 0
    outer loop
      vertex 18.11 12.893 0
      vertex 18.11 12.893 28
      vertex 18.809 14.935 0
    endloop
  endfacet
  facet normal -0.946104 0.323862 0
    outer loop
      vertex 18.809 14.935 0
      vertex 18.11 12.893 28
      vertex 18.809 14.935 28
    endloop
  endfacet
  facet normal -0.871443 0.490498 0
    outer loop
      vertex 17.913 12.543 0
      vertex 17.913 12.543 28
      vertex 18.11 12.893 0
    endloop
  endfacet
  facet normal -0.871443 0.490498 0
    outer loop
      vertex 18.11 12.893 0
      vertex 17.913 12.543 28
      vertex 18.11 12.893 28
    endloop
  endfacet
  facet normal -0.870257 0.492598 0
    outer loop
      vertex 17.763 12.278 0
      vertex 17.763 12.278 28
      vertex 17.913 12.543 0
    endloop
  endfacet
  facet normal -0.870257 0.492598 0
    outer loop
      vertex 17.913 12.543 0
      vertex 17.763 12.278 28
      vertex 17.913 12.543 28
    endloop
  endfacet
  facet normal -0.78912 0.61424 0
    outer loop
      vertex 17.194 11.547 0
      vertex 17.194 11.547 28
      vertex 17.763 12.278 0
    endloop
  endfacet
  facet normal -0.78912 0.61424 0
    outer loop
      vertex 17.763 12.278 0
      vertex 17.194 11.547 28
      vertex 17.763 12.278 28
    endloop
  endfacet
  facet normal -0.67727 0.735734 0
    outer loop
      vertex 16.225 10.655 0
      vertex 16.225 10.655 28
      vertex 17.194 11.547 0
    endloop
  endfacet
  facet normal -0.67727 0.735734 0
    outer loop
      vertex 17.194 11.547 0
      vertex 16.225 10.655 28
      vertex 17.194 11.547 28
    endloop
  endfacet
  facet normal -0.541453 0.840731 0
    outer loop
      vertex 15.003 9.868 0
      vertex 15.003 9.868 28
      vertex 16.225 10.655 0
    endloop
  endfacet
  facet normal -0.541453 0.840731 0
    outer loop
      vertex 16.225 10.655 0
      vertex 15.003 9.868 28
      vertex 16.225 10.655 28
    endloop
  endfacet
  facet normal -0.437018 0.899453 0
    outer loop
      vertex 13.906 9.335 0
      vertex 13.906 9.335 28
      vertex 15.003 9.868 0
    endloop
  endfacet
  facet normal -0.437018 0.899453 0
    outer loop
      vertex 15.003 9.868 0
      vertex 13.906 9.335 28
      vertex 15.003 9.868 28
    endloop
  endfacet
  facet normal -0.368405 0.929666 0
    outer loop
      vertex 13.53 9.186 0
      vertex 13.53 9.186 28
      vertex 13.906 9.335 0
    endloop
  endfacet
  facet normal -0.368405 0.929666 0
    outer loop
      vertex 13.906 9.335 0
      vertex 13.53 9.186 28
      vertex 13.906 9.335 28
    endloop
  endfacet
  facet normal -0.360272 0.932847 0
    outer loop
      vertex 13.24 9.074 0
      vertex 13.24 9.074 28
      vertex 13.53 9.186 0
    endloop
  endfacet
  facet normal -0.360272 0.932847 0
    outer loop
      vertex 13.53 9.186 0
      vertex 13.24 9.074 28
      vertex 13.53 9.186 28
    endloop
  endfacet
  facet normal -0.212335 0.977197 0
    outer loop
      vertex 11.1 8.609 0
      vertex 11.1 8.609 28
      vertex 13.24 9.074 0
    endloop
  endfacet
  facet normal -0.212335 0.977197 0
    outer loop
      vertex 13.24 9.074 0
      vertex 11.1 8.609 28
      vertex 13.24 9.074 28
    endloop
  endfacet
  facet normal -0.110645 0.99386 0
    outer loop
      vertex 8.028 8.267 0
      vertex 8.028 8.267 28
      vertex 11.1 8.609 0
    endloop
  endfacet
  facet normal -0.110645 0.99386 0
    outer loop
      vertex 11.1 8.609 0
      vertex 8.028 8.267 28
      vertex 11.1 8.609 28
    endloop
  endfacet
  facet normal -0.0662552 0.997803 0
    outer loop
      vertex 7.275 8.217 0
      vertex 7.275 8.217 28
      vertex 8.028 8.267 0
    endloop
  endfacet
  facet normal -0.0662552 0.997803 0
    outer loop
      vertex 8.028 8.267 0
      vertex 7.275 8.217 28
      vertex 8.028 8.267 28
    endloop
  endfacet
  facet normal -0.0647644 0.997901 0
    outer loop
      vertex 6.52 8.168 0
      vertex 6.52 8.168 28
      vertex 7.275 8.217 0
    endloop
  endfacet
  facet normal -0.0647644 0.997901 0
    outer loop
      vertex 7.275 8.217 0
      vertex 6.52 8.168 28
      vertex 7.275 8.217 28
    endloop
  endfacet
  facet normal -0.0653473 0.997863 0
    outer loop
      vertex 3.298 7.957 0
      vertex 3.298 7.957 28
      vertex 6.52 8.168 0
    endloop
  endfacet
  facet normal -0.0653473 0.997863 0
    outer loop
      vertex 6.52 8.168 0
      vertex 3.298 7.957 28
      vertex 6.52 8.168 28
    endloop
  endfacet
  facet normal -0.0645497 0.997914 0
    outer loop
      vertex 0.809 7.796 0
      vertex 0.809 7.796 28
      vertex 3.298 7.957 0
    endloop
  endfacet
  facet normal -0.0645497 0.997914 0
    outer loop
      vertex 3.298 7.957 0
      vertex 0.809 7.796 28
      vertex 3.298 7.957 28
    endloop
  endfacet
  facet normal -0.0644651 0.99792 0
    outer loop
      vertex 0.422 7.771 0
      vertex 0.422 7.771 28
      vertex 0.809 7.796 0
    endloop
  endfacet
  facet normal -0.0644651 0.99792 0
    outer loop
      vertex 0.809 7.796 0
      vertex 0.422 7.771 28
      vertex 0.809 7.796 28
    endloop
  endfacet
  facet normal -0.0469512 0.726804 0.685238
    outer loop
      vertex 0.809 7.796 28
      vertex 0.422 7.771 28
      vertex 0.809 7.40524 28.4145
    endloop
  endfacet
  facet normal -0.0470129 0.726802 0.685236
    outer loop
      vertex 0.809 7.40524 28.4145
      vertex 2.28949 6.00615 30
      vertex 0.809 7.796 28
    endloop
  endfacet
  facet normal -0.0470129 0.726802 0.685236
    outer loop
      vertex 0.809 7.796 28
      vertex 2.28949 6.00615 30
      vertex 3.298 6.07138 30
    endloop
  endfacet
  facet normal -0.0470129 0.726802 0.685236
    outer loop
      vertex 0.809 7.796 28
      vertex 3.298 6.07138 30
      vertex 3.298 7.957 28
    endloop
  endfacet
  facet normal 0 0 1
    outer loop
      vertex 2.28949 6.00615 30
      vertex 2.25779 2.91992 30
      vertex 66.2657 2.25792 30
    endloop
  endfacet
  facet normal 0 0 1
    outer loop
      vertex 64.6601 5.56761 30
      vertex 2.28949 6.00615 30
      vertex 66.2972 5.3783 30
    endloop
  endfacet
  facet normal 0 0 1
    outer loop
      vertex 66.2972 5.3783 30
      vertex 2.28949 6.00615 30
      vertex 66.2657 2.25792 30
    endloop
  endfacet
  facet normal 0 0 1
    outer loop
      vertex 61.5181 6.07061 30
      vertex 2.28949 6.00615 30
      vertex 64.6601 5.56761 30
    endloop
  endfacet
  facet normal 0 0 1
    outer loop
      vertex 60.8241 6.19861 30
      vertex 2.28949 6.00615 30
      vertex 61.5181 6.07061 30
    endloop
  endfacet
  facet normal 0 0 1
    outer loop
      vertex 60.1281 6.32761 30
      vertex 2.28949 6.00615 30
      vertex 60.8241 6.19861 30
    endloop
  endfacet
  facet normal 0 0 1
    outer loop
      vertex 57.2451 6.97861 30
      vertex 2.28949 6.00615 30
      vertex 60.1281 6.32761 30
    endloop
  endfacet
  facet normal 0 0 1
    outer loop
      vertex 56.8914 7.08592 30
      vertex 2.28949 6.00615 30
      vertex 57.2451 6.97861 30
    endloop
  endfacet
  facet normal 0 0 1
    outer loop
      vertex 54.7984 7.74192 30
      vertex 2.28949 6.00615 30
      vertex 56.8914 7.08592 30
    endloop
  endfacet
  facet normal 0 0 1
    outer loop
      vertex 54.4994 7.87392 30
      vertex 2.28949 6.00615 30
      vertex 54.7984 7.74192 30
    endloop
  endfacet
  facet normal 0 0 1
    outer loop
      vertex 54.1144 8.04092 30
      vertex 2.28949 6.00615 30
      vertex 54.4994 7.87392 30
    endloop
  endfacet
  facet normal 0 0 1
    outer loop
      vertex 53.0024 8.63092 30
      vertex 2.28949 6.00615 30
      vertex 54.1144 8.04092 30
    endloop
  endfacet
  facet normal 0 0 1
    outer loop
      vertex 52.6764 8.80517 30
      vertex 2.28949 6.00615 30
      vertex 53.0024 8.63092 30
    endloop
  endfacet
  facet normal 0 0 1
    outer loop
      vertex 3.298 6.07138 30
      vertex 2.28949 6.00615 30
      vertex 52.6764 8.80517 30
    endloop
  endfacet
  facet normal 0 0 1
    outer loop
      vertex 6.52 6.28238 30
      vertex 3.298 6.07138 30
      vertex 7.275 6.33138 30
    endloop
  endfacet
  facet normal 0 0 1
    outer loop
      vertex 11.4679 6.75961 30
      vertex 51.4444 9.66017 30
      vertex 51.1587 9.89467 30
    endloop
  endfacet
  facet normal 0 0 1
    outer loop
      vertex 11.4679 6.75961 30
      vertex 8.39587 6.41761 30
      vertex 51.4444 9.66017 30
    endloop
  endfacet
  facet normal 0 0 1
    outer loop
      vertex 13.6079 7.22461 30
      vertex 50.1917 10.8497 30
      vertex 49.9572 11.1354 30
    endloop
  endfacet
  facet normal 0 0 1
    outer loop
      vertex 14.6276 7.59292 30
      vertex 14.2516 7.44392 30
      vertex 49.3992 11.9104 30
    endloop
  endfacet
  facet normal 0 0 1
    outer loop
      vertex 13.6079 7.22461 30
      vertex 11.4679 6.75961 30
      vertex 50.1917 10.8497 30
    endloop
  endfacet
  facet normal 0 0 1
    outer loop
      vertex 15.7246 8.12592 30
      vertex 49.0809 12.5144 30
      vertex 48.8909 12.8824 30
    endloop
  endfacet
  facet normal 0 0 1
    outer loop
      vertex 15.7246 8.12592 30
      vertex 49.2249 12.2364 30
      vertex 49.0809 12.5144 30
    endloop
  endfacet
  facet normal 0 0 1
    outer loop
      vertex 17.2726 9.08717 30
      vertex 48.2339 14.9454 30
      vertex 48.1266 15.2991 30
    endloop
  endfacet
  facet normal 0 0 1
    outer loop
      vertex 18.5273 10.2137 30
      vertex 17.5583 9.32167 30
      vertex 47.8606 17.6601 30
    endloop
  endfacet
  facet normal 0 0 1
    outer loop
      vertex 18.7618 10.4994 30
      vertex 18.5273 10.2137 30
      vertex 47.8244 18.028 30
    endloop
  endfacet
  facet normal 0 0 1
    outer loop
      vertex 19.3308 11.2304 30
      vertex 18.7618 10.4994 30
      vertex 47.8304 18.544 30
    endloop
  endfacet
  facet normal 0 0 1
    outer loop
      vertex 17.2726 9.08717 30
      vertex 16.0506 8.30017 30
      vertex 48.2339 14.9454 30
    endloop
  endfacet
  facet normal 0 0 1
    outer loop
      vertex 15.7246 8.12592 30
      vertex 14.6276 7.59292 30
      vertex 49.2249 12.2364 30
    endloop
  endfacet
  facet normal 0 0 1
    outer loop
      vertex 50.1839 111.483 30
      vertex 49.8519 110.798 30
      vertex 50.0429 111.191 30
    endloop
  endfacet
  facet normal 0 0 1
    outer loop
      vertex 3.48233 121.356 30
      vertex 49.8519 110.798 30
      vertex 50.1839 111.483 30
    endloop
  endfacet
  facet normal 0 0 1
    outer loop
      vertex 3.48233 121.356 30
      vertex 50.1839 111.483 30
      vertex 50.3582 111.809 30
    endloop
  endfacet
  facet normal 0 0 1
    outer loop
      vertex 3.48233 121.356 30
      vertex 50.3582 111.809 30
      vertex 50.9272 112.617 30
    endloop
  endfacet
  facet normal 0 0 1
    outer loop
      vertex 3.48233 121.356 30
      vertex 50.9272 112.617 30
      vertex 51.1617 112.902 30
    endloop
  endfacet
  facet normal 0 0 1
    outer loop
      vertex 3.48233 121.356 30
      vertex 51.1617 112.902 30
      vertex 52.1507 113.842 30
    endloop
  endfacet
  facet normal 0 0 1
    outer loop
      vertex 3.48233 121.356 30
      vertex 52.1507 113.842 30
      vertex 52.4364 114.077 30
    endloop
  endfacet
  facet normal 0 0 1
    outer loop
      vertex 3.48233 121.356 30
      vertex 52.4364 114.077 30
      vertex 53.7044 114.858 30
    endloop
  endfacet
  facet normal 0 0 1
    outer loop
      vertex 3.48233 121.356 30
      vertex 53.7044 114.858 30
      vertex 54.0304 115.032 30
    endloop
  endfacet
  facet normal 0 0 1
    outer loop
      vertex 3.48233 121.356 30
      vertex 54.0304 115.032 30
      vertex 55.1814 115.527 30
    endloop
  endfacet
  facet normal 0 0 1
    outer loop
      vertex 67.4899 120.695 30
      vertex 55.1814 115.527 30
      vertex 55.5784 115.653 30
    endloop
  endfacet
  facet normal 0 0 1
    outer loop
      vertex 67.4899 120.695 30
      vertex 55.5784 115.653 30
      vertex 56.0244 115.793 30
    endloop
  endfacet
  facet normal 0 0 1
    outer loop
      vertex 67.4899 120.695 30
      vertex 56.0244 115.793 30
      vertex 56.3781 115.9 30
    endloop
  endfacet
  facet normal 0 0 1
    outer loop
      vertex 67.4899 120.695 30
      vertex 56.3781 115.9 30
      vertex 58.9101 116.494 30
    endloop
  endfacet
  facet normal 0 0 1
    outer loop
      vertex 67.4899 120.695 30
      vertex 58.9101 116.494 30
      vertex 61.8441 116.955 30
    endloop
  endfacet
  facet normal 0 0 1
    outer loop
      vertex 63.1381 117.1 30
      vertex 61.8441 116.955 30
      vertex 62.4911 117.027 30
    endloop
  endfacet
  facet normal 0 0 1
    outer loop
      vertex 67.4899 120.695 30
      vertex 61.8441 116.955 30
      vertex 63.1381 117.1 30
    endloop
  endfacet
  facet normal 0 0 1
    outer loop
      vertex 67.4899 120.695 30
      vertex 63.1381 117.1 30
      vertex 66.0471 117.411 30
    endloop
  endfacet
  facet normal 0 0 1
    outer loop
      vertex 67.4899 120.695 30
      vertex 66.0471 117.411 30
      vertex 66.415 117.448 30
    endloop
  endfacet
  facet normal 0 0 1
    outer loop
      vertex 67.4899 120.695 30
      vertex 66.415 117.448 30
      vertex 67.4572 117.55 30
    endloop
  endfacet
  facet normal 0 0 1
    outer loop
      vertex 3.48233 121.356 30
      vertex 55.1814 115.527 30
      vertex 67.4899 120.695 30
    endloop
  endfacet
  facet normal 0 0 1
    outer loop
      vertex 3.48233 121.356 30
      vertex 3.44993 118.156 30
      vertex 49.8519 110.798 30
    endloop
  endfacet
  facet normal 0 0 1
    outer loop
      vertex 3.44993 118.156 30
      vertex 5.11687 117.876 30
      vertex 49.8519 110.798 30
    endloop
  endfacet
  facet normal 0 0 1
    outer loop
      vertex 5.11687 117.876 30
      vertex 8.20387 117.231 30
      vertex 49.8519 110.798 30
    endloop
  endfacet
  facet normal 0 0 1
    outer loop
      vertex 8.20387 117.231 30
      vertex 8.87687 117.072 30
      vertex 49.8519 110.798 30
    endloop
  endfacet
  facet normal 0 0 1
    outer loop
      vertex 8.87687 117.072 30
      vertex 9.54987 116.915 30
      vertex 49.8519 110.798 30
    endloop
  endfacet
  facet normal 0 0 1
    outer loop
      vertex 9.54987 116.915 30
      vertex 12.4199 116.142 30
      vertex 49.8519 110.798 30
    endloop
  endfacet
  facet normal 0 0 1
    outer loop
      vertex 12.4199 116.142 30
      vertex 12.7736 116.035 30
      vertex 49.8519 110.798 30
    endloop
  endfacet
  facet normal 0 0 1
    outer loop
      vertex 12.7736 116.035 30
      vertex 14.9846 115.284 30
      vertex 49.8519 110.798 30
    endloop
  endfacet
  facet normal 0 0 1
    outer loop
      vertex 14.9846 115.284 30
      vertex 15.3276 115.137 30
      vertex 49.8519 110.798 30
    endloop
  endfacet
  facet normal 0 0 1
    outer loop
      vertex 15.3276 115.137 30
      vertex 15.7106 114.971 30
      vertex 49.8519 110.798 30
    endloop
  endfacet
  facet normal 0 0 1
    outer loop
      vertex 15.7106 114.971 30
      vertex 16.8216 114.379 30
      vertex 49.8519 110.798 30
    endloop
  endfacet
  facet normal 0 0 1
    outer loop
      vertex 16.8216 114.379 30
      vertex 17.1476 114.205 30
      vertex 49.8519 110.798 30
    endloop
  endfacet
  facet normal 0 0 1
    outer loop
      vertex 17.1476 114.205 30
      vertex 18.3706 113.342 30
      vertex 49.8519 110.798 30
    endloop
  endfacet
  facet normal 0 0 1
    outer loop
      vertex 18.3706 113.342 30
      vertex 18.6563 113.107 30
      vertex 49.8519 110.798 30
    endloop
  endfacet
  facet normal 0 0 1
    outer loop
      vertex 18.6563 113.107 30
      vertex 19.6103 112.138 30
      vertex 49.8519 110.798 30
    endloop
  endfacet
  facet normal 0 0 1
    outer loop
      vertex 19.6103 112.138 30
      vertex 19.8448 111.853 30
      vertex 49.8519 110.798 30
    endloop
  endfacet
  facet normal 0 0 1
    outer loop
      vertex 19.8448 111.853 30
      vertex 20.3908 111.065 30
      vertex 49.8519 110.798 30
    endloop
  endfacet
  facet normal 0 0 1
    outer loop
      vertex 20.3908 111.065 30
      vertex 20.5651 110.739 30
      vertex 49.8519 110.798 30
    endloop
  endfacet
  facet normal 0 0 1
    outer loop
      vertex 20.5651 110.739 30
      vertex 20.7041 110.454 30
      vertex 49.8519 110.798 30
    endloop
  endfacet
  facet normal 0 0 1
    outer loop
      vertex 20.7041 110.454 30
      vertex 20.8861 110.079 30
      vertex 49.8519 110.798 30
    endloop
  endfacet
  facet normal 0 0 1
    outer loop
      vertex 20.8861 110.079 30
      vertex 21.5171 108.034 30
      vertex 49.8519 110.798 30
    endloop
  endfacet
  facet normal 0 0 1
    outer loop
      vertex 21.5171 108.034 30
      vertex 21.6244 107.68 30
      vertex 49.8519 110.798 30
    endloop
  endfacet
  facet normal 0 0 1
    outer loop
      vertex 21.6244 107.68 30
      vertex 21.8804 105.41 30
      vertex 49.8519 110.798 30
    endloop
  endfacet
  facet normal 0 0 1
    outer loop
      vertex 21.8804 105.41 30
      vertex 21.9166 105.042 30
      vertex 49.8519 110.798 30
    endloop
  endfacet
  facet normal 0 0 1
    outer loop
      vertex 21.9166 105.042 30
      vertex 21.9126 104.553 30
      vertex 49.8519 110.798 30
    endloop
  endfacet
  facet normal 0 0 1
    outer loop
      vertex 48.7244 105.099 30
      vertex 21.0166 17.913 30
      vertex 47.8304 18.544 30
    endloop
  endfacet
  facet normal 0 0 1
    outer loop
      vertex 21.0166 17.913 30
      vertex 21.0116 17.369 30
      vertex 47.8304 18.544 30
    endloop
  endfacet
  facet normal 0 0 1
    outer loop
      vertex 21.0116 17.369 30
      vertex 20.9754 17.0011 30
      vertex 47.8304 18.544 30
    endloop
  endfacet
  facet normal 0 0 1
    outer loop
      vertex 20.9754 17.0011 30
      vertex 20.6584 14.5671 30
      vertex 47.8304 18.544 30
    endloop
  endfacet
  facet normal 0 0 1
    outer loop
      vertex 20.6584 14.5671 30
      vertex 20.5511 14.2134 30
      vertex 47.8304 18.544 30
    endloop
  endfacet
  facet normal 0 0 1
    outer loop
      vertex 20.5511 14.2134 30
      vertex 19.8521 12.1714 30
      vertex 47.8304 18.544 30
    endloop
  endfacet
  facet normal 0 0 1
    outer loop
      vertex 19.8521 12.1714 30
      vertex 19.6778 11.8454 30
      vertex 47.8304 18.544 30
    endloop
  endfacet
  facet normal 0 0 1
    outer loop
      vertex 19.6778 11.8454 30
      vertex 19.4808 11.4954 30
      vertex 47.8304 18.544 30
    endloop
  endfacet
  facet normal 0 0 1
    outer loop
      vertex 19.4808 11.4954 30
      vertex 19.3308 11.2304 30
      vertex 47.8304 18.544 30
    endloop
  endfacet
  facet normal 0 0 1
    outer loop
      vertex 47.8304 18.544 30
      vertex 18.7618 10.4994 30
      vertex 47.8244 18.028 30
    endloop
  endfacet
  facet normal 0 0 1
    outer loop
      vertex 47.8244 18.028 30
      vertex 18.5273 10.2137 30
      vertex 47.8606 17.6601 30
    endloop
  endfacet
  facet normal 0 0 1
    outer loop
      vertex 47.8606 17.6601 30
      vertex 17.5583 9.32167 30
      vertex 48.1266 15.2991 30
    endloop
  endfacet
  facet normal 0 0 1
    outer loop
      vertex 17.5583 9.32167 30
      vertex 17.2726 9.08717 30
      vertex 48.1266 15.2991 30
    endloop
  endfacet
  facet normal 0 0 1
    outer loop
      vertex 48.2339 14.9454 30
      vertex 16.0506 8.30017 30
      vertex 48.8909 12.8824 30
    endloop
  endfacet
  facet normal 0 0 1
    outer loop
      vertex 16.0506 8.30017 30
      vertex 15.7246 8.12592 30
      vertex 48.8909 12.8824 30
    endloop
  endfacet
  facet normal 0 0 1
    outer loop
      vertex 49.2249 12.2364 30
      vertex 14.6276 7.59292 30
      vertex 49.3992 11.9104 30
    endloop
  endfacet
  facet normal 0 0 1
    outer loop
      vertex 49.3992 11.9104 30
      vertex 14.2516 7.44392 30
      vertex 49.9572 11.1354 30
    endloop
  endfacet
  facet normal 0 0 1
    outer loop
      vertex 14.2516 7.44392 30
      vertex 13.9616 7.33192 30
      vertex 49.9572 11.1354 30
    endloop
  endfacet
  facet normal 0 0 1
    outer loop
      vertex 13.9616 7.33192 30
      vertex 13.6079 7.22461 30
      vertex 49.9572 11.1354 30
    endloop
  endfacet
  facet normal 0 0 1
    outer loop
      vertex 50.1917 10.8497 30
      vertex 11.4679 6.75961 30
      vertex 51.1587 9.89467 30
    endloop
  endfacet
  facet normal 0 0 1
    outer loop
      vertex 51.4444 9.66017 30
      vertex 8.39587 6.41761 30
      vertex 52.6764 8.80517 30
    endloop
  endfacet
  facet normal 0 0 1
    outer loop
      vertex 8.39587 6.41761 30
      vertex 8.028 6.38138 30
      vertex 52.6764 8.80517 30
    endloop
  endfacet
  facet normal 0 0 1
    outer loop
      vertex 8.028 6.38138 30
      vertex 7.275 6.33138 30
      vertex 52.6764 8.80517 30
    endloop
  endfacet
  facet normal 0 0 1
    outer loop
      vertex 7.275 6.33138 30
      vertex 3.298 6.07138 30
      vertex 52.6764 8.80517 30
    endloop
  endfacet
  facet normal 0 0 1
    outer loop
      vertex 21.9126 104.553 30
      vertex 49.1769 108.671 30
      vertex 49.8519 110.798 30
    endloop
  endfacet
  facet normal 0 0 1
    outer loop
      vertex 21.9126 104.553 30
      vertex 49.0696 108.317 30
      vertex 49.1769 108.671 30
    endloop
  endfacet
  facet normal 0 0 1
    outer loop
      vertex 21.9126 104.553 30
      vertex 48.7646 105.97 30
      vertex 49.0696 108.317 30
    endloop
  endfacet
  facet normal 0 0 1
    outer loop
      vertex 21.9126 104.553 30
      vertex 48.7284 105.602 30
      vertex 48.7646 105.97 30
    endloop
  endfacet
  facet normal 0 0 1
    outer loop
      vertex 21.9126 104.553 30
      vertex 48.7244 105.099 30
      vertex 48.7284 105.602 30
    endloop
  endfacet
  facet normal 0 0 1
    outer loop
      vertex 21.9126 104.553 30
      vertex 21.0166 17.913 30
      vertex 48.7244 105.099 30
    endloop
  endfacet
  facet normal 0.0837141 0.723912 0.684794
    outer loop
      vertex 64.6601 5.56761 30
      vertex 66.2972 5.3783 30
      vertex 65.028 7.417 28
    endloop
  endfacet
  facet normal 0.0837141 0.723912 0.684794
    outer loop
      vertex 65.028 7.417 28
      vertex 66.2972 5.3783 30
      vertex 67.6124 6.53405 28.6174
    endloop
  endfacet
  facet normal 0.0837141 0.723912 0.684794
    outer loop
      vertex 65.028 7.417 28
      vertex 67.6124 6.53405 28.6174
      vertex 67.726 7.105 28
    endloop
  endfacet
  facet normal 0.0714791 0.725746 0.68424
    outer loop
      vertex 67.726 7.105 28
      vertex 67.6124 6.53405 28.6174
      vertex 67.726 6.63541 28.4981
    endloop
  endfacet
  facet normal 0.0521203 0.726618 0.685062
    outer loop
      vertex 67.726 7.105 28
      vertex 67.726 6.63541 28.4981
      vertex 68.2 7.071 28
    endloop
  endfacet
  facet normal 0.115056 0.718698 0.685737
    outer loop
      vertex 61.5181 6.07061 30
      vertex 64.6601 5.56761 30
      vertex 61.886 7.92 28
    endloop
  endfacet
  facet normal 0.115056 0.718698 0.685737
    outer loop
      vertex 61.886 7.92 28
      vertex 64.6601 5.56761 30
      vertex 65.028 7.417 28
    endloop
  endfacet
  facet normal 0.131979 0.715571 0.685959
    outer loop
      vertex 60.8241 6.19861 30
      vertex 61.5181 6.07061 30
      vertex 61.192 8.048 28
    endloop
  endfacet
  facet normal 0.131979 0.715571 0.685959
    outer loop
      vertex 61.192 8.048 28
      vertex 61.5181 6.07061 30
      vertex 61.886 7.92 28
    endloop
  endfacet
  facet normal 0.132605 0.715451 0.685963
    outer loop
      vertex 60.1281 6.32761 30
      vertex 60.8241 6.19861 30
      vertex 60.496 8.177 28
    endloop
  endfacet
  facet normal 0.132605 0.715451 0.685963
    outer loop
      vertex 60.496 8.177 28
      vertex 60.8241 6.19861 30
      vertex 61.192 8.048 28
    endloop
  endfacet
  facet normal 0.160288 0.709848 0.685874
    outer loop
      vertex 57.2451 6.97861 30
      vertex 60.1281 6.32761 30
      vertex 57.613 8.828 28
    endloop
  endfacet
  facet normal 0.160288 0.709848 0.685874
    outer loop
      vertex 57.613 8.828 28
      vertex 60.1281 6.32761 30
      vertex 60.496 8.177 28
    endloop
  endfacet
  facet normal 0.218018 0.695596 0.684554
    outer loop
      vertex 54.7984 7.74192 30
      vertex 56.8914 7.08592 30
      vertex 55.52 9.484 28
    endloop
  endfacet
  facet normal 0.218018 0.695596 0.684554
    outer loop
      vertex 55.52 9.484 28
      vertex 56.8914 7.08592 30
      vertex 57.613 8.828 28
    endloop
  endfacet
  facet normal 0.211693 0.697856 0.68424
    outer loop
      vertex 57.613 8.828 28
      vertex 56.8914 7.08592 30
      vertex 57.2451 6.97861 30
    endloop
  endfacet
  facet normal 0.293893 0.665711 0.685898
    outer loop
      vertex 55.221 9.616 28
      vertex 54.4994 7.87392 30
      vertex 54.7984 7.74192 30
    endloop
  endfacet
  facet normal 0.293893 0.665711 0.685898
    outer loop
      vertex 55.52 9.484 28
      vertex 55.221 9.616 28
      vertex 54.7984 7.74192 30
    endloop
  endfacet
  facet normal 0.289564 0.667557 0.685944
    outer loop
      vertex 54.836 9.783 28
      vertex 54.1144 8.04092 30
      vertex 54.4994 7.87392 30
    endloop
  endfacet
  facet normal 0.289564 0.667557 0.685944
    outer loop
      vertex 55.221 9.616 28
      vertex 54.836 9.783 28
      vertex 54.4994 7.87392 30
    endloop
  endfacet
  facet normal 0.341748 0.644109 0.684348
    outer loop
      vertex 53.724 10.373 28
      vertex 53.0024 8.63092 30
      vertex 54.1144 8.04092 30
    endloop
  endfacet
  facet normal 0.341748 0.644109 0.684348
    outer loop
      vertex 54.836 9.783 28
      vertex 53.724 10.373 28
      vertex 54.1144 8.04092 30
    endloop
  endfacet
  facet normal 0.414872 0.597804 0.685938
    outer loop
      vertex 52.492 11.228 28
      vertex 51.4444 9.66017 30
      vertex 52.6764 8.80517 30
    endloop
  endfacet
  facet normal 0.414872 0.597804 0.685938
    outer loop
      vertex 53.724 10.373 28
      vertex 52.492 11.228 28
      vertex 52.6764 8.80517 30
    endloop
  endfacet
  facet normal 0.34377 0.643147 0.68424
    outer loop
      vertex 53.724 10.373 28
      vertex 52.6764 8.80517 30
      vertex 53.0024 8.63092 30
    endloop
  endfacet
  facet normal 0.511278 0.517703 0.685987
    outer loop
      vertex 51.525 12.183 28
      vertex 50.1917 10.8497 30
      vertex 51.1587 9.89467 30
    endloop
  endfacet
  facet normal 0.511278 0.517703 0.685987
    outer loop
      vertex 52.492 11.228 28
      vertex 51.525 12.183 28
      vertex 51.1587 9.89467 30
    endloop
  endfacet
  facet normal 0.462636 0.563724 0.68424
    outer loop
      vertex 52.492 11.228 28
      vertex 51.1587 9.89467 30
      vertex 51.4444 9.66017 30
    endloop
  endfacet
  facet normal 0.590648 0.425267 0.685772
    outer loop
      vertex 50.967 12.958 28
      vertex 49.3992 11.9104 30
      vertex 49.9572 11.1354 30
    endloop
  endfacet
  facet normal 0.590648 0.425267 0.685772
    outer loop
      vertex 51.525 12.183 28
      vertex 50.967 12.958 28
      vertex 49.9572 11.1354 30
    endloop
  endfacet
  facet normal 0.563724 0.462636 0.68424
    outer loop
      vertex 51.525 12.183 28
      vertex 49.9572 11.1354 30
      vertex 50.1917 10.8497 30
    endloop
  endfacet
  facet normal 0.647181 0.335231 0.684673
    outer loop
      vertex 50.823 13.236 28
      vertex 49.0809 12.5144 30
      vertex 49.2249 12.2364 30
    endloop
  endfacet
  facet normal 0.647181 0.335231 0.684673
    outer loop
      vertex 50.967 12.958 28
      vertex 50.823 13.236 28
      vertex 49.2249 12.2364 30
    endloop
  endfacet
  facet normal 0.643147 0.34377 0.68424
    outer loop
      vertex 50.967 12.958 28
      vertex 49.2249 12.2364 30
      vertex 49.3992 11.9104 30
    endloop
  endfacet
  facet normal 0.647591 0.334354 0.684713
    outer loop
      vertex 50.633 13.604 28
      vertex 48.8909 12.8824 30
      vertex 49.0809 12.5144 30
    endloop
  endfacet
  facet normal 0.647591 0.334354 0.684713
    outer loop
      vertex 50.823 13.236 28
      vertex 50.633 13.604 28
      vertex 49.0809 12.5144 30
    endloop
  endfacet
  facet normal 0.69446 0.221163 0.684699
    outer loop
      vertex 49.976 15.667 28
      vertex 48.2339 14.9454 30
      vertex 48.8909 12.8824 30
    endloop
  endfacet
  facet normal 0.69446 0.221163 0.684699
    outer loop
      vertex 50.633 13.604 28
      vertex 49.976 15.667 28
      vertex 48.8909 12.8824 30
    endloop
  endfacet
  facet normal 0.724238 0.0815956 0.684706
    outer loop
      vertex 49.71 18.028 28
      vertex 47.8606 17.6601 30
      vertex 48.1266 15.2991 30
    endloop
  endfacet
  facet normal 0.724238 0.0815956 0.684706
    outer loop
      vertex 49.976 15.667 28
      vertex 49.71 18.028 28
      vertex 48.1266 15.2991 30
    endloop
  endfacet
  facet normal 0.697856 0.211693 0.68424
    outer loop
      vertex 49.976 15.667 28
      vertex 48.1266 15.2991 30
      vertex 48.2339 14.9454 30
    endloop
  endfacet
  facet normal 0.727581 -0.00846024 0.68597
    outer loop
      vertex 47.8304 18.544 30
      vertex 47.8244 18.028 30
      vertex 49.71 18.028 28
    endloop
  endfacet
  facet normal 0.727581 -0.00846024 0.68597
    outer loop
      vertex 49.716 18.544 28
      vertex 47.8304 18.544 30
      vertex 49.71 18.028 28
    endloop
  endfacet
  facet normal 0.725746 0.0714791 0.68424
    outer loop
      vertex 49.71 18.028 28
      vertex 47.8244 18.028 30
      vertex 47.8606 17.6601 30
    endloop
  endfacet
  facet normal 0.727586 -0.00751502 0.685975
    outer loop
      vertex 48.7244 105.099 30
      vertex 47.8304 18.544 30
      vertex 49.716 18.544 28
    endloop
  endfacet
  facet normal 0.727586 -0.00751502 0.685975
    outer loop
      vertex 50.61 105.099 28
      vertex 48.7244 105.099 30
      vertex 49.716 18.544 28
    endloop
  endfacet
  facet normal 0.727595 -0.00578604 0.685983
    outer loop
      vertex 48.7284 105.602 30
      vertex 48.7244 105.099 30
      vertex 50.61 105.099 28
    endloop
  endfacet
  facet normal 0.727595 -0.00578604 0.685983
    outer loop
      vertex 50.614 105.602 28
      vertex 48.7284 105.602 30
      vertex 50.61 105.099 28
    endloop
  endfacet
  facet normal 0.725746 -0.0714791 0.68424
    outer loop
      vertex 48.7646 105.97 30
      vertex 48.7284 105.602 30
      vertex 50.614 105.602 28
    endloop
  endfacet
  facet normal 0.722305 -0.0938658 0.685175
    outer loop
      vertex 49.0696 108.317 30
      vertex 48.7646 105.97 30
      vertex 50.614 105.602 28
    endloop
  endfacet
  facet normal 0.722305 -0.0938658 0.685175
    outer loop
      vertex 50.919 107.949 28
      vertex 49.0696 108.317 30
      vertex 50.614 105.602 28
    endloop
  endfacet
  facet normal 0.697856 -0.211693 0.68424
    outer loop
      vertex 49.1769 108.671 30
      vertex 49.0696 108.317 30
      vertex 50.919 107.949 28
    endloop
  endfacet
  facet normal 0.694713 -0.220466 0.684667
    outer loop
      vertex 49.8519 110.798 30
      vertex 49.1769 108.671 30
      vertex 50.919 107.949 28
    endloop
  endfacet
  facet normal 0.694713 -0.220466 0.684667
    outer loop
      vertex 51.594 110.076 28
      vertex 49.8519 110.798 30
      vertex 50.919 107.949 28
    endloop
  endfacet
  facet normal 0.654962 -0.318315 0.685347
    outer loop
      vertex 50.0429 111.191 30
      vertex 49.8519 110.798 30
      vertex 51.594 110.076 28
    endloop
  endfacet
  facet normal 0.654962 -0.318315 0.685347
    outer loop
      vertex 51.785 110.469 28
      vertex 50.0429 111.191 30
      vertex 51.594 110.076 28
    endloop
  endfacet
  facet normal 0.655721 -0.316632 0.685401
    outer loop
      vertex 50.1839 111.483 30
      vertex 50.0429 111.191 30
      vertex 51.785 110.469 28
    endloop
  endfacet
  facet normal 0.655721 -0.316632 0.685401
    outer loop
      vertex 51.926 110.761 28
      vertex 50.1839 111.483 30
      vertex 51.785 110.469 28
    endloop
  endfacet
  facet normal 0.643147 -0.34377 0.68424
    outer loop
      vertex 50.3582 111.809 30
      vertex 50.1839 111.483 30
      vertex 51.926 110.761 28
    endloop
  endfacet
  facet normal 0.594984 -0.418993 0.685885
    outer loop
      vertex 50.9272 112.617 30
      vertex 50.3582 111.809 30
      vertex 51.926 110.761 28
    endloop
  endfacet
  facet normal 0.594984 -0.418993 0.685885
    outer loop
      vertex 52.495 111.569 28
      vertex 50.9272 112.617 30
      vertex 51.926 110.761 28
    endloop
  endfacet
  facet normal 0.563724 -0.462636 0.68424
    outer loop
      vertex 51.1617 112.902 30
      vertex 50.9272 112.617 30
      vertex 52.495 111.569 28
    endloop
  endfacet
  facet normal 0.501341 -0.527475 0.685877
    outer loop
      vertex 52.1507 113.842 30
      vertex 51.1617 112.902 30
      vertex 52.495 111.569 28
    endloop
  endfacet
  facet normal 0.501341 -0.527475 0.685877
    outer loop
      vertex 53.484 112.509 28
      vertex 52.1507 113.842 30
      vertex 52.495 111.569 28
    endloop
  endfacet
  facet normal 0.462636 -0.563724 0.68424
    outer loop
      vertex 52.4364 114.077 30
      vertex 52.1507 113.842 30
      vertex 53.484 112.509 28
    endloop
  endfacet
  facet normal 0.381705 -0.619721 0.685746
    outer loop
      vertex 53.7044 114.858 30
      vertex 52.4364 114.077 30
      vertex 53.484 112.509 28
    endloop
  endfacet
  facet normal 0.381705 -0.619721 0.685746
    outer loop
      vertex 54.752 113.29 28
      vertex 53.7044 114.858 30
      vertex 53.484 112.509 28
    endloop
  endfacet
  facet normal 0.34377 -0.643147 0.68424
    outer loop
      vertex 54.0304 115.032 30
      vertex 53.7044 114.858 30
      vertex 54.752 113.29 28
    endloop
  endfacet
  facet normal 0.287471 -0.668444 0.685961
    outer loop
      vertex 55.1814 115.527 30
      vertex 54.0304 115.032 30
      vertex 54.752 113.29 28
    endloop
  endfacet
  facet normal 0.287471 -0.668444 0.685961
    outer loop
      vertex 55.903 113.785 28
      vertex 55.1814 115.527 30
      vertex 54.752 113.29 28
    endloop
  endfacet
  facet normal 0.220486 -0.694705 0.684668
    outer loop
      vertex 55.5784 115.653 30
      vertex 55.1814 115.527 30
      vertex 55.903 113.785 28
    endloop
  endfacet
  facet normal 0.220486 -0.694705 0.684668
    outer loop
      vertex 56.3 113.911 28
      vertex 55.5784 115.653 30
      vertex 55.903 113.785 28
    endloop
  endfacet
  facet normal 0.218315 -0.695489 0.684568
    outer loop
      vertex 56.0244 115.793 30
      vertex 55.5784 115.653 30
      vertex 56.3 113.911 28
    endloop
  endfacet
  facet normal 0.218315 -0.695489 0.684568
    outer loop
      vertex 56.746 114.051 28
      vertex 56.0244 115.793 30
      vertex 56.3 113.911 28
    endloop
  endfacet
  facet normal 0.211693 -0.697856 0.68424
    outer loop
      vertex 56.3781 115.9 30
      vertex 56.0244 115.793 30
      vertex 56.746 114.051 28
    endloop
  endfacet
  facet normal 0.166228 -0.708568 0.685783
    outer loop
      vertex 58.9101 116.494 30
      vertex 56.3781 115.9 30
      vertex 56.746 114.051 28
    endloop
  endfacet
  facet normal 0.166228 -0.708568 0.685783
    outer loop
      vertex 59.278 114.645 28
      vertex 58.9101 116.494 30
      vertex 56.746 114.051 28
    endloop
  endfacet
  facet normal 0.112982 -0.719066 0.685696
    outer loop
      vertex 61.8441 116.955 30
      vertex 58.9101 116.494 30
      vertex 59.278 114.645 28
    endloop
  endfacet
  facet normal 0.112982 -0.719066 0.685696
    outer loop
      vertex 62.212 115.106 28
      vertex 61.8441 116.955 30
      vertex 59.278 114.645 28
    endloop
  endfacet
  facet normal 0.0806119 -0.724388 0.684664
    outer loop
      vertex 62.4911 117.027 30
      vertex 61.8441 116.955 30
      vertex 62.212 115.106 28
    endloop
  endfacet
  facet normal 0.0806119 -0.724388 0.684664
    outer loop
      vertex 62.859 115.178 28
      vertex 62.4911 117.027 30
      vertex 62.212 115.106 28
    endloop
  endfacet
  facet normal 0.0817126 -0.72422 0.684711
    outer loop
      vertex 63.1381 117.1 30
      vertex 62.4911 117.027 30
      vertex 62.859 115.178 28
    endloop
  endfacet
  facet normal 0.0817126 -0.72422 0.684711
    outer loop
      vertex 63.506 115.251 28
      vertex 63.1381 117.1 30
      vertex 62.859 115.178 28
    endloop
  endfacet
  facet normal 0.0774943 -0.724858 0.684525
    outer loop
      vertex 66.0471 117.411 30
      vertex 63.1381 117.1 30
      vertex 63.506 115.251 28
    endloop
  endfacet
  facet normal 0.0774943 -0.724858 0.684525
    outer loop
      vertex 66.415 115.562 28
      vertex 66.0471 117.411 30
      vertex 63.506 115.251 28
    endloop
  endfacet
  facet normal 0.0714791 -0.725746 0.68424
    outer loop
      vertex 66.415 117.448 30
      vertex 66.0471 117.411 30
      vertex 66.415 115.562 28
    endloop
  endfacet
  facet normal 0.0711418 -0.725763 0.684256
    outer loop
      vertex 66.415 117.448 30
      vertex 66.415 115.562 28
      vertex 68.894 115.805 28
    endloop
  endfacet
  facet normal 0.0711418 -0.725763 0.684256
    outer loop
      vertex 67.4572 117.55 30
      vertex 66.415 117.448 30
      vertex 68.894 116.24 28.4615
    endloop
  endfacet
  facet normal 0.0711418 -0.725763 0.684256
    outer loop
      vertex 68.894 116.24 28.4615
      vertex 66.415 117.448 30
      vertex 68.894 115.805 28
    endloop
  endfacet
  facet normal 0.0640194 -0.726114 0.684587
    outer loop
      vertex 68.894 116.24 28.4615
      vertex 68.894 115.805 28
      vertex 69.325 115.843 28
    endloop
  endfacet
  facet normal 0.727586 -0.00758128 0.685975
    outer loop
      vertex 67.4899 120.695 30
      vertex 67.4572 117.55 30
      vertex 68.894 116.24 28.4615
    endloop
  endfacet
  facet normal 0.727586 -0.00758128 0.685975
    outer loop
      vertex 69.325 115.843 28
      vertex 67.4899 120.695 30
      vertex 68.894 116.24 28.4615
    endloop
  endfacet
  facet normal 0.727586 -0.00758128 0.685975
    outer loop
      vertex 69.325 115.843 28
      vertex 69.395 122.561 28
      vertex 67.4899 120.695 30
    endloop
  endfacet
  facet normal 0.00751428 0.727586 0.685975
    outer loop
      vertex 1.616 123.261 28
      vertex 3.48233 121.356 30
      vertex 69.395 122.561 28
    endloop
  endfacet
  facet normal 0.00751428 0.727586 0.685975
    outer loop
      vertex 69.395 122.561 28
      vertex 3.48233 121.356 30
      vertex 67.4899 120.695 30
    endloop
  endfacet
  facet normal -0.727587 0.00736687 0.685976
    outer loop
      vertex 1.548 116.545 28
      vertex 2.15051 117.069 28.6334
      vertex 1.616 123.261 28
    endloop
  endfacet
  facet normal -0.727587 0.00736687 0.685976
    outer loop
      vertex 1.616 123.261 28
      vertex 2.15051 117.069 28.6334
      vertex 3.44993 118.156 30
    endloop
  endfacet
  facet normal -0.727587 0.00736687 0.685976
    outer loop
      vertex 1.616 123.261 28
      vertex 3.44993 118.156 30
      vertex 3.48233 121.356 30
    endloop
  endfacet
  facet normal -0.0921806 -0.722577 0.685117
    outer loop
      vertex 2.15051 117.069 28.6334
      vertex 1.548 116.545 28
      vertex 2.034 116.483 28
    endloop
  endfacet
  facet normal -0.120543 -0.717708 0.685831
    outer loop
      vertex 2.15051 117.069 28.6334
      vertex 2.034 116.483 28
      vertex 4.749 116.027 28
    endloop
  endfacet
  facet normal -0.120543 -0.717708 0.685831
    outer loop
      vertex 3.44993 118.156 30
      vertex 2.15051 117.069 28.6334
      vertex 5.11687 117.876 30
    endloop
  endfacet
  facet normal -0.120543 -0.717708 0.685831
    outer loop
      vertex 5.11687 117.876 30
      vertex 2.15051 117.069 28.6334
      vertex 4.749 116.027 28
    endloop
  endfacet
  facet normal -0.148816 -0.712242 0.685978
    outer loop
      vertex 5.11687 117.876 30
      vertex 4.749 116.027 28
      vertex 7.836 115.382 28
    endloop
  endfacet
  facet normal -0.148816 -0.712242 0.685978
    outer loop
      vertex 8.20387 117.231 30
      vertex 5.11687 117.876 30
      vertex 7.836 115.382 28
    endloop
  endfacet
  facet normal -0.167346 -0.708325 0.685763
    outer loop
      vertex 8.20387 117.231 30
      vertex 7.836 115.382 28
      vertex 8.509 115.223 28
    endloop
  endfacet
  facet normal -0.167346 -0.708325 0.685763
    outer loop
      vertex 8.87687 117.072 30
      vertex 8.20387 117.231 30
      vertex 8.509 115.223 28
    endloop
  endfacet
  facet normal -0.165342 -0.708761 0.685799
    outer loop
      vertex 8.87687 117.072 30
      vertex 8.509 115.223 28
      vertex 9.182 115.066 28
    endloop
  endfacet
  facet normal -0.165342 -0.708761 0.685799
    outer loop
      vertex 9.54987 116.915 30
      vertex 8.87687 117.072 30
      vertex 9.182 115.066 28
    endloop
  endfacet
  facet normal -0.189427 -0.703306 0.685184
    outer loop
      vertex 9.54987 116.915 30
      vertex 9.182 115.066 28
      vertex 12.052 114.293 28
    endloop
  endfacet
  facet normal -0.189427 -0.703306 0.685184
    outer loop
      vertex 12.4199 116.142 30
      vertex 9.54987 116.915 30
      vertex 12.052 114.293 28
    endloop
  endfacet
  facet normal -0.211693 -0.697856 0.68424
    outer loop
      vertex 12.4199 116.142 30
      vertex 12.052 114.293 28
      vertex 12.7736 116.035 30
    endloop
  endfacet
  facet normal -0.234246 -0.689639 0.68522
    outer loop
      vertex 12.7736 116.035 30
      vertex 12.052 114.293 28
      vertex 14.263 113.542 28
    endloop
  endfacet
  facet normal -0.234246 -0.689639 0.68522
    outer loop
      vertex 14.9846 115.284 30
      vertex 12.7736 116.035 30
      vertex 14.263 113.542 28
    endloop
  endfacet
  facet normal -0.286628 -0.6688 0.685967
    outer loop
      vertex 14.9846 115.284 30
      vertex 14.263 113.542 28
      vertex 14.606 113.395 28
    endloop
  endfacet
  facet normal -0.286628 -0.6688 0.685967
    outer loop
      vertex 15.3276 115.137 30
      vertex 14.9846 115.284 30
      vertex 14.606 113.395 28
    endloop
  endfacet
  facet normal -0.289369 -0.66764 0.685946
    outer loop
      vertex 15.3276 115.137 30
      vertex 14.606 113.395 28
      vertex 14.989 113.229 28
    endloop
  endfacet
  facet normal -0.289369 -0.66764 0.685946
    outer loop
      vertex 15.7106 114.971 30
      vertex 15.3276 115.137 30
      vertex 14.989 113.229 28
    endloop
  endfacet
  facet normal -0.342919 -0.643552 0.684286
    outer loop
      vertex 15.7106 114.971 30
      vertex 14.989 113.229 28
      vertex 16.1 112.637 28
    endloop
  endfacet
  facet normal -0.342919 -0.643552 0.684286
    outer loop
      vertex 16.8216 114.379 30
      vertex 15.7106 114.971 30
      vertex 16.1 112.637 28
    endloop
  endfacet
  facet normal -0.34377 -0.643147 0.68424
    outer loop
      vertex 16.8216 114.379 30
      vertex 16.1 112.637 28
      vertex 17.1476 114.205 30
    endloop
  endfacet
  facet normal -0.419567 -0.594589 0.685877
    outer loop
      vertex 17.1476 114.205 30
      vertex 16.1 112.637 28
      vertex 17.323 111.774 28
    endloop
  endfacet
  facet normal -0.419567 -0.594589 0.685877
    outer loop
      vertex 18.3706 113.342 30
      vertex 17.1476 114.205 30
      vertex 17.323 111.774 28
    endloop
  endfacet
  facet normal -0.462636 -0.563724 0.68424
    outer loop
      vertex 18.3706 113.342 30
      vertex 17.323 111.774 28
      vertex 18.6563 113.107 30
    endloop
  endfacet
  facet normal -0.518501 -0.510474 0.685983
    outer loop
      vertex 18.6563 113.107 30
      vertex 17.323 111.774 28
      vertex 18.277 110.805 28
    endloop
  endfacet
  facet normal -0.518501 -0.510474 0.685983
    outer loop
      vertex 19.6103 112.138 30
      vertex 18.6563 113.107 30
      vertex 18.277 110.805 28
    endloop
  endfacet
  facet normal -0.563724 -0.462636 0.68424
    outer loop
      vertex 19.6103 112.138 30
      vertex 18.277 110.805 28
      vertex 19.8448 111.853 30
    endloop
  endfacet
  facet normal -0.598109 -0.414426 0.685943
    outer loop
      vertex 19.8448 111.853 30
      vertex 18.277 110.805 28
      vertex 18.823 110.017 28
    endloop
  endfacet
  facet normal -0.598109 -0.414426 0.685943
    outer loop
      vertex 20.3908 111.065 30
      vertex 19.8448 111.853 30
      vertex 18.823 110.017 28
    endloop
  endfacet
  facet normal -0.643147 -0.34377 0.68424
    outer loop
      vertex 20.3908 111.065 30
      vertex 18.823 110.017 28
      vertex 20.5651 110.739 30
    endloop
  endfacet
  facet normal -0.654546 -0.319235 0.685316
    outer loop
      vertex 20.5651 110.739 30
      vertex 18.823 110.017 28
      vertex 18.962 109.732 28
    endloop
  endfacet
  facet normal -0.654546 -0.319235 0.685316
    outer loop
      vertex 20.7041 110.454 30
      vertex 20.5651 110.739 30
      vertex 18.962 109.732 28
    endloop
  endfacet
  facet normal -0.655125 -0.317954 0.685358
    outer loop
      vertex 20.7041 110.454 30
      vertex 18.962 109.732 28
      vertex 19.144 109.357 28
    endloop
  endfacet
  facet normal -0.655125 -0.317954 0.685358
    outer loop
      vertex 20.8861 110.079 30
      vertex 20.7041 110.454 30
      vertex 19.144 109.357 28
    endloop
  endfacet
  facet normal -0.69669 -0.214969 0.684406
    outer loop
      vertex 19.144 109.357 28
      vertex 19.775 107.312 28
      vertex 20.8861 110.079 30
    endloop
  endfacet
  facet normal -0.69669 -0.214969 0.684406
    outer loop
      vertex 20.8861 110.079 30
      vertex 19.775 107.312 28
      vertex 21.5171 108.034 30
    endloop
  endfacet
  facet normal -0.697856 -0.211693 0.68424
    outer loop
      vertex 21.5171 108.034 30
      vertex 19.775 107.312 28
      vertex 21.6244 107.68 30
    endloop
  endfacet
  facet normal -0.724225 -0.0816748 0.684709
    outer loop
      vertex 19.775 107.312 28
      vertex 20.031 105.042 28
      vertex 21.6244 107.68 30
    endloop
  endfacet
  facet normal -0.724225 -0.0816748 0.684709
    outer loop
      vertex 21.6244 107.68 30
      vertex 20.031 105.042 28
      vertex 21.8804 105.41 30
    endloop
  endfacet
  facet normal -0.727594 0.00595169 0.685982
    outer loop
      vertex 20.027 104.553 28
      vertex 21.9126 104.553 30
      vertex 20.031 105.042 28
    endloop
  endfacet
  facet normal -0.727594 0.00595169 0.685982
    outer loop
      vertex 20.031 105.042 28
      vertex 21.9126 104.553 30
      vertex 21.9166 105.042 30
    endloop
  endfacet
  facet normal -0.725746 -0.0714791 0.68424
    outer loop
      vertex 21.8804 105.41 30
      vertex 20.031 105.042 28
      vertex 21.9166 105.042 30
    endloop
  endfacet
  facet normal -0.727586 0.00752444 0.685975
    outer loop
      vertex 19.131 17.913 28
      vertex 21.0166 17.913 30
      vertex 20.027 104.553 28
    endloop
  endfacet
  facet normal -0.727586 0.00752444 0.685975
    outer loop
      vertex 20.027 104.553 28
      vertex 21.0166 17.913 30
      vertex 21.9126 104.553 30
    endloop
  endfacet
  facet normal -0.727591 0.00668741 0.685979
    outer loop
      vertex 19.126 17.369 28
      vertex 21.0116 17.369 30
      vertex 19.131 17.913 28
    endloop
  endfacet
  facet normal -0.727591 0.00668741 0.685979
    outer loop
      vertex 19.131 17.913 28
      vertex 21.0116 17.369 30
      vertex 21.0166 17.913 30
    endloop
  endfacet
  facet normal -0.722272 0.0940675 0.685182
    outer loop
      vertex 18.809 14.935 28
      vertex 20.6584 14.5671 30
      vertex 19.126 17.369 28
    endloop
  endfacet
  facet normal -0.722272 0.0940675 0.685182
    outer loop
      vertex 19.126 17.369 28
      vertex 20.6584 14.5671 30
      vertex 20.9754 17.0011 30
    endloop
  endfacet
  facet normal -0.725746 0.0714791 0.68424
    outer loop
      vertex 21.0116 17.369 30
      vertex 19.126 17.369 28
      vertex 20.9754 17.0011 30
    endloop
  endfacet
  facet normal -0.689033 0.235864 0.685275
    outer loop
      vertex 18.11 12.893 28
      vertex 19.8521 12.1714 30
      vertex 18.809 14.935 28
    endloop
  endfacet
  facet normal -0.689033 0.235864 0.685275
    outer loop
      vertex 18.809 14.935 28
      vertex 19.8521 12.1714 30
      vertex 20.5511 14.2134 30
    endloop
  endfacet
  facet normal -0.697856 0.211693 0.68424
    outer loop
      vertex 20.6584 14.5671 30
      vertex 18.809 14.935 28
      vertex 20.5511 14.2134 30
    endloop
  endfacet
  facet normal -0.634938 0.35738 0.684933
    outer loop
      vertex 18.11 12.893 28
      vertex 17.913 12.543 28
      vertex 19.4808 11.4954 30
    endloop
  endfacet
  facet normal -0.634938 0.35738 0.684933
    outer loop
      vertex 19.6778 11.8454 30
      vertex 18.11 12.893 28
      vertex 19.4808 11.4954 30
    endloop
  endfacet
  facet normal -0.643147 0.34377 0.68424
    outer loop
      vertex 19.8521 12.1714 30
      vertex 18.11 12.893 28
      vertex 19.6778 11.8454 30
    endloop
  endfacet
  facet normal -0.63402 0.358879 0.684999
    outer loop
      vertex 17.913 12.543 28
      vertex 17.763 12.278 28
      vertex 19.3308 11.2304 30
    endloop
  endfacet
  facet normal -0.63402 0.358879 0.684999
    outer loop
      vertex 19.4808 11.4954 30
      vertex 17.913 12.543 28
      vertex 19.3308 11.2304 30
    endloop
  endfacet
  facet normal -0.574877 0.447476 0.685042
    outer loop
      vertex 17.763 12.278 28
      vertex 17.194 11.547 28
      vertex 18.7618 10.4994 30
    endloop
  endfacet
  facet normal -0.574877 0.447476 0.685042
    outer loop
      vertex 19.3308 11.2304 30
      vertex 17.763 12.278 28
      vertex 18.7618 10.4994 30
    endloop
  endfacet
  facet normal -0.492985 0.535541 0.685684
    outer loop
      vertex 17.194 11.547 28
      vertex 16.225 10.655 28
      vertex 17.5583 9.32167 30
    endloop
  endfacet
  facet normal -0.492985 0.535541 0.685684
    outer loop
      vertex 18.5273 10.2137 30
      vertex 17.194 11.547 28
      vertex 17.5583 9.32167 30
    endloop
  endfacet
  facet normal -0.563724 0.462636 0.68424
    outer loop
      vertex 18.7618 10.4994 30
      vertex 17.194 11.547 28
      vertex 18.5273 10.2137 30
    endloop
  endfacet
  facet normal -0.393991 0.611763 0.685943
    outer loop
      vertex 16.225 10.655 28
      vertex 15.003 9.868 28
      vertex 16.0506 8.30017 30
    endloop
  endfacet
  facet normal -0.393991 0.611763 0.685943
    outer loop
      vertex 17.2726 9.08717 30
      vertex 16.225 10.655 28
      vertex 16.0506 8.30017 30
    endloop
  endfacet
  facet normal -0.462636 0.563724 0.68424
    outer loop
      vertex 17.5583 9.32167 30
      vertex 16.225 10.655 28
      vertex 17.2726 9.08717 30
    endloop
  endfacet
  facet normal -0.318243 0.654995 0.685349
    outer loop
      vertex 15.003 9.868 28
      vertex 13.906 9.335 28
      vertex 14.6276 7.59292 30
    endloop
  endfacet
  facet normal -0.318243 0.654995 0.685349
    outer loop
      vertex 15.7246 8.12592 30
      vertex 15.003 9.868 28
      vertex 14.6276 7.59292 30
    endloop
  endfacet
  facet normal -0.34377 0.643147 0.68424
    outer loop
      vertex 16.0506 8.30017 30
      vertex 15.003 9.868 28
      vertex 15.7246 8.12592 30
    endloop
  endfacet
  facet normal -0.268069 0.676469 0.685951
    outer loop
      vertex 13.906 9.335 28
      vertex 13.53 9.186 28
      vertex 14.2516 7.44392 30
    endloop
  endfacet
  facet normal -0.268069 0.676469 0.685951
    outer loop
      vertex 14.6276 7.59292 30
      vertex 13.906 9.335 28
      vertex 14.2516 7.44392 30
    endloop
  endfacet
  facet normal -0.262172 0.678839 0.685889
    outer loop
      vertex 13.53 9.186 28
      vertex 13.24 9.074 28
      vertex 13.9616 7.33192 30
    endloop
  endfacet
  facet normal -0.262172 0.678839 0.685889
    outer loop
      vertex 14.2516 7.44392 30
      vertex 13.53 9.186 28
      vertex 13.9616 7.33192 30
    endloop
  endfacet
  facet normal -0.154508 0.711067 0.685938
    outer loop
      vertex 11.1 8.609 28
      vertex 11.4679 6.75961 30
      vertex 13.24 9.074 28
    endloop
  endfacet
  facet normal -0.154508 0.711067 0.685938
    outer loop
      vertex 13.24 9.074 28
      vertex 11.4679 6.75961 30
      vertex 13.6079 7.22461 30
    endloop
  endfacet
  facet normal -0.211693 0.697856 0.68424
    outer loop
      vertex 13.9616 7.33192 30
      vertex 13.24 9.074 28
      vertex 13.6079 7.22461 30
    endloop
  endfacet
  facet normal -0.0806442 0.724383 0.684665
    outer loop
      vertex 8.028 8.267 28
      vertex 8.39587 6.41761 30
      vertex 11.1 8.609 28
    endloop
  endfacet
  facet normal -0.0806442 0.724383 0.684665
    outer loop
      vertex 11.1 8.609 28
      vertex 8.39587 6.41761 30
      vertex 11.4679 6.75961 30
    endloop
  endfacet
  facet normal -0.0482576 0.726759 0.685195
    outer loop
      vertex 7.275 6.33138 30
      vertex 8.028 6.38138 30
      vertex 7.275 8.217 28
    endloop
  endfacet
  facet normal -0.0482576 0.726759 0.685195
    outer loop
      vertex 7.275 8.217 28
      vertex 8.028 6.38138 30
      vertex 8.028 8.267 28
    endloop
  endfacet
  facet normal -0.0714791 0.725746 0.68424
    outer loop
      vertex 8.028 8.267 28
      vertex 8.028 6.38138 30
      vertex 8.39587 6.41761 30
    endloop
  endfacet
  facet normal -0.0471696 0.726797 0.685231
    outer loop
      vertex 6.52 6.28238 30
      vertex 7.275 6.33138 30
      vertex 6.52 8.168 28
    endloop
  endfacet
  facet normal -0.0471696 0.726797 0.685231
    outer loop
      vertex 6.52 8.168 28
      vertex 7.275 6.33138 30
      vertex 7.275 8.217 28
    endloop
  endfacet
  facet normal -0.047595 0.726782 0.685217
    outer loop
      vertex 3.298 6.07138 30
      vertex 6.52 6.28238 30
      vertex 3.298 7.957 28
    endloop
  endfacet
  facet normal -0.047595 0.726782 0.685217
    outer loop
      vertex 3.298 7.957 28
      vertex 6.52 6.28238 30
      vertex 6.52 8.168 28
    endloop
  endfacet
endsolid OpenSCAD_Model
