solid OpenSCAD_Model
  facet normal 0 -1 0
    outer loop
      vertex 0.353 0.353 28
      vertex 0.353 0.353 0
      vertex 112.922 0.353 0
    endloop
  endfacet
  facet normal 0 -1 0
    outer loop
      vertex 112.922 0.353 28
      vertex 0.353 0.353 28
      vertex 112.922 0.353 0
    endloop
  endfacet
  facet normal 0 0 -1
    outer loop
      vertex 0.353 0.353 0
      vertex 0.353 7.071 0
      vertex 112.922 0.353 0
    endloop
  endfacet
  facet normal 0 0 -1
    outer loop
      vertex 112.922 0.353 0
      vertex 0.353 7.071 0
      vertex 0.854 7.115 0
    endloop
  endfacet
  facet normal 0 0 -1
    outer loop
      vertex 112.922 0.353 0
      vertex 0.854 7.115 0
      vertex 6.74 7.797 0
    endloop
  endfacet
  facet normal 0 0 -1
    outer loop
      vertex 6.74 7.797 0
      vertex 7.415 7.889 0
      vertex 112.922 0.353 0
    endloop
  endfacet
  facet normal 0 0 -1
    outer loop
      vertex 7.415 7.889 0
      vertex 8.089 7.983 0
      vertex 112.922 0.353 0
    endloop
  endfacet
  facet normal 0 0 -1
    outer loop
      vertex 8.089 7.983 0
      vertex 10.774 8.439 0
      vertex 112.922 0.353 0
    endloop
  endfacet
  facet normal 0 0 -1
    outer loop
      vertex 10.774 8.439 0
      vertex 12.539 8.88 0
      vertex 112.922 0.353 0
    endloop
  endfacet
  facet normal 0 0 -1
    outer loop
      vertex 12.539 8.88 0
      vertex 12.755 8.966 0
      vertex 112.922 0.353 0
    endloop
  endfacet
  facet normal 0 0 -1
    outer loop
      vertex 112.922 0.353 0
      vertex 12.755 8.966 0
      vertex 13.122 9.109 0
    endloop
  endfacet
  facet normal 0 0 -1
    outer loop
      vertex 13.122 9.109 0
      vertex 14.187 9.628 0
      vertex 112.922 0.353 0
    endloop
  endfacet
  facet normal 0 0 -1
    outer loop
      vertex 14.187 9.628 0
      vertex 15.382 10.408 0
      vertex 112.922 0.353 0
    endloop
  endfacet
  facet normal 0 0 -1
    outer loop
      vertex 15.382 10.408 0
      vertex 16.339 11.308 0
      vertex 112.922 0.353 0
    endloop
  endfacet
  facet normal 0 0 -1
    outer loop
      vertex 16.339 11.308 0
      vertex 16.91 12.054 0
      vertex 112.922 0.353 0
    endloop
  endfacet
  facet normal 0 0 -1
    outer loop
      vertex 16.91 12.054 0
      vertex 17.062 12.324 0
      vertex 112.922 0.353 0
    endloop
  endfacet
  facet normal 0 0 -1
    outer loop
      vertex 17.062 12.324 0
      vertex 17.261 12.684 0
      vertex 112.922 0.353 0
    endloop
  endfacet
  facet normal 0 0 -1
    outer loop
      vertex 17.261 12.684 0
      vertex 17.966 14.779 0
      vertex 112.922 0.353 0
    endloop
  endfacet
  facet normal 0 0 -1
    outer loop
      vertex 14.396 111.993 0
      vertex 0.353 122.567 0
      vertex 15.704 111.103 0
    endloop
  endfacet
  facet normal 0 0 -1
    outer loop
      vertex 13.174 112.646 0
      vertex 12.755 112.835 0
      vertex 12.31 113.036 0
    endloop
  endfacet
  facet normal 0 0 -1
    outer loop
      vertex 13.174 112.646 0
      vertex 0.353 122.567 0
      vertex 14.396 111.993 0
    endloop
  endfacet
  facet normal 0 0 -1
    outer loop
      vertex 12.31 113.036 0
      vertex 0.353 122.567 0
      vertex 13.174 112.646 0
    endloop
  endfacet
  facet normal 0 0 -1
    outer loop
      vertex 9.816 113.923 0
      vertex 0.353 122.567 0
      vertex 12.31 113.036 0
    endloop
  endfacet
  facet normal 0 0 -1
    outer loop
      vertex 6.963 114.651 0
      vertex 0.353 122.567 0
      vertex 9.816 113.923 0
    endloop
  endfacet
  facet normal 0 0 -1
    outer loop
      vertex 6.339 114.773 0
      vertex 0.353 122.567 0
      vertex 6.963 114.651 0
    endloop
  endfacet
  facet normal 0 0 -1
    outer loop
      vertex 5.713 114.895 0
      vertex 0.353 122.567 0
      vertex 6.339 114.773 0
    endloop
  endfacet
  facet normal 0 0 -1
    outer loop
      vertex 2.968 115.409 0
      vertex 0.353 122.567 0
      vertex 5.713 114.895 0
    endloop
  endfacet
  facet normal 0 0 -1
    outer loop
      vertex 0.725 115.794 0
      vertex 0.353 115.85 0
      vertex 0.353 122.567 0
    endloop
  endfacet
  facet normal 0 0 -1
    outer loop
      vertex 0.725 115.794 0
      vertex 0.353 122.567 0
      vertex 2.968 115.409 0
    endloop
  endfacet
  facet normal 0 0 -1
    outer loop
      vertex 15.704 111.103 0
      vertex 0.353 122.567 0
      vertex 67.446 122.567 0
    endloop
  endfacet
  facet normal 0 0 -1
    outer loop
      vertex 15.704 111.103 0
      vertex 67.446 122.567 0
      vertex 16.678 110.163 0
    endloop
  endfacet
  facet normal 0 0 -1
    outer loop
      vertex 66.985 115.807 0
      vertex 67.446 122.567 0
      vertex 67.446 115.85 0
    endloop
  endfacet
  facet normal 0 0 -1
    outer loop
      vertex 16.678 110.163 0
      vertex 67.446 122.567 0
      vertex 66.985 115.807 0
    endloop
  endfacet
  facet normal 0 0 -1
    outer loop
      vertex 16.678 110.163 0
      vertex 66.985 115.807 0
      vertex 61.568 115.197 0
    endloop
  endfacet
  facet normal 0 0 -1
    outer loop
      vertex 48.843 23.285 0
      vertex 18.03 106.882 0
      vertex 17.476 108.839 0
    endloop
  endfacet
  facet normal 0 0 -1
    outer loop
      vertex 48.843 23.285 0
      vertex 18.267 104.758 0
      vertex 18.03 106.882 0
    endloop
  endfacet
  facet normal 0 0 -1
    outer loop
      vertex 16.678 110.163 0
      vertex 60.944 115.117 0
      vertex 60.318 115.039 0
    endloop
  endfacet
  facet normal 0 0 -1
    outer loop
      vertex 16.678 110.163 0
      vertex 60.318 115.039 0
      vertex 54.9 113.926 0
    endloop
  endfacet
  facet normal 0 0 -1
    outer loop
      vertex 16.678 110.163 0
      vertex 54.9 113.926 0
      vertex 54.441 113.782 0
    endloop
  endfacet
  facet normal 0 0 -1
    outer loop
      vertex 16.678 110.163 0
      vertex 54.441 113.782 0
      vertex 54.047 113.651 0
    endloop
  endfacet
  facet normal 0 0 -1
    outer loop
      vertex 16.678 110.163 0
      vertex 54.047 113.651 0
      vertex 52.9 113.145 0
    endloop
  endfacet
  facet normal 0 0 -1
    outer loop
      vertex 16.678 110.163 0
      vertex 52.9 113.145 0
      vertex 51.641 112.352 0
    endloop
  endfacet
  facet normal 0 0 -1
    outer loop
      vertex 16.678 110.163 0
      vertex 51.641 112.352 0
      vertex 50.661 111.401 0
    endloop
  endfacet
  facet normal 0 0 -1
    outer loop
      vertex 16.678 110.163 0
      vertex 50.661 111.401 0
      vertex 50.1 110.588 0
    endloop
  endfacet
  facet normal 0 0 -1
    outer loop
      vertex 16.678 110.163 0
      vertex 50.1 110.588 0
      vertex 49.962 110.294 0
    endloop
  endfacet
  facet normal 0 0 -1
    outer loop
      vertex 16.678 110.163 0
      vertex 49.962 110.294 0
      vertex 49.775 109.9 0
    endloop
  endfacet
  facet normal 0 0 -1
    outer loop
      vertex 16.678 110.163 0
      vertex 49.775 109.9 0
      vertex 49.122 107.764 0
    endloop
  endfacet
  facet normal 0 0 -1
    outer loop
      vertex 16.678 110.163 0
      vertex 49.122 107.764 0
      vertex 48.843 105.625 0
    endloop
  endfacet
  facet normal 0 0 -1
    outer loop
      vertex 18.267 17.073 0
      vertex 18.267 104.758 0
      vertex 48.843 23.285 0
    endloop
  endfacet
  facet normal 0 0 -1
    outer loop
      vertex 18.267 17.073 0
      vertex 48.843 23.285 0
      vertex 49.036 19.473 0
    endloop
  endfacet
  facet normal 0 0 -1
    outer loop
      vertex 18.267 17.073 0
      vertex 49.036 19.473 0
      vertex 49.488 16.142 0
    endloop
  endfacet
  facet normal 0 0 -1
    outer loop
      vertex 18.267 17.073 0
      vertex 49.488 16.142 0
      vertex 49.618 15.597 0
    endloop
  endfacet
  facet normal 0 0 -1
    outer loop
      vertex 18.267 17.073 0
      vertex 49.618 15.597 0
      vertex 49.709 15.209 0
    endloop
  endfacet
  facet normal 0 0 -1
    outer loop
      vertex 18.267 17.073 0
      vertex 49.709 15.209 0
      vertex 50.096 14.068 0
    endloop
  endfacet
  facet normal 0 0 -1
    outer loop
      vertex 18.267 17.073 0
      vertex 50.096 14.068 0
      vertex 50.759 12.755 0
    endloop
  endfacet
  facet normal 0 0 -1
    outer loop
      vertex 18.267 17.073 0
      vertex 50.759 12.755 0
      vertex 51.603 11.657 0
    endloop
  endfacet
  facet normal 0 0 -1
    outer loop
      vertex 17.966 14.779 0
      vertex 18.267 17.073 0
      vertex 52.354 10.966 0
    endloop
  endfacet
  facet normal 0 0 -1
    outer loop
      vertex 17.966 14.779 0
      vertex 52.354 10.966 0
      vertex 52.633 10.774 0
    endloop
  endfacet
  facet normal 0 0 -1
    outer loop
      vertex 17.966 14.779 0
      vertex 52.633 10.774 0
      vertex 53.005 10.502 0
    endloop
  endfacet
  facet normal 0 0 -1
    outer loop
      vertex 17.966 14.779 0
      vertex 53.005 10.502 0
      vertex 55.312 9.429 0
    endloop
  endfacet
  facet normal 0 0 -1
    outer loop
      vertex 17.966 14.779 0
      vertex 55.312 9.429 0
      vertex 58.208 8.744 0
    endloop
  endfacet
  facet normal 0 0 -1
    outer loop
      vertex 17.966 14.779 0
      vertex 58.208 8.744 0
      vertex 112.922 0.353 0
    endloop
  endfacet
  facet normal 0 0 -1
    outer loop
      vertex 58.208 8.744 0
      vertex 58.877 8.664 0
      vertex 112.922 0.353 0
    endloop
  endfacet
  facet normal 0 0 -1
    outer loop
      vertex 58.877 8.664 0
      vertex 59.544 8.585 0
      vertex 112.922 0.353 0
    endloop
  endfacet
  facet normal 0 0 -1
    outer loop
      vertex 68.369 8.19 0
      vertex 112.922 0.353 0
      vertex 63.645 8.31 0
    endloop
  endfacet
  facet normal 0 0 -1
    outer loop
      vertex 63.645 8.31 0
      vertex 112.922 0.353 0
      vertex 59.544 8.585 0
    endloop
  endfacet
  facet normal 0 0 -1
    outer loop
      vertex 73.291 8.19 0
      vertex 112.922 0.353 0
      vertex 68.369 8.19 0
    endloop
  endfacet
  facet normal 0 0 -1
    outer loop
      vertex 82.252 8.872 0
      vertex 112.922 0.353 0
      vertex 73.291 8.19 0
    endloop
  endfacet
  facet normal 0 0 -1
    outer loop
      vertex 84.42 9.145 0
      vertex 112.922 0.353 0
      vertex 83.337 9.008 0
    endloop
  endfacet
  facet normal 0 0 -1
    outer loop
      vertex 82.252 8.872 0
      vertex 83.337 9.008 0
      vertex 112.922 0.353 0
    endloop
  endfacet
  facet normal 0 0 -1
    outer loop
      vertex 88.923 10.312 0
      vertex 112.922 0.353 0
      vertex 84.42 9.145 0
    endloop
  endfacet
  facet normal 0 0 -1
    outer loop
      vertex 52.354 10.966 0
      vertex 18.267 17.073 0
      vertex 51.603 11.657 0
    endloop
  endfacet
  facet normal 0 0 -1
    outer loop
      vertex 100.912 23.615 0
      vertex 112.922 0.353 0
      vertex 97.127 17.87 0
    endloop
  endfacet
  facet normal 0 0 -1
    outer loop
      vertex 88.923 10.312 0
      vertex 92.207 12.124 0
      vertex 112.922 0.353 0
    endloop
  endfacet
  facet normal 0 0 -1
    outer loop
      vertex 92.207 12.124 0
      vertex 92.681 12.583 0
      vertex 112.922 0.353 0
    endloop
  endfacet
  facet normal 0 0 -1
    outer loop
      vertex 92.681 12.583 0
      vertex 93.413 13.316 0
      vertex 112.922 0.353 0
    endloop
  endfacet
  facet normal 0 0 -1
    outer loop
      vertex 101.681 24.943 0
      vertex 112.922 0.353 0
      vertex 100.912 23.615 0
    endloop
  endfacet
  facet normal 0 0 -1
    outer loop
      vertex 102.449 26.271 0
      vertex 112.922 0.353 0
      vertex 101.681 24.943 0
    endloop
  endfacet
  facet normal 0 0 -1
    outer loop
      vertex 105.826 32.575 0
      vertex 112.922 0.353 0
      vertex 102.449 26.271 0
    endloop
  endfacet
  facet normal 0 0 -1
    outer loop
      vertex 112.922 0.353 0
      vertex 105.826 32.575 0
      vertex 108.585 38.436 0
    endloop
  endfacet
  facet normal 0 0 -1
    outer loop
      vertex 108.585 38.436 0
      vertex 109.045 39.541 0
      vertex 112.922 0.353 0
    endloop
  endfacet
  facet normal 0 0 -1
    outer loop
      vertex 112.922 0.353 0
      vertex 109.045 39.541 0
      vertex 115.332 39.541 0
    endloop
  endfacet
  facet normal 0 0 -1
    outer loop
      vertex 60.944 115.117 0
      vertex 16.678 110.163 0
      vertex 61.568 115.197 0
    endloop
  endfacet
  facet normal 0 0 -1
    outer loop
      vertex 17.195 109.44 0
      vertex 16.678 110.163 0
      vertex 48.843 105.625 0
    endloop
  endfacet
  facet normal 0 0 -1
    outer loop
      vertex 17.319 109.175 0
      vertex 17.195 109.44 0
      vertex 48.843 105.625 0
    endloop
  endfacet
  facet normal 0 0 -1
    outer loop
      vertex 17.476 108.839 0
      vertex 17.319 109.175 0
      vertex 48.843 105.625 0
    endloop
  endfacet
  facet normal 0 0 -1
    outer loop
      vertex 48.843 23.285 0
      vertex 17.476 108.839 0
      vertex 48.843 105.625 0
    endloop
  endfacet
  facet normal 0 0 -1
    outer loop
      vertex 97.127 17.87 0
      vertex 112.922 0.353 0
      vertex 93.413 13.316 0
    endloop
  endfacet
  facet normal -1 0 0
    outer loop
      vertex 0.353 0.353 0
      vertex 0.353 0.353 28
      vertex 0.353 7.071 0
    endloop
  endfacet
  facet normal -1 0 0
    outer loop
      vertex 0.353 7.071 0
      vertex 0.353 0.353 28
      vertex 0.353 7.071 28
    endloop
  endfacet
  facet normal -0.727607 0 0.685994
    outer loop
      vertex 0.353 0.353 28
      vertex 2.23862 2.23862 30
      vertex 0.353 7.071 28
    endloop
  endfacet
  facet normal -0.727607 0 0.685994
    outer loop
      vertex 0.97543 6.50453 28.6602
      vertex 2.23862 2.23862 30
      vertex 2.23862 5.38342 30
    endloop
  endfacet
  facet normal -0.727607 0 0.685994
    outer loop
      vertex 0.854 6.614 28.5314
      vertex 2.23862 2.23862 30
      vertex 0.97543 6.50453 28.6602
    endloop
  endfacet
  facet normal -0.727607 0 0.685994
    outer loop
      vertex 0.353 7.071 28
      vertex 2.23862 2.23862 30
      vertex 0.854 6.614 28.5314
    endloop
  endfacet
  facet normal 0 -0.727607 0.685994
    outer loop
      vertex 2.23862 2.23862 30
      vertex 0.353 0.353 28
      vertex 112.922 0.353 28
    endloop
  endfacet
  facet normal 0 -0.727607 0.685994
    outer loop
      vertex 111.152 2.23862 30
      vertex 2.23862 2.23862 30
      vertex 112.922 0.353 28
    endloop
  endfacet
  facet normal 0.72688 -0.0447019 0.685309
    outer loop
      vertex 113.33 37.6554 30
      vertex 111.152 2.23862 30
      vertex 112.922 0.353 28
    endloop
  endfacet
  facet normal 0.72688 -0.0447019 0.685309
    outer loop
      vertex 115.332 39.541 28
      vertex 113.33 37.6554 30
      vertex 112.922 0.353 28
    endloop
  endfacet
  facet normal 0.998114 -0.0613825 0
    outer loop
      vertex 112.922 0.353 28
      vertex 112.922 0.353 0
      vertex 115.332 39.541 0
    endloop
  endfacet
  facet normal 0.998114 -0.0613825 0
    outer loop
      vertex 115.332 39.541 28
      vertex 112.922 0.353 28
      vertex 115.332 39.541 0
    endloop
  endfacet
  facet normal 0 1 0
    outer loop
      vertex 109.045 39.541 0
      vertex 109.045 39.541 28
      vertex 115.332 39.541 0
    endloop
  endfacet
  facet normal 0 1 0
    outer loop
      vertex 115.332 39.541 0
      vertex 109.045 39.541 28
      vertex 115.332 39.541 28
    endloop
  endfacet
  facet normal -0.9232 0.384319 0
    outer loop
      vertex 108.585 38.436 0
      vertex 108.585 38.436 28
      vertex 109.045 39.541 0
    endloop
  endfacet
  facet normal -0.9232 0.384319 0
    outer loop
      vertex 109.045 39.541 0
      vertex 108.585 38.436 28
      vertex 109.045 39.541 28
    endloop
  endfacet
  facet normal -0.904766 0.425909 0
    outer loop
      vertex 105.826 32.575 0
      vertex 105.826 32.575 28
      vertex 108.585 38.436 0
    endloop
  endfacet
  facet normal -0.904766 0.425909 0
    outer loop
      vertex 108.585 38.436 0
      vertex 105.826 32.575 28
      vertex 108.585 38.436 28
    endloop
  endfacet
  facet normal -0.881488 0.472206 0
    outer loop
      vertex 102.449 26.271 0
      vertex 102.449 26.271 28
      vertex 105.826 32.575 0
    endloop
  endfacet
  facet normal -0.881488 0.472206 0
    outer loop
      vertex 105.826 32.575 0
      vertex 102.449 26.271 28
      vertex 105.826 32.575 28
    endloop
  endfacet
  facet normal -0.865664 0.500625 0
    outer loop
      vertex 101.681 24.943 0
      vertex 101.681 24.943 28
      vertex 102.449 26.271 0
    endloop
  endfacet
  facet normal -0.865664 0.500625 0
    outer loop
      vertex 102.449 26.271 0
      vertex 101.681 24.943 28
      vertex 102.449 26.271 28
    endloop
  endfacet
  facet normal -0.865382 0.501113 0
    outer loop
      vertex 100.912 23.615 0
      vertex 100.912 23.615 28
      vertex 101.681 24.943 0
    endloop
  endfacet
  facet normal -0.865382 0.501113 0
    outer loop
      vertex 101.681 24.943 0
      vertex 100.912 23.615 28
      vertex 101.681 24.943 28
    endloop
  endfacet
  facet normal -0.835057 0.550164 0
    outer loop
      vertex 97.127 17.87 0
      vertex 97.127 17.87 28
      vertex 100.912 23.615 0
    endloop
  endfacet
  facet normal -0.835057 0.550164 0
    outer loop
      vertex 100.912 23.615 0
      vertex 97.127 17.87 28
      vertex 100.912 23.615 28
    endloop
  endfacet
  facet normal -0.774957 0.632014 0
    outer loop
      vertex 93.413 13.316 0
      vertex 93.413 13.316 28
      vertex 97.127 17.87 0
    endloop
  endfacet
  facet normal -0.774957 0.632014 0
    outer loop
      vertex 97.127 17.87 0
      vertex 93.413 13.316 28
      vertex 97.127 17.87 28
    endloop
  endfacet
  facet normal -0.707589 0.706624 0
    outer loop
      vertex 92.681 12.583 0
      vertex 92.681 12.583 28
      vertex 93.413 13.316 0
    endloop
  endfacet
  facet normal -0.707589 0.706624 0
    outer loop
      vertex 93.413 13.316 0
      vertex 92.681 12.583 28
      vertex 93.413 13.316 28
    endloop
  endfacet
  facet normal -0.695649 0.718382 0
    outer loop
      vertex 92.207 12.124 0
      vertex 92.207 12.124 28
      vertex 92.681 12.583 0
    endloop
  endfacet
  facet normal -0.695649 0.718382 0
    outer loop
      vertex 92.681 12.583 0
      vertex 92.207 12.124 28
      vertex 92.681 12.583 28
    endloop
  endfacet
  facet normal -0.483106 0.875562 0
    outer loop
      vertex 88.923 10.312 0
      vertex 88.923 10.312 28
      vertex 92.207 12.124 0
    endloop
  endfacet
  facet normal -0.483106 0.875562 0
    outer loop
      vertex 92.207 12.124 0
      vertex 88.923 10.312 28
      vertex 92.207 12.124 28
    endloop
  endfacet
  facet normal -0.250873 0.96802 0
    outer loop
      vertex 84.42 9.145 0
      vertex 84.42 9.145 28
      vertex 88.923 10.312 0
    endloop
  endfacet
  facet normal -0.250873 0.96802 0
    outer loop
      vertex 88.923 10.312 0
      vertex 84.42 9.145 28
      vertex 88.923 10.312 28
    endloop
  endfacet
  facet normal -0.1255 0.992094 0
    outer loop
      vertex 83.337 9.008 0
      vertex 83.337 9.008 28
      vertex 84.42 9.145 0
    endloop
  endfacet
  facet normal -0.1255 0.992094 0
    outer loop
      vertex 84.42 9.145 0
      vertex 83.337 9.008 28
      vertex 84.42 9.145 28
    endloop
  endfacet
  facet normal -0.124372 0.992236 0
    outer loop
      vertex 82.252 8.872 0
      vertex 82.252 8.872 28
      vertex 83.337 9.008 0
    endloop
  endfacet
  facet normal -0.124372 0.992236 0
    outer loop
      vertex 83.337 9.008 0
      vertex 82.252 8.872 28
      vertex 83.337 9.008 28
    endloop
  endfacet
  facet normal -0.0758881 0.997116 0
    outer loop
      vertex 73.291 8.19 0
      vertex 73.291 8.19 28
      vertex 82.252 8.872 0
    endloop
  endfacet
  facet normal -0.0758881 0.997116 0
    outer loop
      vertex 82.252 8.872 0
      vertex 73.291 8.19 28
      vertex 82.252 8.872 28
    endloop
  endfacet
  facet normal 0 1 0
    outer loop
      vertex 68.369 8.19 0
      vertex 68.369 8.19 28
      vertex 73.291 8.19 0
    endloop
  endfacet
  facet normal 0 1 0
    outer loop
      vertex 73.291 8.19 0
      vertex 68.369 8.19 28
      vertex 73.291 8.19 28
    endloop
  endfacet
  facet normal 0.025394 0.999678 0
    outer loop
      vertex 63.645 8.31 0
      vertex 63.645 8.31 28
      vertex 68.369 8.19 0
    endloop
  endfacet
  facet normal 0.025394 0.999678 0
    outer loop
      vertex 68.369 8.19 0
      vertex 63.645 8.31 28
      vertex 68.369 8.19 28
    endloop
  endfacet
  facet normal 0.0669066 0.997759 0
    outer loop
      vertex 59.544 8.585 0
      vertex 59.544 8.585 28
      vertex 63.645 8.31 0
    endloop
  endfacet
  facet normal 0.0669066 0.997759 0
    outer loop
      vertex 63.645 8.31 0
      vertex 59.544 8.585 28
      vertex 63.645 8.31 28
    endloop
  endfacet
  facet normal 0.117619 0.993059 0
    outer loop
      vertex 58.877 8.664 0
      vertex 58.877 8.664 28
      vertex 59.544 8.585 0
    endloop
  endfacet
  facet normal 0.117619 0.993059 0
    outer loop
      vertex 59.544 8.585 0
      vertex 58.877 8.664 28
      vertex 59.544 8.585 28
    endloop
  endfacet
  facet normal 0.118736 0.992926 0
    outer loop
      vertex 58.208 8.744 0
      vertex 58.208 8.744 28
      vertex 58.877 8.664 0
    endloop
  endfacet
  facet normal 0.118736 0.992926 0
    outer loop
      vertex 58.877 8.664 0
      vertex 58.208 8.744 28
      vertex 58.877 8.664 28
    endloop
  endfacet
  facet normal 0.230182 0.973148 0
    outer loop
      vertex 55.312 9.429 0
      vertex 55.312 9.429 28
      vertex 58.208 8.744 0
    endloop
  endfacet
  facet normal 0.230182 0.973148 0
    outer loop
      vertex 58.208 8.744 0
      vertex 55.312 9.429 28
      vertex 58.208 8.744 28
    endloop
  endfacet
  facet normal 0.421723 0.906725 0
    outer loop
      vertex 53.005 10.502 0
      vertex 53.005 10.502 28
      vertex 55.312 9.429 0
    endloop
  endfacet
  facet normal 0.421723 0.906725 0
    outer loop
      vertex 55.312 9.429 0
      vertex 53.005 10.502 28
      vertex 55.312 9.429 28
    endloop
  endfacet
  facet normal 0.590234 0.807232 0
    outer loop
      vertex 52.633 10.774 0
      vertex 52.633 10.774 28
      vertex 53.005 10.502 0
    endloop
  endfacet
  facet normal 0.590234 0.807232 0
    outer loop
      vertex 53.005 10.502 0
      vertex 52.633 10.774 28
      vertex 53.005 10.502 28
    endloop
  endfacet
  facet normal 0.566905 0.823783 0
    outer loop
      vertex 52.354 10.966 0
      vertex 52.354 10.966 28
      vertex 52.633 10.774 0
    endloop
  endfacet
  facet normal 0.566905 0.823783 0
    outer loop
      vertex 52.633 10.774 0
      vertex 52.354 10.966 28
      vertex 52.633 10.774 28
    endloop
  endfacet
  facet normal 0.677099 0.735892 0
    outer loop
      vertex 51.603 11.657 0
      vertex 51.603 11.657 28
      vertex 52.354 10.966 0
    endloop
  endfacet
  facet normal 0.677099 0.735892 0
    outer loop
      vertex 52.354 10.966 0
      vertex 51.603 11.657 28
      vertex 52.354 10.966 28
    endloop
  endfacet
  facet normal 0.792839 0.609432 0
    outer loop
      vertex 51.603 11.657 0
      vertex 50.759 12.755 0
      vertex 50.759 12.755 28
    endloop
  endfacet
  facet normal 0.792839 0.609432 0
    outer loop
      vertex 51.603 11.657 28
      vertex 51.603 11.657 0
      vertex 50.759 12.755 28
    endloop
  endfacet
  facet normal 0.892653 0.450745 0
    outer loop
      vertex 50.759 12.755 0
      vertex 50.096 14.068 0
      vertex 50.096 14.068 28
    endloop
  endfacet
  facet normal 0.892653 0.450745 0
    outer loop
      vertex 50.759 12.755 28
      vertex 50.759 12.755 0
      vertex 50.096 14.068 28
    endloop
  endfacet
  facet normal 0.94701 0.321203 0
    outer loop
      vertex 50.096 14.068 0
      vertex 49.709 15.209 0
      vertex 49.709 15.209 28
    endloop
  endfacet
  facet normal 0.94701 0.321203 0
    outer loop
      vertex 50.096 14.068 28
      vertex 50.096 14.068 0
      vertex 49.709 15.209 28
    endloop
  endfacet
  facet normal 0.973581 0.22834 0
    outer loop
      vertex 49.709 15.209 0
      vertex 49.618 15.597 0
      vertex 49.618 15.597 28
    endloop
  endfacet
  facet normal 0.973581 0.22834 0
    outer loop
      vertex 49.709 15.209 28
      vertex 49.709 15.209 0
      vertex 49.618 15.597 28
    endloop
  endfacet
  facet normal 0.97271 0.232023 0
    outer loop
      vertex 49.618 15.597 0
      vertex 49.488 16.142 0
      vertex 49.488 16.142 28
    endloop
  endfacet
  facet normal 0.97271 0.232023 0
    outer loop
      vertex 49.618 15.597 28
      vertex 49.618 15.597 0
      vertex 49.488 16.142 28
    endloop
  endfacet
  facet normal 0.990919 0.134463 0
    outer loop
      vertex 49.488 16.142 0
      vertex 49.036 19.473 0
      vertex 49.036 19.473 28
    endloop
  endfacet
  facet normal 0.990919 0.134463 0
    outer loop
      vertex 49.488 16.142 28
      vertex 49.488 16.142 0
      vertex 49.036 19.473 28
    endloop
  endfacet
  facet normal 0.998721 0.0505648 0
    outer loop
      vertex 49.036 19.473 0
      vertex 48.843 23.285 0
      vertex 48.843 23.285 28
    endloop
  endfacet
  facet normal 0.998721 0.0505648 0
    outer loop
      vertex 49.036 19.473 28
      vertex 49.036 19.473 0
      vertex 48.843 23.285 28
    endloop
  endfacet
  facet normal 1 0 0
    outer loop
      vertex 48.843 23.285 28
      vertex 48.843 23.285 0
      vertex 48.843 105.625 0
    endloop
  endfacet
  facet normal 1 0 0
    outer loop
      vertex 48.843 105.625 28
      vertex 48.843 23.285 28
      vertex 48.843 105.625 0
    endloop
  endfacet
  facet normal 0.9916 -0.129339 0
    outer loop
      vertex 48.843 105.625 28
      vertex 48.843 105.625 0
      vertex 49.122 107.764 0
    endloop
  endfacet
  facet normal 0.9916 -0.129339 0
    outer loop
      vertex 49.122 107.764 28
      vertex 48.843 105.625 28
      vertex 49.122 107.764 0
    endloop
  endfacet
  facet normal 0.95631 -0.292355 0
    outer loop
      vertex 49.122 107.764 28
      vertex 49.122 107.764 0
      vertex 49.775 109.9 0
    endloop
  endfacet
  facet normal 0.95631 -0.292355 0
    outer loop
      vertex 49.775 109.9 28
      vertex 49.122 107.764 28
      vertex 49.775 109.9 0
    endloop
  endfacet
  facet normal 0.903411 -0.428776 0
    outer loop
      vertex 49.775 109.9 28
      vertex 49.775 109.9 0
      vertex 49.962 110.294 0
    endloop
  endfacet
  facet normal 0.903411 -0.428776 0
    outer loop
      vertex 49.962 110.294 28
      vertex 49.775 109.9 28
      vertex 49.962 110.294 0
    endloop
  endfacet
  facet normal 0.905237 -0.424907 0
    outer loop
      vertex 49.962 110.294 28
      vertex 49.962 110.294 0
      vertex 50.1 110.588 0
    endloop
  endfacet
  facet normal 0.905237 -0.424907 0
    outer loop
      vertex 50.1 110.588 28
      vertex 49.962 110.294 28
      vertex 50.1 110.588 0
    endloop
  endfacet
  facet normal 0.823066 -0.567946 0
    outer loop
      vertex 50.1 110.588 28
      vertex 50.1 110.588 0
      vertex 50.661 111.401 0
    endloop
  endfacet
  facet normal 0.823066 -0.567946 0
    outer loop
      vertex 50.661 111.401 28
      vertex 50.1 110.588 28
      vertex 50.661 111.401 0
    endloop
  endfacet
  facet normal 0.696409 -0.717645 0
    outer loop
      vertex 50.661 111.401 28
      vertex 50.661 111.401 0
      vertex 51.641 112.352 0
    endloop
  endfacet
  facet normal 0.696409 -0.717645 0
    outer loop
      vertex 51.641 112.352 28
      vertex 50.661 111.401 28
      vertex 51.641 112.352 0
    endloop
  endfacet
  facet normal 0.532956 -0.846143 0
    outer loop
      vertex 51.641 112.352 28
      vertex 51.641 112.352 0
      vertex 52.9 113.145 0
    endloop
  endfacet
  facet normal 0.532956 -0.846143 0
    outer loop
      vertex 52.9 113.145 28
      vertex 51.641 112.352 28
      vertex 52.9 113.145 0
    endloop
  endfacet
  facet normal 0.403621 -0.914926 0
    outer loop
      vertex 52.9 113.145 28
      vertex 52.9 113.145 0
      vertex 54.047 113.651 0
    endloop
  endfacet
  facet normal 0.403621 -0.914926 0
    outer loop
      vertex 54.047 113.651 28
      vertex 52.9 113.145 28
      vertex 54.047 113.651 0
    endloop
  endfacet
  facet normal 0.315505 -0.948924 0
    outer loop
      vertex 54.047 113.651 28
      vertex 54.047 113.651 0
      vertex 54.441 113.782 0
    endloop
  endfacet
  facet normal 0.315505 -0.948924 0
    outer loop
      vertex 54.441 113.782 28
      vertex 54.047 113.651 28
      vertex 54.441 113.782 0
    endloop
  endfacet
  facet normal 0.29934 -0.954146 0
    outer loop
      vertex 54.441 113.782 28
      vertex 54.441 113.782 0
      vertex 54.9 113.926 0
    endloop
  endfacet
  facet normal 0.29934 -0.954146 0
    outer loop
      vertex 54.9 113.926 28
      vertex 54.441 113.782 28
      vertex 54.9 113.926 0
    endloop
  endfacet
  facet normal 0.201224 -0.979545 0
    outer loop
      vertex 54.9 113.926 28
      vertex 54.9 113.926 0
      vertex 60.318 115.039 0
    endloop
  endfacet
  facet normal 0.201224 -0.979545 0
    outer loop
      vertex 60.318 115.039 28
      vertex 54.9 113.926 28
      vertex 60.318 115.039 0
    endloop
  endfacet
  facet normal 0.123645 -0.992327 0
    outer loop
      vertex 60.318 115.039 28
      vertex 60.318 115.039 0
      vertex 60.944 115.117 0
    endloop
  endfacet
  facet normal 0.123645 -0.992327 0
    outer loop
      vertex 60.944 115.117 28
      vertex 60.318 115.039 28
      vertex 60.944 115.117 0
    endloop
  endfacet
  facet normal 0.127164 -0.991882 0
    outer loop
      vertex 60.944 115.117 28
      vertex 60.944 115.117 0
      vertex 61.568 115.197 0
    endloop
  endfacet
  facet normal 0.127164 -0.991882 0
    outer loop
      vertex 61.568 115.197 28
      vertex 60.944 115.117 28
      vertex 61.568 115.197 0
    endloop
  endfacet
  facet normal 0.111901 -0.993719 0
    outer loop
      vertex 61.568 115.197 28
      vertex 61.568 115.197 0
      vertex 66.985 115.807 0
    endloop
  endfacet
  facet normal 0.111901 -0.993719 0
    outer loop
      vertex 66.985 115.807 28
      vertex 61.568 115.197 28
      vertex 66.985 115.807 0
    endloop
  endfacet
  facet normal 0.0928724 -0.995678 0
    outer loop
      vertex 66.985 115.807 28
      vertex 66.985 115.807 0
      vertex 67.446 115.85 0
    endloop
  endfacet
  facet normal 0.0928724 -0.995678 0
    outer loop
      vertex 67.446 115.85 28
      vertex 66.985 115.807 28
      vertex 67.446 115.85 0
    endloop
  endfacet
  facet normal 1 0 0
    outer loop
      vertex 67.446 115.85 28
      vertex 67.446 115.85 0
      vertex 67.446 122.567 0
    endloop
  endfacet
  facet normal 1 0 0
    outer loop
      vertex 67.446 122.567 28
      vertex 67.446 115.85 28
      vertex 67.446 122.567 0
    endloop
  endfacet
  facet normal 0 1 0
    outer loop
      vertex 0.353 122.567 0
      vertex 0.353 122.567 28
      vertex 67.446 122.567 0
    endloop
  endfacet
  facet normal 0 1 0
    outer loop
      vertex 67.446 122.567 0
      vertex 0.353 122.567 28
      vertex 67.446 122.567 28
    endloop
  endfacet
  facet normal -1 0 0
    outer loop
      vertex 0.353 115.85 0
      vertex 0.353 115.85 28
      vertex 0.353 122.567 0
    endloop
  endfacet
  facet normal -1 0 0
    outer loop
      vertex 0.353 122.567 0
      vertex 0.353 115.85 28
      vertex 0.353 122.567 28
    endloop
  endfacet
  facet normal -0.14886 -0.988858 0
    outer loop
      vertex 0.353 115.85 28
      vertex 0.353 115.85 0
      vertex 0.725 115.794 0
    endloop
  endfacet
  facet normal -0.14886 -0.988858 0
    outer loop
      vertex 0.725 115.794 28
      vertex 0.353 115.85 28
      vertex 0.725 115.794 0
    endloop
  endfacet
  facet normal -0.169171 -0.985587 0
    outer loop
      vertex 0.725 115.794 28
      vertex 0.725 115.794 0
      vertex 2.968 115.409 0
    endloop
  endfacet
  facet normal -0.169171 -0.985587 0
    outer loop
      vertex 2.968 115.409 28
      vertex 0.725 115.794 28
      vertex 2.968 115.409 0
    endloop
  endfacet
  facet normal -0.184051 -0.982917 0
    outer loop
      vertex 2.968 115.409 28
      vertex 2.968 115.409 0
      vertex 5.713 114.895 0
    endloop
  endfacet
  facet normal -0.184051 -0.982917 0
    outer loop
      vertex 5.713 114.895 28
      vertex 2.968 115.409 28
      vertex 5.713 114.895 0
    endloop
  endfacet
  facet normal -0.191289 -0.981534 0
    outer loop
      vertex 5.713 114.895 28
      vertex 5.713 114.895 0
      vertex 6.339 114.773 0
    endloop
  endfacet
  facet normal -0.191289 -0.981534 0
    outer loop
      vertex 6.339 114.773 28
      vertex 5.713 114.895 28
      vertex 6.339 114.773 0
    endloop
  endfacet
  facet normal -0.19188 -0.981418 0
    outer loop
      vertex 6.339 114.773 28
      vertex 6.339 114.773 0
      vertex 6.963 114.651 0
    endloop
  endfacet
  facet normal -0.19188 -0.981418 0
    outer loop
      vertex 6.963 114.651 28
      vertex 6.339 114.773 28
      vertex 6.963 114.651 0
    endloop
  endfacet
  facet normal -0.247248 -0.968952 0
    outer loop
      vertex 6.963 114.651 28
      vertex 6.963 114.651 0
      vertex 9.816 113.923 0
    endloop
  endfacet
  facet normal -0.247248 -0.968952 0
    outer loop
      vertex 9.816 113.923 28
      vertex 6.963 114.651 28
      vertex 9.816 113.923 0
    endloop
  endfacet
  facet normal -0.335092 -0.942186 0
    outer loop
      vertex 9.816 113.923 28
      vertex 9.816 113.923 0
      vertex 12.31 113.036 0
    endloop
  endfacet
  facet normal -0.335092 -0.942186 0
    outer loop
      vertex 12.31 113.036 28
      vertex 9.816 113.923 28
      vertex 12.31 113.036 0
    endloop
  endfacet
  facet normal -0.411642 -0.911346 0
    outer loop
      vertex 12.31 113.036 28
      vertex 12.31 113.036 0
      vertex 12.755 112.835 0
    endloop
  endfacet
  facet normal -0.411642 -0.911346 0
    outer loop
      vertex 12.755 112.835 28
      vertex 12.31 113.036 28
      vertex 12.755 112.835 0
    endloop
  endfacet
  facet normal -0.411179 -0.911555 0
    outer loop
      vertex 12.755 112.835 28
      vertex 12.755 112.835 0
      vertex 13.174 112.646 0
    endloop
  endfacet
  facet normal -0.411179 -0.911555 0
    outer loop
      vertex 13.174 112.646 28
      vertex 12.755 112.835 28
      vertex 13.174 112.646 0
    endloop
  endfacet
  facet normal -0.4713 -0.881973 0
    outer loop
      vertex 13.174 112.646 28
      vertex 13.174 112.646 0
      vertex 14.396 111.993 0
    endloop
  endfacet
  facet normal -0.4713 -0.881973 0
    outer loop
      vertex 14.396 111.993 28
      vertex 13.174 112.646 28
      vertex 14.396 111.993 0
    endloop
  endfacet
  facet normal -0.562552 -0.826762 0
    outer loop
      vertex 14.396 111.993 28
      vertex 14.396 111.993 0
      vertex 15.704 111.103 0
    endloop
  endfacet
  facet normal -0.562552 -0.826762 0
    outer loop
      vertex 15.704 111.103 28
      vertex 14.396 111.993 28
      vertex 15.704 111.103 0
    endloop
  endfacet
  facet normal -0.694436 -0.719554 0
    outer loop
      vertex 15.704 111.103 28
      vertex 15.704 111.103 0
      vertex 16.678 110.163 0
    endloop
  endfacet
  facet normal -0.694436 -0.719554 0
    outer loop
      vertex 16.678 110.163 28
      vertex 15.704 111.103 28
      vertex 16.678 110.163 0
    endloop
  endfacet
  facet normal -0.813429 -0.581664 0
    outer loop
      vertex 16.678 110.163 0
      vertex 17.195 109.44 0
      vertex 16.678 110.163 28
    endloop
  endfacet
  facet normal -0.813429 -0.581664 0
    outer loop
      vertex 16.678 110.163 28
      vertex 17.195 109.44 0
      vertex 17.195 109.44 28
    endloop
  endfacet
  facet normal -0.905746 -0.423821 0
    outer loop
      vertex 17.195 109.44 0
      vertex 17.319 109.175 0
      vertex 17.195 109.44 28
    endloop
  endfacet
  facet normal -0.905746 -0.423821 0
    outer loop
      vertex 17.195 109.44 28
      vertex 17.319 109.175 0
      vertex 17.319 109.175 28
    endloop
  endfacet
  facet normal -0.905976 -0.423328 0
    outer loop
      vertex 17.319 109.175 0
      vertex 17.476 108.839 0
      vertex 17.319 109.175 28
    endloop
  endfacet
  facet normal -0.905976 -0.423328 0
    outer loop
      vertex 17.319 109.175 28
      vertex 17.476 108.839 0
      vertex 17.476 108.839 28
    endloop
  endfacet
  facet normal -0.962189 -0.272383 0
    outer loop
      vertex 17.476 108.839 0
      vertex 18.03 106.882 0
      vertex 17.476 108.839 28
    endloop
  endfacet
  facet normal -0.962189 -0.272383 0
    outer loop
      vertex 17.476 108.839 28
      vertex 18.03 106.882 0
      vertex 18.03 106.882 28
    endloop
  endfacet
  facet normal -0.993832 -0.110894 0
    outer loop
      vertex 18.03 106.882 0
      vertex 18.267 104.758 0
      vertex 18.03 106.882 28
    endloop
  endfacet
  facet normal -0.993832 -0.110894 0
    outer loop
      vertex 18.03 106.882 28
      vertex 18.267 104.758 0
      vertex 18.267 104.758 28
    endloop
  endfacet
  facet normal -1 0 0
    outer loop
      vertex 18.267 17.073 0
      vertex 18.267 17.073 28
      vertex 18.267 104.758 0
    endloop
  endfacet
  facet normal -1 0 0
    outer loop
      vertex 18.267 104.758 0
      vertex 18.267 17.073 28
      vertex 18.267 104.758 28
    endloop
  endfacet
  facet normal -0.991501 0.130097 0
    outer loop
      vertex 17.966 14.779 0
      vertex 17.966 14.779 28
      vertex 18.267 17.073 0
    endloop
  endfacet
  facet normal -0.991501 0.130097 0
    outer loop
      vertex 18.267 17.073 0
      vertex 17.966 14.779 28
      vertex 18.267 17.073 28
    endloop
  endfacet
  facet normal -0.947775 0.318941 0
    outer loop
      vertex 17.261 12.684 0
      vertex 17.261 12.684 28
      vertex 17.966 14.779 0
    endloop
  endfacet
  facet normal -0.947775 0.318941 0
    outer loop
      vertex 17.966 14.779 0
      vertex 17.261 12.684 28
      vertex 17.966 14.779 28
    endloop
  endfacet
  facet normal -0.875187 0.483784 0
    outer loop
      vertex 17.062 12.324 0
      vertex 17.062 12.324 28
      vertex 17.261 12.684 0
    endloop
  endfacet
  facet normal -0.875187 0.483784 0
    outer loop
      vertex 17.261 12.684 0
      vertex 17.062 12.324 28
      vertex 17.261 12.684 28
    endloop
  endfacet
  facet normal -0.871403 0.490568 0
    outer loop
      vertex 16.91 12.054 0
      vertex 16.91 12.054 28
      vertex 17.062 12.324 0
    endloop
  endfacet
  facet normal -0.871403 0.490568 0
    outer loop
      vertex 17.062 12.324 0
      vertex 16.91 12.054 28
      vertex 17.062 12.324 28
    endloop
  endfacet
  facet normal -0.794086 0.607806 0
    outer loop
      vertex 16.339 11.308 0
      vertex 16.339 11.308 28
      vertex 16.91 12.054 0
    endloop
  endfacet
  facet normal -0.794086 0.607806 0
    outer loop
      vertex 16.91 12.054 0
      vertex 16.339 11.308 28
      vertex 16.91 12.054 28
    endloop
  endfacet
  facet normal -0.68508 0.728468 0
    outer loop
      vertex 15.382 10.408 0
      vertex 15.382 10.408 28
      vertex 16.339 11.308 0
    endloop
  endfacet
  facet normal -0.68508 0.728468 0
    outer loop
      vertex 16.339 11.308 0
      vertex 15.382 10.408 28
      vertex 16.339 11.308 28
    endloop
  endfacet
  facet normal -0.546588 0.837401 0
    outer loop
      vertex 14.187 9.628 0
      vertex 14.187 9.628 28
      vertex 15.382 10.408 0
    endloop
  endfacet
  facet normal -0.546588 0.837401 0
    outer loop
      vertex 15.382 10.408 0
      vertex 14.187 9.628 28
      vertex 15.382 10.408 28
    endloop
  endfacet
  facet normal -0.438074 0.898939 0
    outer loop
      vertex 13.122 9.109 0
      vertex 13.122 9.109 28
      vertex 14.187 9.628 0
    endloop
  endfacet
  facet normal -0.438074 0.898939 0
    outer loop
      vertex 14.187 9.628 0
      vertex 13.122 9.109 28
      vertex 14.187 9.628 28
    endloop
  endfacet
  facet normal -0.363059 0.931766 0
    outer loop
      vertex 12.755 8.966 0
      vertex 12.755 8.966 28
      vertex 13.122 9.109 0
    endloop
  endfacet
  facet normal -0.363059 0.931766 0
    outer loop
      vertex 13.122 9.109 0
      vertex 12.755 8.966 28
      vertex 13.122 9.109 28
    endloop
  endfacet
  facet normal -0.369907 0.929069 0
    outer loop
      vertex 12.539 8.88 0
      vertex 12.539 8.88 28
      vertex 12.755 8.966 0
    endloop
  endfacet
  facet normal -0.369907 0.929069 0
    outer loop
      vertex 12.755 8.966 0
      vertex 12.539 8.88 28
      vertex 12.755 8.966 28
    endloop
  endfacet
  facet normal -0.242406 0.970175 0
    outer loop
      vertex 10.774 8.439 0
      vertex 10.774 8.439 28
      vertex 12.539 8.88 0
    endloop
  endfacet
  facet normal -0.242406 0.970175 0
    outer loop
      vertex 12.539 8.88 0
      vertex 10.774 8.439 28
      vertex 12.539 8.88 28
    endloop
  endfacet
  facet normal -0.167435 0.985883 0
    outer loop
      vertex 8.089 7.983 0
      vertex 8.089 7.983 28
      vertex 10.774 8.439 0
    endloop
  endfacet
  facet normal -0.167435 0.985883 0
    outer loop
      vertex 10.774 8.439 0
      vertex 8.089 7.983 28
      vertex 10.774 8.439 28
    endloop
  endfacet
  facet normal -0.138129 0.990414 0
    outer loop
      vertex 7.415 7.889 0
      vertex 7.415 7.889 28
      vertex 8.089 7.983 0
    endloop
  endfacet
  facet normal -0.138129 0.990414 0
    outer loop
      vertex 8.089 7.983 0
      vertex 7.415 7.889 28
      vertex 8.089 7.983 28
    endloop
  endfacet
  facet normal -0.135048 0.990839 0
    outer loop
      vertex 6.74 7.797 0
      vertex 6.74 7.797 28
      vertex 7.415 7.889 0
    endloop
  endfacet
  facet normal -0.135048 0.990839 0
    outer loop
      vertex 7.415 7.889 0
      vertex 6.74 7.797 28
      vertex 7.415 7.889 28
    endloop
  endfacet
  facet normal -0.115098 0.993354 0
    outer loop
      vertex 0.854 7.115 0
      vertex 0.854 7.115 28
      vertex 6.74 7.797 0
    endloop
  endfacet
  facet normal -0.115098 0.993354 0
    outer loop
      vertex 6.74 7.797 0
      vertex 0.854 7.115 28
      vertex 6.74 7.797 28
    endloop
  endfacet
  facet normal -0.0874876 0.996166 0
    outer loop
      vertex 0.353 7.071 0
      vertex 0.353 7.071 28
      vertex 0.854 7.115 0
    endloop
  endfacet
  facet normal -0.0874876 0.996166 0
    outer loop
      vertex 0.854 7.115 0
      vertex 0.353 7.071 28
      vertex 0.854 7.115 28
    endloop
  endfacet
  facet normal -0.0637715 0.726126 0.684598
    outer loop
      vertex 0.854 7.115 28
      vertex 0.353 7.071 28
      vertex 0.854 6.614 28.5314
    endloop
  endfacet
  facet normal -0.0714791 0.725746 0.68424
    outer loop
      vertex 0.854 7.115 28
      vertex 0.854 6.614 28.5314
      vertex 0.97543 6.50453 28.6602
    endloop
  endfacet
  facet normal -0.0838755 0.723887 0.684801
    outer loop
      vertex 0.854 7.115 28
      vertex 0.97543 6.50453 28.6602
      vertex 6.74 7.797 28
    endloop
  endfacet
  facet normal -0.0838755 0.723887 0.684801
    outer loop
      vertex 6.74 7.797 28
      vertex 0.97543 6.50453 28.6602
      vertex 2.23862 5.38342 30
    endloop
  endfacet
  facet normal -0.0838755 0.723887 0.684801
    outer loop
      vertex 6.74 7.797 28
      vertex 2.23862 5.38342 30
      vertex 7.10787 5.94761 30
    endloop
  endfacet
  facet normal 0 0 1
    outer loop
      vertex 2.23862 5.38342 30
      vertex 2.23862 2.23862 30
      vertex 111.152 2.23862 30
    endloop
  endfacet
  facet normal 0 0 1
    outer loop
      vertex 73.291 6.30438 30
      vertex 2.23862 5.38342 30
      vertex 111.152 2.23862 30
    endloop
  endfacet
  facet normal 0 0 1
    outer loop
      vertex 113.33 37.6554 30
      vertex 107.568 31.8534 30
      vertex 111.152 2.23862 30
    endloop
  endfacet
  facet normal 0 0 1
    outer loop
      vertex 20.1526 104.758 30
      vertex 46.9574 105.625 30
      vertex 46.9936 105.993 30
    endloop
  endfacet
  facet normal 0 0 1
    outer loop
      vertex 107.568 31.8534 30
      vertex 107.394 31.5274 30
      vertex 111.152 2.23862 30
    endloop
  endfacet
  facet normal 0 0 1
    outer loop
      vertex 20.1526 104.758 30
      vertex 20.1526 17.073 30
      vertex 46.9574 105.625 30
    endloop
  endfacet
  facet normal 0 0 1
    outer loop
      vertex 107.394 31.5274 30
      vertex 104.017 25.2234 30
      vertex 111.152 2.23862 30
    endloop
  endfacet
  facet normal 0 0 1
    outer loop
      vertex 104.017 25.2234 30
      vertex 103.249 23.8954 30
      vertex 111.152 2.23862 30
    endloop
  endfacet
  facet normal 0 0 1
    outer loop
      vertex 103.249 23.8954 30
      vertex 102.48 22.5674 30
      vertex 111.152 2.23862 30
    endloop
  endfacet
  facet normal 0 0 1
    outer loop
      vertex 102.48 22.5674 30
      vertex 98.6948 16.8224 30
      vertex 111.152 2.23862 30
    endloop
  endfacet
  facet normal 0 0 1
    outer loop
      vertex 98.6948 16.8224 30
      vertex 94.9808 12.2684 30
      vertex 111.152 2.23862 30
    endloop
  endfacet
  facet normal 0 0 1
    outer loop
      vertex 94.9808 12.2684 30
      vertex 94.7463 11.9827 30
      vertex 111.152 2.23862 30
    endloop
  endfacet
  facet normal 0 0 1
    outer loop
      vertex 94.7463 11.9827 30
      vertex 94.0143 11.2497 30
      vertex 111.152 2.23862 30
    endloop
  endfacet
  facet normal 0 0 1
    outer loop
      vertex 94.0143 11.2497 30
      vertex 93.5403 10.7907 30
      vertex 111.152 2.23862 30
    endloop
  endfacet
  facet normal 0 0 1
    outer loop
      vertex 52.2834 8.75992 30
      vertex 51.9574 8.93417 30
      vertex 2.23862 5.38342 30
    endloop
  endfacet
  facet normal 0 0 1
    outer loop
      vertex 93.5403 10.7907 30
      vertex 93.2546 10.5562 30
      vertex 111.152 2.23862 30
    endloop
  endfacet
  facet normal 0 0 1
    outer loop
      vertex 50.0352 10.6094 30
      vertex 8.45687 6.13361 30
      vertex 7.78287 6.03961 30
    endloop
  endfacet
  facet normal 0 0 1
    outer loop
      vertex 93.2546 10.5562 30
      vertex 89.9706 8.74417 30
      vertex 111.152 2.23862 30
    endloop
  endfacet
  facet normal 0 0 1
    outer loop
      vertex 89.9706 8.74417 30
      vertex 89.6446 8.56992 30
      vertex 111.152 2.23862 30
    endloop
  endfacet
  facet normal 0 0 1
    outer loop
      vertex 89.6446 8.56992 30
      vertex 89.2909 8.46261 30
      vertex 111.152 2.23862 30
    endloop
  endfacet
  facet normal 0 0 1
    outer loop
      vertex 89.2909 8.46261 30
      vertex 84.7879 7.29561 30
      vertex 111.152 2.23862 30
    endloop
  endfacet
  facet normal 0 0 1
    outer loop
      vertex 84.7879 7.29561 30
      vertex 83.7049 7.15861 30
      vertex 111.152 2.23862 30
    endloop
  endfacet
  facet normal 0 0 1
    outer loop
      vertex 83.7049 7.15861 30
      vertex 82.6199 7.02261 30
      vertex 111.152 2.23862 30
    endloop
  endfacet
  facet normal 0 0 1
    outer loop
      vertex 59.544 6.69938 30
      vertex 59.1761 6.73561 30
      vertex 2.23862 5.38342 30
    endloop
  endfacet
  facet normal 0 0 1
    outer loop
      vertex 82.6199 7.02261 30
      vertex 82.252 6.98638 30
      vertex 111.152 2.23862 30
    endloop
  endfacet
  facet normal 0 0 1
    outer loop
      vertex 82.252 6.98638 30
      vertex 73.291 6.30438 30
      vertex 111.152 2.23862 30
    endloop
  endfacet
  facet normal 0 0 1
    outer loop
      vertex 68.369 6.30438 30
      vertex 2.23862 5.38342 30
      vertex 73.291 6.30438 30
    endloop
  endfacet
  facet normal 0 0 1
    outer loop
      vertex 63.645 6.42438 30
      vertex 2.23862 5.38342 30
      vertex 68.369 6.30438 30
    endloop
  endfacet
  facet normal 0 0 1
    outer loop
      vertex 57.8401 6.89461 30
      vertex 54.9441 7.57961 30
      vertex 2.23862 5.38342 30
    endloop
  endfacet
  facet normal 0 0 1
    outer loop
      vertex 58.5091 6.81461 30
      vertex 2.23862 5.38342 30
      vertex 59.1761 6.73561 30
    endloop
  endfacet
  facet normal 0 0 1
    outer loop
      vertex 57.8401 6.89461 30
      vertex 2.23862 5.38342 30
      vertex 58.5091 6.81461 30
    endloop
  endfacet
  facet normal 0 0 1
    outer loop
      vertex 54.5904 7.68692 30
      vertex 52.2834 8.75992 30
      vertex 2.23862 5.38342 30
    endloop
  endfacet
  facet normal 0 0 1
    outer loop
      vertex 54.5904 7.68692 30
      vertex 2.23862 5.38342 30
      vertex 54.9441 7.57961 30
    endloop
  endfacet
  facet normal 0 0 1
    outer loop
      vertex 50.0352 10.6094 30
      vertex 49.1912 11.7074 30
      vertex 8.45687 6.13361 30
    endloop
  endfacet
  facet normal 0 0 1
    outer loop
      vertex 51.9574 8.93417 30
      vertex 51.5854 9.20617 30
      vertex 2.23862 5.38342 30
    endloop
  endfacet
  facet normal 0 0 1
    outer loop
      vertex 51.3064 9.39817 30
      vertex 2.23862 5.38342 30
      vertex 51.5854 9.20617 30
    endloop
  endfacet
  facet normal 0 0 1
    outer loop
      vertex 51.0207 9.63267 30
      vertex 2.23862 5.38342 30
      vertex 51.3064 9.39817 30
    endloop
  endfacet
  facet normal 0 0 1
    outer loop
      vertex 50.2697 10.3237 30
      vertex 2.23862 5.38342 30
      vertex 51.0207 9.63267 30
    endloop
  endfacet
  facet normal 0 0 1
    outer loop
      vertex 50.0352 10.6094 30
      vertex 2.23862 5.38342 30
      vertex 50.2697 10.3237 30
    endloop
  endfacet
  facet normal 0 0 1
    outer loop
      vertex 7.10787 5.94761 30
      vertex 2.23862 5.38342 30
      vertex 50.0352 10.6094 30
    endloop
  endfacet
  facet normal 0 0 1
    outer loop
      vertex 11.1419 6.58961 30
      vertex 8.45687 6.13361 30
      vertex 49.1912 11.7074 30
    endloop
  endfacet
  facet normal 0 0 1
    outer loop
      vertex 14.9086 7.88592 30
      vertex 13.8436 7.36692 30
      vertex 48.3539 13.3464 30
    endloop
  endfacet
  facet normal 0 0 1
    outer loop
      vertex 15.2346 8.06017 30
      vertex 14.9086 7.88592 30
      vertex 47.9669 14.4874 30
    endloop
  endfacet
  facet normal 0 0 1
    outer loop
      vertex 16.4296 8.84017 30
      vertex 47.7686 15.2291 30
      vertex 47.6386 15.7741 30
    endloop
  endfacet
  facet normal 0 0 1
    outer loop
      vertex 17.9068 10.2604 30
      vertex 17.6723 9.97467 30
      vertex 47.1866 19.1051 30
    endloop
  endfacet
  facet normal 0 0 1
    outer loop
      vertex 18.4778 11.0064 30
      vertex 17.9068 10.2604 30
      vertex 47.1504 19.473 30
    endloop
  endfacet
  facet normal 0 0 1
    outer loop
      vertex 19.7081 14.0574 30
      vertex 19.0031 11.9624 30
      vertex 46.9574 23.285 30
    endloop
  endfacet
  facet normal 0 0 1
    outer loop
      vertex 16.4296 8.84017 30
      vertex 47.8596 14.8411 30
      vertex 47.7686 15.2291 30
    endloop
  endfacet
  facet normal 0 0 1
    outer loop
      vertex 16.4296 8.84017 30
      vertex 15.2346 8.06017 30
      vertex 47.8596 14.8411 30
    endloop
  endfacet
  facet normal 0 0 1
    outer loop
      vertex 48.3579 111.31 30
      vertex 48.0329 110.622 30
      vertex 48.2199 111.016 30
    endloop
  endfacet
  facet normal 0 0 1
    outer loop
      vertex 2.23862 120.681 30
      vertex 48.0329 110.622 30
      vertex 48.3579 111.31 30
    endloop
  endfacet
  facet normal 0 0 1
    outer loop
      vertex 2.23862 120.681 30
      vertex 48.3579 111.31 30
      vertex 48.5322 111.636 30
    endloop
  endfacet
  facet normal 0 0 1
    outer loop
      vertex 2.23862 120.681 30
      vertex 48.5322 111.636 30
      vertex 49.0932 112.449 30
    endloop
  endfacet
  facet normal 0 0 1
    outer loop
      vertex 2.23862 120.681 30
      vertex 49.0932 112.449 30
      vertex 49.3277 112.734 30
    endloop
  endfacet
  facet normal 0 0 1
    outer loop
      vertex 2.23862 120.681 30
      vertex 49.3277 112.734 30
      vertex 50.3077 113.685 30
    endloop
  endfacet
  facet normal 0 0 1
    outer loop
      vertex 2.23862 120.681 30
      vertex 50.3077 113.685 30
      vertex 50.5934 113.92 30
    endloop
  endfacet
  facet normal 0 0 1
    outer loop
      vertex 2.23862 120.681 30
      vertex 50.5934 113.92 30
      vertex 51.8524 114.713 30
    endloop
  endfacet
  facet normal 0 0 1
    outer loop
      vertex 2.23862 120.681 30
      vertex 51.8524 114.713 30
      vertex 52.1784 114.887 30
    endloop
  endfacet
  facet normal 0 0 1
    outer loop
      vertex 2.23862 120.681 30
      vertex 52.1784 114.887 30
      vertex 53.3254 115.393 30
    endloop
  endfacet
  facet normal 0 0 1
    outer loop
      vertex 65.5604 120.681 30
      vertex 53.3254 115.393 30
      vertex 53.7194 115.524 30
    endloop
  endfacet
  facet normal 0 0 1
    outer loop
      vertex 65.5604 120.681 30
      vertex 53.7194 115.524 30
      vertex 54.1784 115.668 30
    endloop
  endfacet
  facet normal 0 0 1
    outer loop
      vertex 65.5604 120.681 30
      vertex 54.1784 115.668 30
      vertex 54.5321 115.775 30
    endloop
  endfacet
  facet normal 0 0 1
    outer loop
      vertex 65.5604 120.681 30
      vertex 54.5321 115.775 30
      vertex 59.9501 116.888 30
    endloop
  endfacet
  facet normal 0 0 1
    outer loop
      vertex 61.2001 117.046 30
      vertex 59.9501 116.888 30
      vertex 60.5761 116.966 30
    endloop
  endfacet
  facet normal 0 0 1
    outer loop
      vertex 65.5604 120.681 30
      vertex 59.9501 116.888 30
      vertex 61.2001 117.046 30
    endloop
  endfacet
  facet normal 0 0 1
    outer loop
      vertex 65.5604 120.681 30
      vertex 61.2001 117.046 30
      vertex 65.5604 117.537 30
    endloop
  endfacet
  facet normal 0 0 1
    outer loop
      vertex 2.23862 120.681 30
      vertex 53.3254 115.393 30
      vertex 65.5604 120.681 30
    endloop
  endfacet
  facet normal 0 0 1
    outer loop
      vertex 2.23862 120.681 30
      vertex 2.23862 117.447 30
      vertex 48.0329 110.622 30
    endloop
  endfacet
  facet normal 0 0 1
    outer loop
      vertex 2.23862 117.447 30
      vertex 3.33587 117.258 30
      vertex 48.0329 110.622 30
    endloop
  endfacet
  facet normal 0 0 1
    outer loop
      vertex 3.33587 117.258 30
      vertex 6.08087 116.744 30
      vertex 48.0329 110.622 30
    endloop
  endfacet
  facet normal 0 0 1
    outer loop
      vertex 6.08087 116.744 30
      vertex 6.70687 116.622 30
      vertex 48.0329 110.622 30
    endloop
  endfacet
  facet normal 0 0 1
    outer loop
      vertex 6.70687 116.622 30
      vertex 7.33087 116.5 30
      vertex 48.0329 110.622 30
    endloop
  endfacet
  facet normal 0 0 1
    outer loop
      vertex 7.33087 116.5 30
      vertex 10.1839 115.772 30
      vertex 48.0329 110.622 30
    endloop
  endfacet
  facet normal 0 0 1
    outer loop
      vertex 10.1839 115.772 30
      vertex 10.5376 115.665 30
      vertex 48.0329 110.622 30
    endloop
  endfacet
  facet normal 0 0 1
    outer loop
      vertex 10.5376 115.665 30
      vertex 13.0316 114.778 30
      vertex 48.0329 110.622 30
    endloop
  endfacet
  facet normal 0 0 1
    outer loop
      vertex 13.0316 114.778 30
      vertex 13.4766 114.577 30
      vertex 48.0329 110.622 30
    endloop
  endfacet
  facet normal 0 0 1
    outer loop
      vertex 13.4766 114.577 30
      vertex 13.8956 114.388 30
      vertex 48.0329 110.622 30
    endloop
  endfacet
  facet normal 0 0 1
    outer loop
      vertex 13.8956 114.388 30
      vertex 15.1176 113.735 30
      vertex 48.0329 110.622 30
    endloop
  endfacet
  facet normal 0 0 1
    outer loop
      vertex 15.1176 113.735 30
      vertex 15.4436 113.561 30
      vertex 48.0329 110.622 30
    endloop
  endfacet
  facet normal 0 0 1
    outer loop
      vertex 15.4436 113.561 30
      vertex 16.7516 112.671 30
      vertex 48.0329 110.622 30
    endloop
  endfacet
  facet normal 0 0 1
    outer loop
      vertex 16.7516 112.671 30
      vertex 17.0373 112.436 30
      vertex 48.0329 110.622 30
    endloop
  endfacet
  facet normal 0 0 1
    outer loop
      vertex 17.0373 112.436 30
      vertex 18.0113 111.496 30
      vertex 48.0329 110.622 30
    endloop
  endfacet
  facet normal 0 0 1
    outer loop
      vertex 18.0113 111.496 30
      vertex 18.2458 111.211 30
      vertex 48.0329 110.622 30
    endloop
  endfacet
  facet normal 0 0 1
    outer loop
      vertex 18.2458 111.211 30
      vertex 18.7628 110.488 30
      vertex 48.0329 110.622 30
    endloop
  endfacet
  facet normal 0 0 1
    outer loop
      vertex 18.7628 110.488 30
      vertex 18.9371 110.162 30
      vertex 48.0329 110.622 30
    endloop
  endfacet
  facet normal 0 0 1
    outer loop
      vertex 18.9371 110.162 30
      vertex 19.0611 109.897 30
      vertex 48.0329 110.622 30
    endloop
  endfacet
  facet normal 0 0 1
    outer loop
      vertex 19.0611 109.897 30
      vertex 19.2181 109.561 30
      vertex 48.0329 110.622 30
    endloop
  endfacet
  facet normal 0 0 1
    outer loop
      vertex 19.2181 109.561 30
      vertex 19.3254 109.207 30
      vertex 48.0329 110.622 30
    endloop
  endfacet
  facet normal 0 0 1
    outer loop
      vertex 19.3254 109.207 30
      vertex 19.8794 107.25 30
      vertex 48.0329 110.622 30
    endloop
  endfacet
  facet normal 0 0 1
    outer loop
      vertex 19.8794 107.25 30
      vertex 20.1164 105.126 30
      vertex 48.0329 110.622 30
    endloop
  endfacet
  facet normal 0 0 1
    outer loop
      vertex 20.1164 105.126 30
      vertex 20.1526 104.758 30
      vertex 48.0329 110.622 30
    endloop
  endfacet
  facet normal 0 0 1
    outer loop
      vertex 46.9574 105.625 30
      vertex 20.1526 17.073 30
      vertex 46.9574 23.285 30
    endloop
  endfacet
  facet normal 0 0 1
    outer loop
      vertex 20.1526 17.073 30
      vertex 20.1164 16.7051 30
      vertex 46.9574 23.285 30
    endloop
  endfacet
  facet normal 0 0 1
    outer loop
      vertex 20.1164 16.7051 30
      vertex 19.8154 14.4111 30
      vertex 46.9574 23.285 30
    endloop
  endfacet
  facet normal 0 0 1
    outer loop
      vertex 19.8154 14.4111 30
      vertex 19.7081 14.0574 30
      vertex 46.9574 23.285 30
    endloop
  endfacet
  facet normal 0 0 1
    outer loop
      vertex 46.9574 23.285 30
      vertex 19.0031 11.9624 30
      vertex 47.1504 19.473 30
    endloop
  endfacet
  facet normal 0 0 1
    outer loop
      vertex 19.0031 11.9624 30
      vertex 18.8288 11.6364 30
      vertex 47.1504 19.473 30
    endloop
  endfacet
  facet normal 0 0 1
    outer loop
      vertex 18.8288 11.6364 30
      vertex 18.6298 11.2764 30
      vertex 47.1504 19.473 30
    endloop
  endfacet
  facet normal 0 0 1
    outer loop
      vertex 18.6298 11.2764 30
      vertex 18.4778 11.0064 30
      vertex 47.1504 19.473 30
    endloop
  endfacet
  facet normal 0 0 1
    outer loop
      vertex 47.1504 19.473 30
      vertex 17.9068 10.2604 30
      vertex 47.1866 19.1051 30
    endloop
  endfacet
  facet normal 0 0 1
    outer loop
      vertex 63.645 6.42438 30
      vertex 59.544 6.69938 30
      vertex 2.23862 5.38342 30
    endloop
  endfacet
  facet normal 0 0 1
    outer loop
      vertex 20.1526 104.758 30
      vertex 47.3799 108.486 30
      vertex 48.0329 110.622 30
    endloop
  endfacet
  facet normal 0 0 1
    outer loop
      vertex 47.8596 14.8411 30
      vertex 15.2346 8.06017 30
      vertex 47.9669 14.4874 30
    endloop
  endfacet
  facet normal 0 0 1
    outer loop
      vertex 12.9069 7.03061 30
      vertex 11.1419 6.58961 30
      vertex 49.0169 12.0334 30
    endloop
  endfacet
  facet normal 0 0 1
    outer loop
      vertex 13.8436 7.36692 30
      vertex 13.4766 7.22392 30
      vertex 49.0169 12.0334 30
    endloop
  endfacet
  facet normal 0 0 1
    outer loop
      vertex 13.4766 7.22392 30
      vertex 13.2606 7.13792 30
      vertex 49.0169 12.0334 30
    endloop
  endfacet
  facet normal 0 0 1
    outer loop
      vertex 13.2606 7.13792 30
      vertex 12.9069 7.03061 30
      vertex 49.0169 12.0334 30
    endloop
  endfacet
  facet normal 0 0 1
    outer loop
      vertex 49.0169 12.0334 30
      vertex 11.1419 6.58961 30
      vertex 49.1912 11.7074 30
    endloop
  endfacet
  facet normal 0 0 1
    outer loop
      vertex 48.3539 13.3464 30
      vertex 47.9669 14.4874 30
      vertex 14.9086 7.88592 30
    endloop
  endfacet
  facet normal 0 0 1
    outer loop
      vertex 49.0169 12.0334 30
      vertex 48.3539 13.3464 30
      vertex 13.8436 7.36692 30
    endloop
  endfacet
  facet normal 0 0 1
    outer loop
      vertex 7.78287 6.03961 30
      vertex 7.10787 5.94761 30
      vertex 50.0352 10.6094 30
    endloop
  endfacet
  facet normal 0 0 1
    outer loop
      vertex 20.1526 104.758 30
      vertex 46.9936 105.993 30
      vertex 47.2726 108.132 30
    endloop
  endfacet
  facet normal 0 0 1
    outer loop
      vertex 20.1526 104.758 30
      vertex 47.2726 108.132 30
      vertex 47.3799 108.486 30
    endloop
  endfacet
  facet normal 0 0 1
    outer loop
      vertex 110.299 37.6554 30
      vertex 107.568 31.8534 30
      vertex 113.33 37.6554 30
    endloop
  endfacet
  facet normal 0 0 1
    outer loop
      vertex 47.6386 15.7741 30
      vertex 16.7153 9.07467 30
      vertex 16.4296 8.84017 30
    endloop
  endfacet
  facet normal 0 0 1
    outer loop
      vertex 47.6386 15.7741 30
      vertex 17.6723 9.97467 30
      vertex 16.7153 9.07467 30
    endloop
  endfacet
  facet normal 0 0 1
    outer loop
      vertex 47.6386 15.7741 30
      vertex 47.1866 19.1051 30
      vertex 17.6723 9.97467 30
    endloop
  endfacet
  facet normal 0 0.727607 0.685994
    outer loop
      vertex 109.045 39.541 28
      vertex 110.239 37.751 29.8986
      vertex 115.332 39.541 28
    endloop
  endfacet
  facet normal 0 0.727607 0.685994
    outer loop
      vertex 115.332 39.541 28
      vertex 110.239 37.751 29.8986
      vertex 110.299 37.6554 30
    endloop
  endfacet
  facet normal 0 0.727607 0.685994
    outer loop
      vertex 115.332 39.541 28
      vertex 110.299 37.6554 30
      vertex 113.33 37.6554 30
    endloop
  endfacet
  facet normal -0.671728 0.279633 0.685994
    outer loop
      vertex 109.045 39.541 28
      vertex 108.585 38.436 28
      vertex 110.239 37.751 29.8986
    endloop
  endfacet
  facet normal -0.65866 0.310057 0.685588
    outer loop
      vertex 108.585 38.436 28
      vertex 105.826 32.575 28
      vertex 107.568 31.8534 30
    endloop
  endfacet
  facet normal -0.65866 0.310057 0.685588
    outer loop
      vertex 110.239 37.751 29.8986
      vertex 108.585 38.436 28
      vertex 110.299 37.6554 30
    endloop
  endfacet
  facet normal -0.65866 0.310057 0.685588
    outer loop
      vertex 110.299 37.6554 30
      vertex 108.585 38.436 28
      vertex 107.568 31.8534 30
    endloop
  endfacet
  facet normal -0.642805 0.344345 0.684272
    outer loop
      vertex 105.826 32.575 28
      vertex 102.449 26.271 28
      vertex 104.017 25.2234 30
    endloop
  endfacet
  facet normal -0.642805 0.344345 0.684272
    outer loop
      vertex 107.394 31.5274 30
      vertex 105.826 32.575 28
      vertex 104.017 25.2234 30
    endloop
  endfacet
  facet normal -0.643147 0.34377 0.68424
    outer loop
      vertex 107.568 31.8534 30
      vertex 105.826 32.575 28
      vertex 107.394 31.5274 30
    endloop
  endfacet
  facet normal -0.630484 0.364617 0.685233
    outer loop
      vertex 102.449 26.271 28
      vertex 101.681 24.943 28
      vertex 103.249 23.8954 30
    endloop
  endfacet
  facet normal -0.630484 0.364617 0.685233
    outer loop
      vertex 104.017 25.2234 30
      vertex 102.449 26.271 28
      vertex 103.249 23.8954 30
    endloop
  endfacet
  facet normal -0.630268 0.364967 0.685246
    outer loop
      vertex 101.681 24.943 28
      vertex 100.912 23.615 28
      vertex 102.48 22.5674 30
    endloop
  endfacet
  facet normal -0.630268 0.364967 0.685246
    outer loop
      vertex 103.249 23.8954 30
      vertex 101.681 24.943 28
      vertex 102.48 22.5674 30
    endloop
  endfacet
  facet normal -0.607599 0.400307 0.685987
    outer loop
      vertex 100.912 23.615 28
      vertex 97.127 17.87 28
      vertex 98.6948 16.8224 30
    endloop
  endfacet
  facet normal -0.607599 0.400307 0.685987
    outer loop
      vertex 102.48 22.5674 30
      vertex 100.912 23.615 28
      vertex 98.6948 16.8224 30
    endloop
  endfacet
  facet normal -0.565064 0.460836 0.684348
    outer loop
      vertex 97.127 17.87 28
      vertex 93.413 13.316 28
      vertex 94.9808 12.2684 30
    endloop
  endfacet
  facet normal -0.565064 0.460836 0.684348
    outer loop
      vertex 98.6948 16.8224 30
      vertex 97.127 17.87 28
      vertex 94.9808 12.2684 30
    endloop
  endfacet
  facet normal -0.514847 0.514145 0.685994
    outer loop
      vertex 93.413 13.316 28
      vertex 92.681 12.583 28
      vertex 94.0143 11.2497 30
    endloop
  endfacet
  facet normal -0.514847 0.514145 0.685994
    outer loop
      vertex 94.7463 11.9827 30
      vertex 93.413 13.316 28
      vertex 94.0143 11.2497 30
    endloop
  endfacet
  facet normal -0.563724 0.462636 0.68424
    outer loop
      vertex 94.9808 12.2684 30
      vertex 93.413 13.316 28
      vertex 94.7463 11.9827 30
    endloop
  endfacet
  facet normal -0.506189 0.522732 0.685947
    outer loop
      vertex 92.681 12.583 28
      vertex 92.207 12.124 28
      vertex 93.5403 10.7907 30
    endloop
  endfacet
  facet normal -0.506189 0.522732 0.685947
    outer loop
      vertex 94.0143 11.2497 30
      vertex 92.681 12.583 28
      vertex 93.5403 10.7907 30
    endloop
  endfacet
  facet normal -0.352106 0.638144 0.684684
    outer loop
      vertex 92.207 12.124 28
      vertex 88.923 10.312 28
      vertex 89.9706 8.74417 30
    endloop
  endfacet
  facet normal -0.352106 0.638144 0.684684
    outer loop
      vertex 93.2546 10.5562 30
      vertex 92.207 12.124 28
      vertex 89.9706 8.74417 30
    endloop
  endfacet
  facet normal -0.462636 0.563724 0.68424
    outer loop
      vertex 93.5403 10.7907 30
      vertex 92.207 12.124 28
      vertex 93.2546 10.5562 30
    endloop
  endfacet
  facet normal -0.182677 0.704881 0.685399
    outer loop
      vertex 84.42 9.145 28
      vertex 84.7879 7.29561 30
      vertex 88.923 10.312 28
    endloop
  endfacet
  facet normal -0.182677 0.704881 0.685399
    outer loop
      vertex 88.923 10.312 28
      vertex 84.7879 7.29561 30
      vertex 89.2909 8.46261 30
    endloop
  endfacet
  facet normal -0.34377 0.643147 0.68424
    outer loop
      vertex 89.9706 8.74417 30
      vertex 88.923 10.312 28
      vertex 89.6446 8.56992 30
    endloop
  endfacet
  facet normal -0.211693 0.697856 0.68424
    outer loop
      vertex 89.6446 8.56992 30
      vertex 88.923 10.312 28
      vertex 89.2909 8.46261 30
    endloop
  endfacet
  facet normal -0.0914217 0.722699 0.68509
    outer loop
      vertex 83.337 9.008 28
      vertex 83.7049 7.15861 30
      vertex 84.42 9.145 28
    endloop
  endfacet
  facet normal -0.0914217 0.722699 0.68509
    outer loop
      vertex 84.42 9.145 28
      vertex 83.7049 7.15861 30
      vertex 84.7879 7.29561 30
    endloop
  endfacet
  facet normal -0.0906035 0.72283 0.685061
    outer loop
      vertex 82.252 8.872 28
      vertex 82.6199 7.02261 30
      vertex 83.337 9.008 28
    endloop
  endfacet
  facet normal -0.0906035 0.72283 0.685061
    outer loop
      vertex 83.337 9.008 28
      vertex 82.6199 7.02261 30
      vertex 83.7049 7.15861 30
    endloop
  endfacet
  facet normal -0.0552917 0.726494 0.684945
    outer loop
      vertex 73.291 6.30438 30
      vertex 82.252 6.98638 30
      vertex 73.291 8.19 28
    endloop
  endfacet
  facet normal -0.0552917 0.726494 0.684945
    outer loop
      vertex 73.291 8.19 28
      vertex 82.252 6.98638 30
      vertex 82.252 8.872 28
    endloop
  endfacet
  facet normal -0.0714791 0.725746 0.68424
    outer loop
      vertex 82.252 8.872 28
      vertex 82.252 6.98638 30
      vertex 82.6199 7.02261 30
    endloop
  endfacet
  facet normal 0 0.727607 0.685994
    outer loop
      vertex 68.369 6.30438 30
      vertex 73.291 6.30438 30
      vertex 68.369 8.19 28
    endloop
  endfacet
  facet normal 0 0.727607 0.685994
    outer loop
      vertex 68.369 8.19 28
      vertex 73.291 6.30438 30
      vertex 73.291 8.19 28
    endloop
  endfacet
  facet normal 0.0184797 0.727483 0.685877
    outer loop
      vertex 63.645 6.42438 30
      vertex 68.369 6.30438 30
      vertex 63.645 8.31 28
    endloop
  endfacet
  facet normal 0.0184797 0.727483 0.685877
    outer loop
      vertex 63.645 8.31 28
      vertex 68.369 6.30438 30
      vertex 68.369 8.19 28
    endloop
  endfacet
  facet normal 0.048733 0.726742 0.685179
    outer loop
      vertex 59.544 6.69938 30
      vertex 63.645 6.42438 30
      vertex 59.544 8.585 28
    endloop
  endfacet
  facet normal 0.048733 0.726742 0.685179
    outer loop
      vertex 59.544 8.585 28
      vertex 63.645 6.42438 30
      vertex 63.645 8.31 28
    endloop
  endfacet
  facet normal 0.0857041 0.723603 0.684875
    outer loop
      vertex 58.5091 6.81461 30
      vertex 59.1761 6.73561 30
      vertex 58.877 8.664 28
    endloop
  endfacet
  facet normal 0.0857041 0.723603 0.684875
    outer loop
      vertex 58.877 8.664 28
      vertex 59.1761 6.73561 30
      vertex 59.544 8.585 28
    endloop
  endfacet
  facet normal 0.0714791 0.725746 0.68424
    outer loop
      vertex 59.544 8.585 28
      vertex 59.1761 6.73561 30
      vertex 59.544 6.69938 30
    endloop
  endfacet
  facet normal 0.0865144 0.723476 0.684907
    outer loop
      vertex 57.8401 6.89461 30
      vertex 58.5091 6.81461 30
      vertex 58.208 8.744 28
    endloop
  endfacet
  facet normal 0.0865144 0.723476 0.684907
    outer loop
      vertex 58.208 8.744 28
      vertex 58.5091 6.81461 30
      vertex 58.877 8.664 28
    endloop
  endfacet
  facet normal 0.167533 0.708284 0.68576
    outer loop
      vertex 54.9441 7.57961 30
      vertex 57.8401 6.89461 30
      vertex 55.312 9.429 28
    endloop
  endfacet
  facet normal 0.167533 0.708284 0.68576
    outer loop
      vertex 55.312 9.429 28
      vertex 57.8401 6.89461 30
      vertex 58.208 8.744 28
    endloop
  endfacet
  facet normal 0.30698 0.660021 0.685664
    outer loop
      vertex 53.005 10.502 28
      vertex 52.2834 8.75992 30
      vertex 54.5904 7.68692 30
    endloop
  endfacet
  facet normal 0.30698 0.660021 0.685664
    outer loop
      vertex 55.312 9.429 28
      vertex 53.005 10.502 28
      vertex 54.5904 7.68692 30
    endloop
  endfacet
  facet normal 0.211693 0.697856 0.68424
    outer loop
      vertex 55.312 9.429 28
      vertex 54.5904 7.68692 30
      vertex 54.9441 7.57961 30
    endloop
  endfacet
  facet normal 0.429639 0.587595 0.685669
    outer loop
      vertex 52.633 10.774 28
      vertex 51.5854 9.20617 30
      vertex 51.9574 8.93417 30
    endloop
  endfacet
  facet normal 0.429639 0.587595 0.685669
    outer loop
      vertex 53.005 10.502 28
      vertex 52.633 10.774 28
      vertex 51.9574 8.93417 30
    endloop
  endfacet
  facet normal 0.34377 0.643147 0.68424
    outer loop
      vertex 53.005 10.502 28
      vertex 51.9574 8.93417 30
      vertex 52.2834 8.75992 30
    endloop
  endfacet
  facet normal 0.412502 0.599417 0.68596
    outer loop
      vertex 52.354 10.966 28
      vertex 51.3064 9.39817 30
      vertex 51.5854 9.20617 30
    endloop
  endfacet
  facet normal 0.412502 0.599417 0.68596
    outer loop
      vertex 52.633 10.774 28
      vertex 52.354 10.966 28
      vertex 51.5854 9.20617 30
    endloop
  endfacet
  facet normal 0.492862 0.535658 0.68568
    outer loop
      vertex 51.603 11.657 28
      vertex 50.2697 10.3237 30
      vertex 51.0207 9.63267 30
    endloop
  endfacet
  facet normal 0.492862 0.535658 0.68568
    outer loop
      vertex 52.354 10.966 28
      vertex 51.603 11.657 28
      vertex 51.0207 9.63267 30
    endloop
  endfacet
  facet normal 0.462636 0.563724 0.68424
    outer loop
      vertex 52.354 10.966 28
      vertex 51.0207 9.63267 30
      vertex 51.3064 9.39817 30
    endloop
  endfacet
  facet normal 0.577471 0.443885 0.685195
    outer loop
      vertex 50.759 12.755 28
      vertex 49.1912 11.7074 30
      vertex 50.0352 10.6094 30
    endloop
  endfacet
  facet normal 0.577471 0.443885 0.685195
    outer loop
      vertex 51.603 11.657 28
      vertex 50.759 12.755 28
      vertex 50.0352 10.6094 30
    endloop
  endfacet
  facet normal 0.563724 0.462636 0.68424
    outer loop
      vertex 51.603 11.657 28
      vertex 50.0352 10.6094 30
      vertex 50.2697 10.3237 30
    endloop
  endfacet
  facet normal 0.650358 0.328398 0.684974
    outer loop
      vertex 50.096 14.068 28
      vertex 48.3539 13.3464 30
      vertex 49.0169 12.0334 30
    endloop
  endfacet
  facet normal 0.650358 0.328398 0.684974
    outer loop
      vertex 50.759 12.755 28
      vertex 50.096 14.068 28
      vertex 49.0169 12.0334 30
    endloop
  endfacet
  facet normal 0.643147 0.34377 0.68424
    outer loop
      vertex 50.759 12.755 28
      vertex 49.0169 12.0334 30
      vertex 49.1912 11.7074 30
    endloop
  endfacet
  facet normal 0.689751 0.233947 0.68521
    outer loop
      vertex 49.709 15.209 28
      vertex 47.9669 14.4874 30
      vertex 48.3539 13.3464 30
    endloop
  endfacet
  facet normal 0.689751 0.233947 0.68521
    outer loop
      vertex 50.096 14.068 28
      vertex 49.709 15.209 28
      vertex 48.3539 13.3464 30
    endloop
  endfacet
  facet normal 0.708577 0.166187 0.685784
    outer loop
      vertex 49.618 15.597 28
      vertex 47.7686 15.2291 30
      vertex 47.8596 14.8411 30
    endloop
  endfacet
  facet normal 0.708577 0.166187 0.685784
    outer loop
      vertex 49.709 15.209 28
      vertex 49.618 15.597 28
      vertex 47.8596 14.8411 30
    endloop
  endfacet
  facet normal 0.697856 0.211693 0.68424
    outer loop
      vertex 49.709 15.209 28
      vertex 47.8596 14.8411 30
      vertex 47.9669 14.4874 30
    endloop
  endfacet
  facet normal 0.707989 0.168878 0.685735
    outer loop
      vertex 49.488 16.142 28
      vertex 47.6386 15.7741 30
      vertex 47.7686 15.2291 30
    endloop
  endfacet
  facet normal 0.707989 0.168878 0.685735
    outer loop
      vertex 49.618 15.597 28
      vertex 49.488 16.142 28
      vertex 47.7686 15.2291 30
    endloop
  endfacet
  facet normal 0.72164 0.097923 0.685307
    outer loop
      vertex 49.036 19.473 28
      vertex 47.1866 19.1051 30
      vertex 47.6386 15.7741 30
    endloop
  endfacet
  facet normal 0.72164 0.097923 0.685307
    outer loop
      vertex 49.488 16.142 28
      vertex 49.036 19.473 28
      vertex 47.6386 15.7741 30
    endloop
  endfacet
  facet normal 0.727114 0.0368135 0.685529
    outer loop
      vertex 48.843 23.285 28
      vertex 46.9574 23.285 30
      vertex 47.1504 19.473 30
    endloop
  endfacet
  facet normal 0.727114 0.0368135 0.685529
    outer loop
      vertex 49.036 19.473 28
      vertex 48.843 23.285 28
      vertex 47.1504 19.473 30
    endloop
  endfacet
  facet normal 0.725746 0.0714791 0.68424
    outer loop
      vertex 49.036 19.473 28
      vertex 47.1504 19.473 30
      vertex 47.1866 19.1051 30
    endloop
  endfacet
  facet normal 0.727607 0 0.685994
    outer loop
      vertex 46.9574 105.625 30
      vertex 46.9574 23.285 30
      vertex 48.843 23.285 28
    endloop
  endfacet
  facet normal 0.727607 0 0.685994
    outer loop
      vertex 48.843 105.625 28
      vertex 46.9574 105.625 30
      vertex 48.843 23.285 28
    endloop
  endfacet
  facet normal 0.725746 -0.0714791 0.68424
    outer loop
      vertex 46.9936 105.993 30
      vertex 46.9574 105.625 30
      vertex 48.843 105.625 28
    endloop
  endfacet
  facet normal 0.722249 -0.0942064 0.685187
    outer loop
      vertex 47.2726 108.132 30
      vertex 46.9936 105.993 30
      vertex 48.843 105.625 28
    endloop
  endfacet
  facet normal 0.722249 -0.0942064 0.685187
    outer loop
      vertex 49.122 107.764 28
      vertex 47.2726 108.132 30
      vertex 48.843 105.625 28
    endloop
  endfacet
  facet normal 0.697856 -0.211693 0.68424
    outer loop
      vertex 47.3799 108.486 30
      vertex 47.2726 108.132 30
      vertex 49.122 107.764 28
    endloop
  endfacet
  facet normal 0.697327 -0.213181 0.684316
    outer loop
      vertex 48.0329 110.622 30
      vertex 47.3799 108.486 30
      vertex 49.122 107.764 28
    endloop
  endfacet
  facet normal 0.697327 -0.213181 0.684316
    outer loop
      vertex 49.775 109.9 28
      vertex 48.0329 110.622 30
      vertex 49.122 107.764 28
    endloop
  endfacet
  facet normal 0.657721 -0.312167 0.685532
    outer loop
      vertex 48.2199 111.016 30
      vertex 48.0329 110.622 30
      vertex 49.775 109.9 28
    endloop
  endfacet
  facet normal 0.657721 -0.312167 0.685532
    outer loop
      vertex 49.962 110.294 28
      vertex 48.2199 111.016 30
      vertex 49.775 109.9 28
    endloop
  endfacet
  facet normal 0.658987 -0.30932 0.685607
    outer loop
      vertex 48.3579 111.31 30
      vertex 48.2199 111.016 30
      vertex 49.962 110.294 28
    endloop
  endfacet
  facet normal 0.658987 -0.30932 0.685607
    outer loop
      vertex 50.1 110.588 28
      vertex 48.3579 111.31 30
      vertex 49.962 110.294 28
    endloop
  endfacet
  facet normal 0.643147 -0.34377 0.68424
    outer loop
      vertex 48.5322 111.636 30
      vertex 48.3579 111.31 30
      vertex 50.1 110.588 28
    endloop
  endfacet
  facet normal 0.5989 -0.413263 0.685954
    outer loop
      vertex 49.0932 112.449 30
      vertex 48.5322 111.636 30
      vertex 50.1 110.588 28
    endloop
  endfacet
  facet normal 0.5989 -0.413263 0.685954
    outer loop
      vertex 50.661 111.401 28
      vertex 49.0932 112.449 30
      vertex 50.1 110.588 28
    endloop
  endfacet
  facet normal 0.563724 -0.462636 0.68424
    outer loop
      vertex 49.3277 112.734 30
      vertex 49.0932 112.449 30
      vertex 50.661 111.401 28
    endloop
  endfacet
  facet normal 0.506739 -0.522191 0.685953
    outer loop
      vertex 50.3077 113.685 30
      vertex 49.3277 112.734 30
      vertex 50.661 111.401 28
    endloop
  endfacet
  facet normal 0.506739 -0.522191 0.685953
    outer loop
      vertex 51.641 112.352 28
      vertex 50.3077 113.685 30
      vertex 50.661 111.401 28
    endloop
  endfacet
  facet normal 0.462636 -0.563724 0.68424
    outer loop
      vertex 50.5934 113.92 30
      vertex 50.3077 113.685 30
      vertex 51.641 112.352 28
    endloop
  endfacet
  facet normal 0.387849 -0.615765 0.685862
    outer loop
      vertex 51.8524 114.713 30
      vertex 50.5934 113.92 30
      vertex 51.641 112.352 28
    endloop
  endfacet
  facet normal 0.387849 -0.615765 0.685862
    outer loop
      vertex 52.9 113.145 28
      vertex 51.8524 114.713 30
      vertex 51.641 112.352 28
    endloop
  endfacet
  facet normal 0.34377 -0.643147 0.68424
    outer loop
      vertex 52.1784 114.887 30
      vertex 51.8524 114.713 30
      vertex 52.9 113.145 28
    endloop
  endfacet
  facet normal 0.293713 -0.665788 0.6859
    outer loop
      vertex 53.3254 115.393 30
      vertex 52.1784 114.887 30
      vertex 52.9 113.145 28
    endloop
  endfacet
  facet normal 0.293713 -0.665788 0.6859
    outer loop
      vertex 54.047 113.651 28
      vertex 53.3254 115.393 30
      vertex 52.9 113.145 28
    endloop
  endfacet
  facet normal 0.229842 -0.691279 0.685059
    outer loop
      vertex 53.7194 115.524 30
      vertex 53.3254 115.393 30
      vertex 54.047 113.651 28
    endloop
  endfacet
  facet normal 0.229842 -0.691279 0.685059
    outer loop
      vertex 54.441 113.782 28
      vertex 53.7194 115.524 30
      vertex 54.047 113.651 28
    endloop
  endfacet
  facet normal 0.218205 -0.695529 0.684563
    outer loop
      vertex 54.1784 115.668 30
      vertex 53.7194 115.524 30
      vertex 54.441 113.782 28
    endloop
  endfacet
  facet normal 0.218205 -0.695529 0.684563
    outer loop
      vertex 54.9 113.926 28
      vertex 54.1784 115.668 30
      vertex 54.441 113.782 28
    endloop
  endfacet
  facet normal 0.211693 -0.697856 0.68424
    outer loop
      vertex 54.5321 115.775 30
      vertex 54.1784 115.668 30
      vertex 54.9 113.926 28
    endloop
  endfacet
  facet normal 0.146414 -0.71273 0.685987
    outer loop
      vertex 59.9501 116.888 30
      vertex 54.5321 115.775 30
      vertex 54.9 113.926 28
    endloop
  endfacet
  facet normal 0.146414 -0.71273 0.685987
    outer loop
      vertex 60.318 115.039 28
      vertex 59.9501 116.888 30
      vertex 54.9 113.926 28
    endloop
  endfacet
  facet normal 0.0900755 -0.722914 0.685042
    outer loop
      vertex 60.5761 116.966 30
      vertex 59.9501 116.888 30
      vertex 60.318 115.039 28
    endloop
  endfacet
  facet normal 0.0900755 -0.722914 0.685042
    outer loop
      vertex 60.944 115.117 28
      vertex 60.5761 116.966 30
      vertex 60.318 115.039 28
    endloop
  endfacet
  facet normal 0.0926288 -0.722505 0.685133
    outer loop
      vertex 61.2001 117.046 30
      vertex 60.5761 116.966 30
      vertex 60.944 115.117 28
    endloop
  endfacet
  facet normal 0.0926288 -0.722505 0.685133
    outer loop
      vertex 61.568 115.197 28
      vertex 61.2001 117.046 30
      vertex 60.944 115.117 28
    endloop
  endfacet
  facet normal 0.081556 -0.724244 0.684704
    outer loop
      vertex 65.5604 117.537 30
      vertex 61.2001 117.046 30
      vertex 61.568 115.197 28
    endloop
  endfacet
  facet normal 0.081556 -0.724244 0.684704
    outer loop
      vertex 66.8733 116.369 28.6075
      vertex 65.5604 117.537 30
      vertex 66.985 115.807 28
    endloop
  endfacet
  facet normal 0.081556 -0.724244 0.684704
    outer loop
      vertex 66.985 115.807 28
      vertex 65.5604 117.537 30
      vertex 61.568 115.197 28
    endloop
  endfacet
  facet normal 0.0714791 -0.725746 0.68424
    outer loop
      vertex 66.985 116.268 28.489
      vertex 66.8733 116.369 28.6075
      vertex 66.985 115.807 28
    endloop
  endfacet
  facet normal 0.0677121 -0.725937 0.68442
    outer loop
      vertex 66.985 116.268 28.489
      vertex 66.985 115.807 28
      vertex 67.446 115.85 28
    endloop
  endfacet
  facet normal 0.727607 0 0.685994
    outer loop
      vertex 65.5604 120.681 30
      vertex 65.5604 117.537 30
      vertex 66.8733 116.369 28.6075
    endloop
  endfacet
  facet normal 0.727607 0 0.685994
    outer loop
      vertex 66.985 116.268 28.489
      vertex 65.5604 120.681 30
      vertex 66.8733 116.369 28.6075
    endloop
  endfacet
  facet normal 0.727607 0 0.685994
    outer loop
      vertex 66.985 116.268 28.489
      vertex 67.446 115.85 28
      vertex 65.5604 120.681 30
    endloop
  endfacet
  facet normal 0.727607 0 0.685994
    outer loop
      vertex 67.446 115.85 28
      vertex 67.446 122.567 28
      vertex 65.5604 120.681 30
    endloop
  endfacet
  facet normal 0 0.727607 0.685994
    outer loop
      vertex 0.353 122.567 28
      vertex 2.23862 120.681 30
      vertex 67.446 122.567 28
    endloop
  endfacet
  facet normal 0 0.727607 0.685994
    outer loop
      vertex 67.446 122.567 28
      vertex 2.23862 120.681 30
      vertex 65.5604 120.681 30
    endloop
  endfacet
  facet normal -0.727607 0 0.685994
    outer loop
      vertex 0.353 115.85 28
      vertex 0.815164 116.247 28.4902
      vertex 0.353 122.567 28
    endloop
  endfacet
  facet normal -0.727607 0 0.685994
    outer loop
      vertex 0.353 122.567 28
      vertex 0.815164 116.247 28.4902
      vertex 2.23862 117.447 30
    endloop
  endfacet
  facet normal -0.727607 0 0.685994
    outer loop
      vertex 0.353 122.567 28
      vertex 2.23862 117.447 30
      vertex 2.23862 120.681 30
    endloop
  endfacet
  facet normal -0.108368 -0.719873 0.685594
    outer loop
      vertex 0.815164 116.247 28.4902
      vertex 0.353 115.85 28
      vertex 0.725 115.794 28
    endloop
  endfacet
  facet normal -0.12311 -0.717237 0.685868
    outer loop
      vertex 0.815164 116.247 28.4902
      vertex 0.725 115.794 28
      vertex 2.968 115.409 28
    endloop
  endfacet
  facet normal -0.12311 -0.717237 0.685868
    outer loop
      vertex 2.23862 117.447 30
      vertex 0.815164 116.247 28.4902
      vertex 3.33587 117.258 30
    endloop
  endfacet
  facet normal -0.12311 -0.717237 0.685868
    outer loop
      vertex 3.33587 117.258 30
      vertex 0.815164 116.247 28.4902
      vertex 2.968 115.409 28
    endloop
  endfacet
  facet normal -0.133921 -0.715198 0.685971
    outer loop
      vertex 3.33587 117.258 30
      vertex 2.968 115.409 28
      vertex 5.713 114.895 28
    endloop
  endfacet
  facet normal -0.133921 -0.715198 0.685971
    outer loop
      vertex 6.08087 116.744 30
      vertex 3.33587 117.258 30
      vertex 5.713 114.895 28
    endloop
  endfacet
  facet normal -0.139184 -0.714173 0.685992
    outer loop
      vertex 6.08087 116.744 30
      vertex 5.713 114.895 28
      vertex 6.339 114.773 28
    endloop
  endfacet
  facet normal -0.139184 -0.714173 0.685992
    outer loop
      vertex 6.70687 116.622 30
      vertex 6.08087 116.744 30
      vertex 6.339 114.773 28
    endloop
  endfacet
  facet normal -0.139613 -0.714089 0.685992
    outer loop
      vertex 6.70687 116.622 30
      vertex 6.339 114.773 28
      vertex 6.963 114.651 28
    endloop
  endfacet
  facet normal -0.139613 -0.714089 0.685992
    outer loop
      vertex 7.33087 116.5 30
      vertex 6.70687 116.622 30
      vertex 6.963 114.651 28
    endloop
  endfacet
  facet normal -0.18002 -0.705491 0.685474
    outer loop
      vertex 7.33087 116.5 30
      vertex 6.963 114.651 28
      vertex 9.816 113.923 28
    endloop
  endfacet
  facet normal -0.18002 -0.705491 0.685474
    outer loop
      vertex 10.1839 115.772 30
      vertex 7.33087 116.5 30
      vertex 9.816 113.923 28
    endloop
  endfacet
  facet normal -0.211693 -0.697856 0.68424
    outer loop
      vertex 10.1839 115.772 30
      vertex 9.816 113.923 28
      vertex 10.5376 115.665 30
    endloop
  endfacet
  facet normal -0.243964 -0.68596 0.685522
    outer loop
      vertex 10.5376 115.665 30
      vertex 9.816 113.923 28
      vertex 12.31 113.036 28
    endloop
  endfacet
  facet normal -0.243964 -0.68596 0.685522
    outer loop
      vertex 13.0316 114.778 30
      vertex 10.5376 115.665 30
      vertex 12.31 113.036 28
    endloop
  endfacet
  facet normal -0.299583 -0.663257 0.685813
    outer loop
      vertex 13.0316 114.778 30
      vertex 12.31 113.036 28
      vertex 12.755 112.835 28
    endloop
  endfacet
  facet normal -0.299583 -0.663257 0.685813
    outer loop
      vertex 13.4766 114.577 30
      vertex 13.0316 114.778 30
      vertex 12.755 112.835 28
    endloop
  endfacet
  facet normal -0.299244 -0.663404 0.685819
    outer loop
      vertex 13.4766 114.577 30
      vertex 12.755 112.835 28
      vertex 13.174 112.646 28
    endloop
  endfacet
  facet normal -0.299244 -0.663404 0.685819
    outer loop
      vertex 13.8956 114.388 30
      vertex 13.4766 114.577 30
      vertex 13.174 112.646 28
    endloop
  endfacet
  facet normal -0.343697 -0.643182 0.684244
    outer loop
      vertex 13.8956 114.388 30
      vertex 13.174 112.646 28
      vertex 14.396 111.993 28
    endloop
  endfacet
  facet normal -0.343697 -0.643182 0.684244
    outer loop
      vertex 15.1176 113.735 30
      vertex 13.8956 114.388 30
      vertex 14.396 111.993 28
    endloop
  endfacet
  facet normal -0.34377 -0.643147 0.68424
    outer loop
      vertex 15.1176 113.735 30
      vertex 14.396 111.993 28
      vertex 15.4436 113.561 30
    endloop
  endfacet
  facet normal -0.409324 -0.601568 0.685981
    outer loop
      vertex 15.4436 113.561 30
      vertex 14.396 111.993 28
      vertex 15.704 111.103 28
    endloop
  endfacet
  facet normal -0.409324 -0.601568 0.685981
    outer loop
      vertex 16.7516 112.671 30
      vertex 15.4436 113.561 30
      vertex 15.704 111.103 28
    endloop
  endfacet
  facet normal -0.462636 -0.563724 0.68424
    outer loop
      vertex 16.7516 112.671 30
      vertex 15.704 111.103 28
      vertex 17.0373 112.436 30
    endloop
  endfacet
  facet normal -0.505314 -0.523591 0.685937
    outer loop
      vertex 17.0373 112.436 30
      vertex 15.704 111.103 28
      vertex 16.678 110.163 28
    endloop
  endfacet
  facet normal -0.505314 -0.523591 0.685937
    outer loop
      vertex 18.0113 111.496 30
      vertex 17.0373 112.436 30
      vertex 16.678 110.163 28
    endloop
  endfacet
  facet normal -0.563724 -0.462636 0.68424
    outer loop
      vertex 18.0113 111.496 30
      vertex 16.678 110.163 28
      vertex 18.2458 111.211 30
    endloop
  endfacet
  facet normal -0.591997 -0.423323 0.685812
    outer loop
      vertex 18.2458 111.211 30
      vertex 16.678 110.163 28
      vertex 17.195 109.44 28
    endloop
  endfacet
  facet normal -0.591997 -0.423323 0.685812
    outer loop
      vertex 18.7628 110.488 30
      vertex 18.2458 111.211 30
      vertex 17.195 109.44 28
    endloop
  endfacet
  facet normal -0.643147 -0.34377 0.68424
    outer loop
      vertex 18.7628 110.488 30
      vertex 17.195 109.44 28
      vertex 18.9371 110.162 30
    endloop
  endfacet
  facet normal -0.659341 -0.308522 0.685627
    outer loop
      vertex 18.9371 110.162 30
      vertex 17.195 109.44 28
      vertex 17.319 109.175 28
    endloop
  endfacet
  facet normal -0.659341 -0.308522 0.685627
    outer loop
      vertex 19.0611 109.897 30
      vertex 18.9371 110.162 30
      vertex 17.319 109.175 28
    endloop
  endfacet
  facet normal -0.659501 -0.30816 0.685636
    outer loop
      vertex 19.0611 109.897 30
      vertex 17.319 109.175 28
      vertex 17.476 108.839 28
    endloop
  endfacet
  facet normal -0.659501 -0.30816 0.685636
    outer loop
      vertex 19.2181 109.561 30
      vertex 19.0611 109.897 30
      vertex 17.476 108.839 28
    endloop
  endfacet
  facet normal -0.697856 -0.211693 0.68424
    outer loop
      vertex 19.2181 109.561 30
      vertex 17.476 108.839 28
      vertex 19.3254 109.207 30
    endloop
  endfacet
  facet normal -0.701137 -0.198482 0.684844
    outer loop
      vertex 17.476 108.839 28
      vertex 18.03 106.882 28
      vertex 19.3254 109.207 30
    endloop
  endfacet
  facet normal -0.701137 -0.198482 0.684844
    outer loop
      vertex 19.3254 109.207 30
      vertex 18.03 106.882 28
      vertex 19.8794 107.25 30
    endloop
  endfacet
  facet normal -0.724355 -0.0808249 0.684673
    outer loop
      vertex 18.03 106.882 28
      vertex 18.267 104.758 28
      vertex 19.8794 107.25 30
    endloop
  endfacet
  facet normal -0.724355 -0.0808249 0.684673
    outer loop
      vertex 19.8794 107.25 30
      vertex 18.267 104.758 28
      vertex 20.1164 105.126 30
    endloop
  endfacet
  facet normal -0.727607 0 0.685994
    outer loop
      vertex 18.267 17.073 28
      vertex 20.1526 17.073 30
      vertex 18.267 104.758 28
    endloop
  endfacet
  facet normal -0.727607 0 0.685994
    outer loop
      vertex 18.267 104.758 28
      vertex 20.1526 17.073 30
      vertex 20.1526 104.758 30
    endloop
  endfacet
  facet normal -0.725746 -0.0714791 0.68424
    outer loop
      vertex 20.1164 105.126 30
      vertex 18.267 104.758 28
      vertex 20.1526 104.758 30
    endloop
  endfacet
  facet normal -0.72216 0.094756 0.685205
    outer loop
      vertex 17.966 14.779 28
      vertex 19.8154 14.4111 30
      vertex 18.267 17.073 28
    endloop
  endfacet
  facet normal -0.72216 0.094756 0.685205
    outer loop
      vertex 18.267 17.073 28
      vertex 19.8154 14.4111 30
      vertex 20.1164 16.7051 30
    endloop
  endfacet
  facet normal -0.725746 0.0714791 0.68424
    outer loop
      vertex 20.1526 17.073 30
      vertex 18.267 17.073 28
      vertex 20.1164 16.7051 30
    endloop
  endfacet
  facet normal -0.69036 0.232317 0.685151
    outer loop
      vertex 17.261 12.684 28
      vertex 19.0031 11.9624 30
      vertex 17.966 14.779 28
    endloop
  endfacet
  facet normal -0.69036 0.232317 0.685151
    outer loop
      vertex 17.966 14.779 28
      vertex 19.0031 11.9624 30
      vertex 19.7081 14.0574 30
    endloop
  endfacet
  facet normal -0.697856 0.211693 0.68424
    outer loop
      vertex 19.8154 14.4111 30
      vertex 17.966 14.779 28
      vertex 19.7081 14.0574 30
    endloop
  endfacet
  facet normal -0.637852 0.35259 0.684708
    outer loop
      vertex 17.261 12.684 28
      vertex 17.062 12.324 28
      vertex 18.6298 11.2764 30
    endloop
  endfacet
  facet normal -0.637852 0.35259 0.684708
    outer loop
      vertex 18.8288 11.6364 30
      vertex 17.261 12.684 28
      vertex 18.6298 11.2764 30
    endloop
  endfacet
  facet normal -0.643147 0.34377 0.68424
    outer loop
      vertex 19.0031 11.9624 30
      vertex 17.261 12.684 28
      vertex 18.8288 11.6364 30
    endloop
  endfacet
  facet normal -0.634908 0.35743 0.684935
    outer loop
      vertex 17.062 12.324 28
      vertex 16.91 12.054 28
      vertex 18.4778 11.0064 30
    endloop
  endfacet
  facet normal -0.634908 0.35743 0.684935
    outer loop
      vertex 18.6298 11.2764 30
      vertex 17.062 12.324 28
      vertex 18.4778 11.0064 30
    endloop
  endfacet
  facet normal -0.578343 0.442673 0.685244
    outer loop
      vertex 16.91 12.054 28
      vertex 16.339 11.308 28
      vertex 17.9068 10.2604 30
    endloop
  endfacet
  facet normal -0.578343 0.442673 0.685244
    outer loop
      vertex 18.4778 11.0064 30
      vertex 16.91 12.054 28
      vertex 17.9068 10.2604 30
    endloop
  endfacet
  facet normal -0.498579 0.530156 0.685823
    outer loop
      vertex 16.339 11.308 28
      vertex 15.382 10.408 28
      vertex 16.7153 9.07467 30
    endloop
  endfacet
  facet normal -0.498579 0.530156 0.685823
    outer loop
      vertex 17.6723 9.97467 30
      vertex 16.339 11.308 28
      vertex 16.7153 9.07467 30
    endloop
  endfacet
  facet normal -0.563724 0.462636 0.68424
    outer loop
      vertex 17.9068 10.2604 30
      vertex 16.339 11.308 28
      vertex 17.6723 9.97467 30
    endloop
  endfacet
  facet normal -0.397712 0.609316 0.685973
    outer loop
      vertex 15.382 10.408 28
      vertex 14.187 9.628 28
      vertex 15.2346 8.06017 30
    endloop
  endfacet
  facet normal -0.397712 0.609316 0.685973
    outer loop
      vertex 16.4296 8.84017 30
      vertex 15.382 10.408 28
      vertex 15.2346 8.06017 30
    endloop
  endfacet
  facet normal -0.462636 0.563724 0.68424
    outer loop
      vertex 16.7153 9.07467 30
      vertex 15.382 10.408 28
      vertex 16.4296 8.84017 30
    endloop
  endfacet
  facet normal -0.319023 0.654642 0.685323
    outer loop
      vertex 14.187 9.628 28
      vertex 13.122 9.109 28
      vertex 13.8436 7.36692 30
    endloop
  endfacet
  facet normal -0.319023 0.654642 0.685323
    outer loop
      vertex 14.9086 7.88592 30
      vertex 14.187 9.628 28
      vertex 13.8436 7.36692 30
    endloop
  endfacet
  facet normal -0.34377 0.643147 0.68424
    outer loop
      vertex 15.2346 8.06017 30
      vertex 14.187 9.628 28
      vertex 14.9086 7.88592 30
    endloop
  endfacet
  facet normal -0.264192 0.678031 0.685913
    outer loop
      vertex 13.122 9.109 28
      vertex 12.755 8.966 28
      vertex 13.4766 7.22392 30
    endloop
  endfacet
  facet normal -0.264192 0.678031 0.685913
    outer loop
      vertex 13.8436 7.36692 30
      vertex 13.122 9.109 28
      vertex 13.4766 7.22392 30
    endloop
  endfacet
  facet normal -0.269159 0.676027 0.68596
    outer loop
      vertex 12.755 8.966 28
      vertex 12.539 8.88 28
      vertex 13.2606 7.13792 30
    endloop
  endfacet
  facet normal -0.269159 0.676027 0.68596
    outer loop
      vertex 13.4766 7.22392 30
      vertex 12.755 8.966 28
      vertex 13.2606 7.13792 30
    endloop
  endfacet
  facet normal -0.176474 0.706296 0.685567
    outer loop
      vertex 10.774 8.439 28
      vertex 11.1419 6.58961 30
      vertex 12.539 8.88 28
    endloop
  endfacet
  facet normal -0.176474 0.706296 0.685567
    outer loop
      vertex 12.539 8.88 28
      vertex 11.1419 6.58961 30
      vertex 12.9069 7.03061 30
    endloop
  endfacet
  facet normal -0.211693 0.697856 0.68424
    outer loop
      vertex 13.2606 7.13792 30
      vertex 12.539 8.88 28
      vertex 12.9069 7.03061 30
    endloop
  endfacet
  facet normal -0.121849 0.717469 0.685851
    outer loop
      vertex 8.089 7.983 28
      vertex 8.45687 6.13361 30
      vertex 10.774 8.439 28
    endloop
  endfacet
  facet normal -0.121849 0.717469 0.685851
    outer loop
      vertex 10.774 8.439 28
      vertex 8.45687 6.13361 30
      vertex 11.1419 6.58961 30
    endloop
  endfacet
  facet normal -0.100583 0.721198 0.685388
    outer loop
      vertex 7.415 7.889 28
      vertex 7.78287 6.03961 30
      vertex 8.089 7.983 28
    endloop
  endfacet
  facet normal -0.100583 0.721198 0.685388
    outer loop
      vertex 8.089 7.983 28
      vertex 7.78287 6.03961 30
      vertex 8.45687 6.13361 30
    endloop
  endfacet
  facet normal -0.0983474 0.72157 0.685321
    outer loop
      vertex 6.74 7.797 28
      vertex 7.10787 5.94761 30
      vertex 7.415 7.889 28
    endloop
  endfacet
  facet normal -0.0983474 0.72157 0.685321
    outer loop
      vertex 7.415 7.889 28
      vertex 7.10787 5.94761 30
      vertex 7.78287 6.03961 30
    endloop
  endfacet
endsolid OpenSCAD_Model
